<?xml version="1.0" encoding="UTF-8" standalone="no"?>
<!-- Created with Inkscape (http://www.inkscape.org/) -->

<svg
   xmlns:dc="http://purl.org/dc/elements/1.1/"
   xmlns:cc="http://creativecommons.org/ns#"
   xmlns:rdf="http://www.w3.org/1999/02/22-rdf-syntax-ns#"
   xmlns:svg="http://www.w3.org/2000/svg"
   xmlns="http://www.w3.org/2000/svg"
   xmlns:sodipodi="http://sodipodi.sourceforge.net/DTD/sodipodi-0.dtd"
   xmlns:inkscape="http://www.inkscape.org/namespaces/inkscape"
   width="59"
   height="46.000004"
   id="svg8033"
   version="1.1"
   inkscape:version="0.48.5 r10040"
   sodipodi:docname="New document 83">
  <defs
     id="defs8035" />
  <sodipodi:namedview
     id="base"
     pagecolor="#ffffff"
     bordercolor="#666666"
     borderopacity="1.0"
     inkscape:pageopacity="0.0"
     inkscape:pageshadow="2"
     inkscape:zoom="0.35"
     inkscape:cx="-74.285714"
     inkscape:cy="-145"
     inkscape:document-units="px"
     inkscape:current-layer="layer1"
     showgrid="true"
     fit-margin-top="0"
     fit-margin-left="0"
     fit-margin-right="0"
     fit-margin-bottom="0"
     inkscape:window-width="1261"
     inkscape:window-height="701"
     inkscape:window-x="22"
     inkscape:window-y="20"
     inkscape:window-maximized="0">
    <inkscape:grid
       type="xygrid"
       id="grid8041"
       empspacing="5"
       visible="true"
       enabled="true"
       snapvisiblegridlinesonly="true"
       originx="-335px"
       originy="-525px" />
  </sodipodi:namedview>
  <metadata
     id="metadata8038">
    <rdf:RDF>
      <cc:Work
         rdf:about="">
        <dc:format>image/svg+xml</dc:format>
        <dc:type
           rdf:resource="http://purl.org/dc/dcmitype/StillImage" />
        <dc:title></dc:title>
      </cc:Work>
    </rdf:RDF>
  </metadata>
  <g
     inkscape:label="Layer 1"
     inkscape:groupmode="layer"
     id="layer1"
     transform="translate(-335,-481.36218)">
    <g
       transform="translate(-1600,-850)"
       id="g7982">
      <rect
         ry="0"
         rx="0"
         transform="translate(1760,652.36218)"
         y="695"
         x="185"
         height="20"
         width="39"
         id="rect4218"
         style="color:#000000;fill:#c4ba86;fill-opacity:1;fill-rule:nonzero;stroke:none;stroke-width:2;marker:none;visibility:visible;display:inline;overflow:visible;enable-background:accumulate" />
      <rect
         ry="1.5000013"
         rx="1.5000013"
         y="1367.3622"
         x="1935"
         height="10"
         width="59"
         id="rect3324"
         style="color:#000000;fill:#ebe2b6;fill-opacity:1;fill-rule:nonzero;stroke:none;stroke-width:2;marker:none;visibility:visible;display:inline;overflow:visible;enable-background:accumulate" />
      <path
         inkscape:connector-curvature="0"
         id="path3330"
         transform="translate(1760,652.36218)"
         d="m 205,679 -6.875,2.0625 c 0,0 -2.125,0.9375 -2.125,1.9375 0,0.554 -0.446,1 -1,1 l -3.15625,0 C 191.5625,684.04688 191,684.25 191,685 c 0,1.108 -0.892,2 -2,2 l -4,0 c -0.91064,0 -1.66271,-0.60773 -1.90625,-1.4375 L 175,688 l 0,5 c 0,2 2,2 2,2 l 55,0 c 0,0 2,0 2,-2 l 0,-5 -6.34375,-1.96875 -1.25,-0.375 c -0.0319,-0.004 -0.0618,-0.0288 -0.0937,-0.0312 C 225.64844,685.57422 225,685.82812 225,687 c 0,1.108 -0.892,2 -2,2 l -4,0 c -1.108,0 -2,-0.892 -2,-2 l 0,-2 c 0,-1.96667 -2.2672,-2.96722 -2.34375,-3 l -1.9375,-0.59375 c 0,0 -1.488,-0.47347 -1.96875,0.21875 -0.0126,0.0181 -0.0201,0.0428 -0.0312,0.0625 C 210.53674,681.87955 210.2867,682 210,682 l -2,0 c -0.554,0 -1,-0.446 -1,-1 0,-1 -0.41516,-1.506 -1,-1.6875 L 205,679 z"
         style="color:#000000;fill:#ebe2b6;fill-opacity:1;fill-rule:nonzero;stroke:none;stroke-width:2;marker:none;visibility:visible;display:inline;overflow:visible;enable-background:accumulate" />
      <rect
         ry="0"
         rx="0"
         y="1342.3622"
         x="1940"
         height="30"
         width="5"
         id="rect3352"
         style="color:#000000;fill:#ebe2b6;fill-opacity:1;fill-rule:nonzero;stroke:none;stroke-width:2;marker:none;visibility:visible;display:inline;overflow:visible;enable-background:accumulate" />
      <rect
         style="color:#000000;fill:#ebe2b6;fill-opacity:1;fill-rule:nonzero;stroke:none;stroke-width:2;marker:none;visibility:visible;display:inline;overflow:visible;enable-background:accumulate"
         id="rect3354"
         width="5"
         height="30"
         x="1951"
         y="1342.3622"
         rx="0"
         ry="0" />
      <rect
         ry="0"
         rx="0"
         y="1342.3622"
         x="1962"
         height="30"
         width="5"
         id="rect3356"
         style="color:#000000;fill:#ebe2b6;fill-opacity:1;fill-rule:nonzero;stroke:none;stroke-width:2;marker:none;visibility:visible;display:inline;overflow:visible;enable-background:accumulate" />
      <rect
         style="color:#000000;fill:#ebe2b6;fill-opacity:1;fill-rule:nonzero;stroke:none;stroke-width:2;marker:none;visibility:visible;display:inline;overflow:visible;enable-background:accumulate"
         id="rect3358"
         width="5"
         height="30"
         x="1973"
         y="1342.3622"
         rx="0"
         ry="0" />
      <path
         sodipodi:nodetypes="ccccccccc"
         inkscape:connector-curvature="0"
         id="rect3360"
         transform="translate(1760,652.36218)"
         d="m 224,690 0,30 5,0 0,-9 c 0,-1 -2,-1 -2,-3 l 0,-3 c 1,0 2,-1 2,-2 l 0,-13 z"
         style="color:#000000;fill:#ebe2b6;fill-opacity:1;fill-rule:nonzero;stroke:none;stroke-width:2;marker:none;visibility:visible;display:inline;overflow:visible;enable-background:accumulate" />
      <path
         inkscape:connector-curvature="0"
         id="rect4130"
         d="m 1940,1347.3622 0,5 5,0 0,-5 -5,0 z m 11,0 0,5 5,0 0,-5 -5,0 z m 11,0 0,5 5,0 0,-5 -5,0 z m 11,0 0,5 5,0 0,-5 -5,0 z m 11,0 0,5 5,0 0,-5 -5,0 z"
         style="color:#000000;fill:#d4cb9e;fill-opacity:1;fill-rule:nonzero;stroke:none;stroke-width:2;marker:none;visibility:visible;display:inline;overflow:visible;enable-background:accumulate" />
    </g>
  </g>
</svg>
