<?xml version="1.0" encoding="UTF-8" standalone="no"?>
<!-- Created with Inkscape (http://www.inkscape.org/) -->

<svg
   xmlns:dc="http://purl.org/dc/elements/1.1/"
   xmlns:cc="http://creativecommons.org/ns#"
   xmlns:rdf="http://www.w3.org/1999/02/22-rdf-syntax-ns#"
   xmlns:svg="http://www.w3.org/2000/svg"
   xmlns="http://www.w3.org/2000/svg"
   xmlns:sodipodi="http://sodipodi.sourceforge.net/DTD/sodipodi-0.dtd"
   xmlns:inkscape="http://www.inkscape.org/namespaces/inkscape"
   width="45"
   height="40"
   id="svg7756"
   version="1.1"
   inkscape:version="0.48.2 r9819"
   sodipodi:docname="airport1.svg">
  <defs
     id="defs7758" />
  <sodipodi:namedview
     id="base"
     pagecolor="#ffffff"
     bordercolor="#666666"
     borderopacity="1.0"
     inkscape:pageopacity="0.0"
     inkscape:pageshadow="2"
     inkscape:zoom="4"
     inkscape:cx="27.126281"
     inkscape:cy="17.396085"
     inkscape:document-units="px"
     inkscape:current-layer="layer1"
     showgrid="true"
     fit-margin-top="0"
     fit-margin-left="0"
     fit-margin-right="0"
     fit-margin-bottom="0"
     inkscape:window-width="822"
     inkscape:window-height="662"
     inkscape:window-x="40"
     inkscape:window-y="40"
     inkscape:window-maximized="0">
    <inkscape:grid
       type="xygrid"
       id="grid7819"
       empspacing="5"
       visible="true"
       enabled="true"
       snapvisiblegridlinesonly="true" />
  </sodipodi:namedview>
  <metadata
     id="metadata7761">
    <rdf:RDF>
      <cc:Work
         rdf:about="">
        <dc:format>image/svg+xml</dc:format>
        <dc:type
           rdf:resource="http://purl.org/dc/dcmitype/StillImage" />
        <dc:title />
      </cc:Work>
    </rdf:RDF>
  </metadata>
  <g
     inkscape:label="Layer 1"
     inkscape:groupmode="layer"
     id="layer1"
     transform="translate(-280.5,-542.36218)">
    <path
       transform="translate(-797.5,-80.000003)"
       d="m 1115,654.86218 a 15,7.5 0 1 1 -30,0 15,7.5 0 1 1 30,0 z"
       sodipodi:ry="7.5"
       sodipodi:rx="15"
       sodipodi:cy="654.86218"
       sodipodi:cx="1100"
       id="path7782"
       style="opacity:0.1;color:#000000;fill:#162019;fill-opacity:1;fill-rule:nonzero;stroke:none;stroke-width:2;marker:none;visibility:visible;display:inline;overflow:visible;enable-background:accumulate"
       sodipodi:type="arc" />
    <path
       style="opacity:1;color:#000000;fill:#6ec4b8;fill-opacity:1;fill-rule:nonzero;stroke:none;stroke-width:2;marker:none;visibility:visible;display:inline;overflow:visible;enable-background:accumulate"
       d="m 305.5,554.36218 14,0 0,6 -14,0 z"
       id="rect11698" />
    <g
       transform="translate(-800,-79.999997)"
       id="g7789">
      <path
         inkscape:connector-curvature="0"
         id="rect7736"
         d="m 1097.2188,622.36218 2.8124,10.83753 -11.5,0.75681 -4.3124,-5.6004 -3.7188,0 1.8438,7.20485 0,1.81634 0,1.78608 -1.8438,7.20484 3.7188,0 4.3124,-5.60041 11.5313,0.72654 -2.8437,10.86782 6.2187,0 7.9063,-10.23209 c 4.3793,-0.11014 8.6396,-1.06631 11.3124,-2.36125 2.4787,-1.20065 2.4786,-3.61271 0,-4.81332 -2.0233,-0.98049 -6.7161,-2.18401 -11.3124,-2.39152 l -7.9063,-10.20182 -6.2187,0 z M 1109,635.43988 c 1.1046,0 2,0.86742 2,1.93743 0,1.07002 -0.8954,1.93744 -2,1.93744 -1.1046,0 -2,-0.86742 -2,-1.93744 0,-1.07001 0.8954,-1.93743 2,-1.93743 z m 7,0 c 1.1046,0 2,0.86742 2,1.93743 0,1.07002 -0.8954,1.93744 -2,1.93744 -1.1046,0 -2,-0.86742 -2,-1.93744 0,-1.07001 0.8954,-1.93743 2,-1.93743 z"
         style="color:#000000;fill:#ffffff;fill-opacity:1;fill-rule:nonzero;stroke:none;stroke-width:2;marker:none;visibility:visible;display:inline;overflow:visible;enable-background:accumulate" />
    </g>
  </g>
</svg>
