<?xml version="1.0" encoding="UTF-8" standalone="no"?>
<!-- Created with Inkscape (http://www.inkscape.org/) -->

<svg
   xmlns:dc="http://purl.org/dc/elements/1.1/"
   xmlns:cc="http://creativecommons.org/ns#"
   xmlns:rdf="http://www.w3.org/1999/02/22-rdf-syntax-ns#"
   xmlns:svg="http://www.w3.org/2000/svg"
   xmlns="http://www.w3.org/2000/svg"
   xmlns:sodipodi="http://sodipodi.sourceforge.net/DTD/sodipodi-0.dtd"
   xmlns:inkscape="http://www.inkscape.org/namespaces/inkscape"
   width="45"
   height="40"
   id="svg7756"
   version="1.1"
   inkscape:version="0.48.2 r9819"
   sodipodi:docname="airport2.svg">
  <defs
     id="defs7758" />
  <sodipodi:namedview
     id="base"
     pagecolor="#ffffff"
     bordercolor="#666666"
     borderopacity="1.0"
     inkscape:pageopacity="0.0"
     inkscape:pageshadow="2"
     inkscape:zoom="4"
     inkscape:cx="27.126281"
     inkscape:cy="17.396085"
     inkscape:document-units="px"
     inkscape:current-layer="layer1"
     showgrid="true"
     fit-margin-top="0"
     fit-margin-left="0"
     fit-margin-right="0"
     fit-margin-bottom="0"
     inkscape:window-width="1172"
     inkscape:window-height="750"
     inkscape:window-x="40"
     inkscape:window-y="40"
     inkscape:window-maximized="0">
    <inkscape:grid
       type="xygrid"
       id="grid7819"
       empspacing="5"
       visible="true"
       enabled="true"
       snapvisiblegridlinesonly="true" />
  </sodipodi:namedview>
  <metadata
     id="metadata7761">
    <rdf:RDF>
      <cc:Work
         rdf:about="">
        <dc:format>image/svg+xml</dc:format>
        <dc:type
           rdf:resource="http://purl.org/dc/dcmitype/StillImage" />
        <dc:title />
      </cc:Work>
    </rdf:RDF>
  </metadata>
  <g
     inkscape:label="Layer 1"
     inkscape:groupmode="layer"
     id="layer1"
     transform="translate(-280.5,-542.36218)">
    <path
       transform="translate(-793.5,-80.000003)"
       d="m 1115,654.86218 a 15,7.5 0 1 1 -30,0 15,7.5 0 1 1 30,0 z"
       sodipodi:ry="7.5"
       sodipodi:rx="15"
       sodipodi:cy="654.86218"
       sodipodi:cx="1100"
       id="path7782"
       style="opacity:0.1;color:#000000;fill:#162019;fill-opacity:1;fill-rule:nonzero;stroke:none;stroke-width:2;marker:none;visibility:visible;display:inline;overflow:visible;enable-background:accumulate"
       sodipodi:type="arc" />
    <g
       transform="translate(-880.5,-80.999998)"
       id="g12402">
      <g
         transform="translate(85,0)"
         id="g12297" />
      <path
         transform="matrix(0.66666667,0,0,0.95,393.66667,34.368109)"
         d="m 1205,637.36218 c 0,5.52285 -6.7157,10 -15,10 -8.2843,0 -15,-4.47715 -15,-10 0,-5.52284 6.7157,-10 15,-10 8.2843,0 15,4.47716 15,10 z"
         sodipodi:ry="10"
         sodipodi:rx="15"
         sodipodi:cy="637.36218"
         sodipodi:cx="1190"
         id="path12321"
         style="color:#000000;fill:#ffffff;fill-opacity:1;fill-rule:nonzero;stroke:none;stroke-width:2;marker:none;visibility:visible;display:inline;overflow:visible;enable-background:accumulate"
         sodipodi:type="arc" />
      <path
         sodipodi:nodetypes="ccccc"
         inkscape:connector-curvature="0"
         id="path12323"
         d="m 1184,636.36218 -15,2 0,3 15,2 z"
         style="color:#000000;fill:#ffffff;fill-opacity:1;fill-rule:nonzero;stroke:none;stroke-width:2;marker:none;visibility:visible;display:inline;overflow:visible;enable-background:accumulate" />
      <path
         inkscape:connector-curvature="0"
         id="path12321-9"
         d="m 1167.5,635.375 c -2.4853,0 -4.5,2.01472 -4.5,4.5 0,2.48528 2.0147,4.5 4.5,4.5 2.4853,0 4.5,-2.01472 4.5,-4.5 0,-2.48528 -2.0147,-4.5 -4.5,-4.5 z m 0,3 c 0.8284,0 1.5,0.67157 1.5,1.5 0,0.82843 -0.6716,1.5 -1.5,1.5 -0.8284,0 -1.5,-0.67157 -1.5,-1.5 0,-0.82843 0.6716,-1.5 1.5,-1.5 z"
         style="color:#000000;fill:#ffffff;fill-opacity:1;fill-rule:nonzero;stroke:none;stroke-width:2;marker:none;visibility:visible;display:inline;overflow:visible;enable-background:accumulate" />
      <rect
         ry="1.5"
         rx="1.5"
         y="651.36218"
         x="1178"
         height="3"
         width="17"
         id="rect12347"
         style="color:#000000;fill:#ffffff;fill-opacity:1;fill-rule:nonzero;stroke:none;stroke-width:2;marker:none;visibility:visible;display:inline;overflow:visible;enable-background:accumulate" />
      <rect
         transform="matrix(0.96592583,0.25881905,-0.25881905,0.96592583,0,0)"
         ry="1.5"
         rx="1.5"
         y="318.03586"
         x="1309.8871"
         height="7"
         width="2"
         id="rect12349"
         style="color:#000000;fill:#ffffff;fill-opacity:1;fill-rule:nonzero;stroke:none;stroke-width:2;marker:none;visibility:visible;display:inline;overflow:visible;enable-background:accumulate" />
      <rect
         style="color:#000000;fill:#ffffff;fill-opacity:1;fill-rule:nonzero;stroke:none;stroke-width:2;marker:none;visibility:visible;display:inline;overflow:visible;enable-background:accumulate"
         id="rect12351"
         width="2"
         height="7"
         x="-982.25494"
         y="932.21307"
         rx="1.5"
         ry="1.5"
         transform="matrix(-0.96592583,0.25881905,0.25881905,0.96592583,0,0)" />
      <path
         sodipodi:nodetypes="ccccscc"
         inkscape:connector-curvature="0"
         id="path12321-8"
         d="m 1186,632.25 0,7.125 c 0,0.98718 1,1.98718 2,1.98718 l 4,0 c 1,0 2,-1 2,-2 0,-4.0401 -3.7059,-7.1122 -8.0002,-7.1122 z"
         style="color:#000000;fill:#6ec4b8;fill-opacity:1;fill-rule:nonzero;stroke:none;stroke-width:2;marker:none;visibility:visible;display:inline;overflow:visible;enable-background:accumulate" />
      <path
         sodipodi:type="arc"
         style="color:#000000;fill:#ffffff;fill-opacity:1;fill-rule:nonzero;stroke:none;stroke-width:2;marker:none;visibility:visible;display:inline;overflow:visible;enable-background:accumulate"
         id="path12353"
         sodipodi:cx="1190"
         sodipodi:cy="637.36218"
         sodipodi:rx="15"
         sodipodi:ry="10"
         d="m 1205,637.36218 c 0,5.52285 -6.7157,10 -15,10 -8.2843,0 -15,-4.47715 -15,-10 0,-5.52284 6.7157,-10 15,-10 8.2843,0 15,4.47716 15,10 z"
         transform="matrix(1.1333331,0,0,0.45000001,-161.6664,343.0492)" />
    </g>
  </g>
</svg>
