<?xml version="1.0" encoding="UTF-8" standalone="no"?>
<!-- Created with Inkscape (http://www.inkscape.org/) -->

<svg
   xmlns:dc="http://purl.org/dc/elements/1.1/"
   xmlns:cc="http://creativecommons.org/ns#"
   xmlns:rdf="http://www.w3.org/1999/02/22-rdf-syntax-ns#"
   xmlns:svg="http://www.w3.org/2000/svg"
   xmlns="http://www.w3.org/2000/svg"
   xmlns:sodipodi="http://sodipodi.sourceforge.net/DTD/sodipodi-0.dtd"
   xmlns:inkscape="http://www.inkscape.org/namespaces/inkscape"
   width="744.09448819"
   height="1052.3622047"
   id="svg5630"
   version="1.1"
   inkscape:version="0.48.2 r9819"
   sodipodi:docname="New document 40">
  <defs
     id="defs5632" />
  <sodipodi:namedview
     id="base"
     pagecolor="#ffffff"
     bordercolor="#666666"
     borderopacity="1.0"
     inkscape:pageopacity="0.0"
     inkscape:pageshadow="2"
     inkscape:zoom="4"
     inkscape:cx="236.49039"
     inkscape:cy="688.53358"
     inkscape:document-units="px"
     inkscape:current-layer="layer1"
     showgrid="true"
     inkscape:window-width="824"
     inkscape:window-height="657"
     inkscape:window-x="111"
     inkscape:window-y="20"
     inkscape:window-maximized="0">
    <inkscape:grid
       type="xygrid"
       id="grid5638" />
  </sodipodi:namedview>
  <metadata
     id="metadata5635">
    <rdf:RDF>
      <cc:Work
         rdf:about="">
        <dc:format>image/svg+xml</dc:format>
        <dc:type
           rdf:resource="http://purl.org/dc/dcmitype/StillImage" />
        <dc:title></dc:title>
      </cc:Work>
    </rdf:RDF>
  </metadata>
  <g
     inkscape:label="Layer 1"
     inkscape:groupmode="layer"
     id="layer1">
    <g
       id="g5679">
      <rect
         y="321.36218"
         x="247"
         height="49"
         width="31"
         id="rect5640"
         style="color:#000000;fill:none;fill-opacity:1;fill-rule:nonzero;stroke:none;stroke-width:14;marker:none;visibility:visible;display:inline;overflow:visible;enable-background:accumulate" />
      <g
         id="g5047"
         transform="translate(-250,360.00003)">
        <path
           style="color:#000000;fill:#c09872;fill-opacity:1;fill-rule:nonzero;stroke:none;stroke-width:2;marker:none;visibility:visible;display:inline;overflow:visible;enable-background:accumulate"
           d="m 518.86068,-37.926901 c -0.86054,-0.230582 -1.29626,0.451863 -1.94047,1.000612 l -1.44463,1.230532 c -1.66311,1.416618 -2.90204,2.508717 -3.49588,4.72495 -0.92912,3.467529 1.3449,7.089659 5.07916,8.090251 3.73426,1.000592 7.51468,-0.999255 8.4438,-4.466785 0.59384,-2.216233 0.0669,-3.781483 -0.66504,-5.839864 l -0.63582,-1.787987 c -0.28354,-0.797339 -0.31965,-1.606212 -1.1802,-1.836794 z"
           id="path4872"
           inkscape:connector-curvature="0"
           sodipodi:nodetypes="ssssssssss" />
        <path
           sodipodi:type="arc"
           style="opacity:0.1;color:#000000;fill:#162019;fill-opacity:1;fill-rule:nonzero;stroke:none;stroke-width:2;marker:none;visibility:visible;display:inline;overflow:visible;enable-background:accumulate"
           id="path4874"
           sodipodi:cx="1100"
           sodipodi:cy="654.86218"
           sodipodi:rx="15"
           sodipodi:ry="7.5"
           d="m 1115,654.86218 c 0,4.14214 -6.7157,7.5 -15,7.5 -8.2843,0 -15,-3.35786 -15,-7.5 0,-4.14213 6.7157,-7.5 15,-7.5 8.2843,0 15,3.35787 15,7.5 z"
           transform="matrix(1,0,0,0.80000121,-587,-519.52836)" />
        <path
           sodipodi:nodetypes="ccccccccscc"
           inkscape:connector-curvature="0"
           id="path4876"
           d="m 513.75,-17.15625 c -0.80702,0.08782 -3.55663,0.595616 -3.9375,1.3125 L 507,-6.6378174 501.8125,1.15625 C 501.09595,2.3058057 501.6454,5.3621826 503,5.3621826 l 4,0 0,-2 10.1875,-16.7996826 c 0.45001,-0.794473 -0.58387,-1.839246 -1.0844,-2.602893 -0.50054,-0.763647 -1.44505,-1.21154 -2.35309,-1.115857 z"
           style="font-size:medium;font-style:normal;font-variant:normal;font-weight:normal;font-stretch:normal;text-indent:0;text-align:start;text-decoration:none;line-height:normal;letter-spacing:normal;word-spacing:normal;text-transform:none;direction:ltr;block-progression:tb;writing-mode:lr-tb;text-anchor:start;baseline-shift:baseline;color:#000000;fill:#a58464;fill-opacity:1;stroke:none;stroke-width:5;marker:none;visibility:visible;display:inline;overflow:visible;enable-background:accumulate;font-family:Sans;-inkscape-font-specification:Sans" />
        <path
           inkscape:connector-curvature="0"
           id="path4878"
           d="m 518.98074,-17.514129 5.16352,4.877618"
           style="color:#000000;fill:#a58464;fill-opacity:1;fill-rule:nonzero;stroke:#a58464;stroke-width:4;stroke-linecap:round;stroke-linejoin:round;stroke-miterlimit:4;stroke-opacity:1;stroke-dasharray:none;stroke-dashoffset:0;marker:none;visibility:visible;display:inline;overflow:visible;enable-background:accumulate" />
        <path
           sodipodi:nodetypes="sccssssss"
           inkscape:connector-curvature="0"
           id="path4880"
           d="m 514,-24.637817 6,0 0,4 0,9 c 0,2.2160001 -0.784,3.9999996 -3,3.9999996 l -3,0 c -3,0 -6.85714,-2.9999996 -6,-5.9999996 l 2,-7 c 0.60878,-2.130738 1.784,-4 4,-4 z"
           style="color:#000000;fill:#c09872;fill-opacity:1;fill-rule:nonzero;stroke:none;stroke-width:2;marker:none;visibility:visible;display:inline;overflow:visible;enable-background:accumulate" />
        <path
           sodipodi:nodetypes="cscccsccscc"
           inkscape:connector-curvature="0"
           id="path4882"
           d="m 510.71875,-16.15625 c -0.94276,0.09196 -1.80368,0.767764 -2.11689,1.661715 -0.31321,0.89395 -0.0623,1.959296 0.61689,2.619535 L 517,-4.59375 l 0,8.4203276 c -0.0187,1.3207816 1.81307,2.535605 3,2.535605 1,0 2,0 2,0 L 522,-5.625 c 0.007,-0.6571198 -0.65869,-1.4744546 -1.21875,-2.78125 l -3,-7 c -0.52594,-0.544924 -6.30938,-0.829813 -7.0625,-0.75 z"
           style="font-size:medium;font-style:normal;font-variant:normal;font-weight:normal;font-stretch:normal;text-indent:0;text-align:start;text-decoration:none;line-height:normal;letter-spacing:normal;word-spacing:normal;text-transform:none;direction:ltr;block-progression:tb;writing-mode:lr-tb;text-anchor:start;baseline-shift:baseline;color:#000000;fill:#c09872;fill-opacity:1;stroke:none;stroke-width:5;marker:none;visibility:visible;display:inline;overflow:visible;enable-background:accumulate;font-family:Sans;-inkscape-font-specification:Sans" />
        <path
           sodipodi:nodetypes="cc"
           inkscape:connector-curvature="0"
           id="path4884"
           d="M 513.25666,-23.503557 504.375,-11.01282"
           style="color:#000000;fill:#a58464;fill-opacity:1;fill-rule:nonzero;stroke:#c09872;stroke-width:4;stroke-linecap:round;stroke-linejoin:round;stroke-miterlimit:4;stroke-opacity:1;stroke-dasharray:none;stroke-dashoffset:0;marker:none;visibility:visible;display:inline;overflow:visible;enable-background:accumulate" />
        <path
           style="color:#000000;fill:#d6b292;fill-opacity:1;fill-rule:nonzero;stroke:none;stroke-width:3;marker:none;visibility:visible;display:inline;overflow:visible;enable-background:accumulate"
           d="m 516.97023,-32.235058 4.84261,1.297573 c 0.79908,0.214114 1.45686,1.105264 1.0559,1.828874 l -2.00468,3.617887 c -0.40096,0.72361 -1.0298,1.270014 -1.82888,1.055901 l -2.91076,-0.779936 c -0.79908,-0.214113 -1.07046,-1.001731 -1.0559,-1.828874 l 0.0728,-4.135525 c 0.0146,-0.827143 1.02979,-1.270014 1.82887,-1.0559 z"
           id="rect10655-9"
           inkscape:connector-curvature="0"
           sodipodi:nodetypes="sssssssss" />
        <path
           transform="matrix(0.96592583,0.25881905,-0.25881905,0.96592583,-119.14897,-179.24629)"
           d="m 655,-22.137817 c 0,1.380711 -1.11929,2.5 -2.5,2.5 -1.38071,0 -2.5,-1.119289 -2.5,-2.5 0,-1.380712 1.11929,-2.5 2.5,-2.5 1.38071,0 2.5,1.119288 2.5,2.5 z"
           sodipodi:ry="2.5"
           sodipodi:rx="2.5"
           sodipodi:cy="-22.137817"
           sodipodi:cx="652.5"
           id="path10662-2"
           style="color:#000000;fill:#d6b292;fill-opacity:1;fill-rule:nonzero;stroke:none;stroke-width:3;marker:none;visibility:visible;display:inline;overflow:visible;enable-background:accumulate"
           sodipodi:type="arc" />
        <path
           transform="matrix(0.96592583,0.25881905,-0.25881905,0.96592583,-114.31934,-177.9522)"
           sodipodi:type="arc"
           style="color:#000000;fill:#d6b292;fill-opacity:1;fill-rule:nonzero;stroke:none;stroke-width:3;marker:none;visibility:visible;display:inline;overflow:visible;enable-background:accumulate"
           id="path10664-4"
           sodipodi:cx="652.5"
           sodipodi:cy="-22.137817"
           sodipodi:rx="2.5"
           sodipodi:ry="2.5"
           d="m 655,-22.137817 c 0,1.380711 -1.11929,2.5 -2.5,2.5 -1.38071,0 -2.5,-1.119289 -2.5,-2.5 0,-1.380712 1.11929,-2.5 2.5,-2.5 1.38071,0 2.5,1.119288 2.5,2.5 z" />
        <path
           transform="matrix(0.4053986,0.10862623,-0.10862623,0.4053986,152.86101,-166.15323)"
           d="m 935,84.862183 c 0,1.380711 -1.11929,2.5 -2.5,2.5 -1.38071,0 -2.5,-1.119289 -2.5,-2.5 0,-1.380712 1.11929,-2.5 2.5,-2.5 1.38071,0 2.5,1.119288 2.5,2.5 z"
           sodipodi:ry="2.5"
           sodipodi:rx="2.5"
           sodipodi:cy="84.862183"
           sodipodi:cx="932.5"
           id="path10622-8"
           style="color:#000000;fill:#5c4d42;fill-opacity:1;fill-rule:nonzero;stroke:none;stroke-width:2;marker:none;visibility:visible;display:inline;overflow:visible;enable-background:accumulate"
           sodipodi:type="arc" />
        <path
           sodipodi:nodetypes="ccccccc"
           inkscape:connector-curvature="0"
           id="rect10657-3"
           d="m 516.42442,-28.240204 c 0,0 0,0 1.93185,0.517638 1.93185,0.517638 1.93185,0.517638 1.93185,0.517638 l -0.25882,0.965926 c 0,0 0,0 -1.93185,-0.517638 -1.93185,-0.517638 -1.93185,-0.517638 -1.93185,-0.517638 z"
           style="color:#000000;fill:#7a6657;fill-opacity:1;fill-rule:nonzero;stroke:none;stroke-width:3;marker:none;visibility:visible;display:inline;overflow:visible;enable-background:accumulate" />
        <rect
           y="-162.93842"
           x="492.51859"
           height="1"
           width="2"
           id="rect10659-9"
           style="color:#000000;fill:#7a6657;fill-opacity:1;fill-rule:nonzero;stroke:none;stroke-width:3;marker:none;visibility:visible;display:inline;overflow:visible;enable-background:accumulate"
           transform="matrix(0.96592583,0.25881905,-0.25881905,0.96592583,0,0)" />
        <rect
           ry="0"
           rx="0"
           y="-165.93842"
           x="492.51859"
           height="3"
           width="2"
           id="rect10666-6"
           style="color:#000000;fill:#d6b292;fill-opacity:1;fill-rule:nonzero;stroke:none;stroke-width:3;marker:none;visibility:visible;display:inline;overflow:visible;enable-background:accumulate"
           transform="matrix(0.96592583,0.25881905,-0.25881905,0.96592583,0,0)" />
        <path
           sodipodi:type="arc"
           style="color:#000000;fill:#5c4d42;fill-opacity:1;fill-rule:nonzero;stroke:none;stroke-width:2;marker:none;visibility:visible;display:inline;overflow:visible;enable-background:accumulate"
           id="path10688-4"
           sodipodi:cx="932.5"
           sodipodi:cy="84.862183"
           sodipodi:rx="2.5"
           sodipodi:ry="2.5"
           d="m 935,84.862183 c 0,1.380711 -1.11929,2.5 -2.5,2.5 -1.38071,0 -2.5,-1.119289 -2.5,-2.5 0,-1.380712 1.11929,-2.5 2.5,-2.5 1.38071,0 2.5,1.119288 2.5,2.5 z"
           transform="matrix(0.4053986,0.10862623,-0.10862623,0.4053986,148.03138,-167.44732)" />
      </g>
    </g>
  </g>
</svg>
