<?xml version="1.0" encoding="UTF-8" standalone="no"?>
<!-- Created with Inkscape (http://www.inkscape.org/) -->

<svg
   xmlns:dc="http://purl.org/dc/elements/1.1/"
   xmlns:cc="http://creativecommons.org/ns#"
   xmlns:rdf="http://www.w3.org/1999/02/22-rdf-syntax-ns#"
   xmlns:svg="http://www.w3.org/2000/svg"
   xmlns="http://www.w3.org/2000/svg"
   xmlns:sodipodi="http://sodipodi.sourceforge.net/DTD/sodipodi-0.dtd"
   xmlns:inkscape="http://www.inkscape.org/namespaces/inkscape"
   width="40"
   height="40"
   id="svg2"
   version="1.1"
   inkscape:version="0.48.2 r9819"
   sodipodi:docname="city3.svg">
  <defs
     id="defs4" />
  <sodipodi:namedview
     id="base"
     pagecolor="#ffffff"
     bordercolor="#666666"
     borderopacity="1.0"
     inkscape:pageopacity="0.0"
     inkscape:pageshadow="2"
     inkscape:zoom="11.313708"
     inkscape:cx="18.99167"
     inkscape:cy="24.739499"
     inkscape:document-units="px"
     inkscape:current-layer="layer1"
     showgrid="true"
     fit-margin-top="0"
     fit-margin-left="0"
     fit-margin-right="0"
     fit-margin-bottom="0"
     inkscape:window-width="1635"
     inkscape:window-height="908"
     inkscape:window-x="171"
     inkscape:window-y="99"
     inkscape:window-maximized="0"
     inkscape:object-paths="true"
     inkscape:object-nodes="true">
    <inkscape:grid
       type="xygrid"
       id="grid2985"
       empspacing="5"
       visible="true"
       enabled="true"
       snapvisiblegridlinesonly="true" />
  </sodipodi:namedview>
  <metadata
     id="metadata7">
    <rdf:RDF>
      <cc:Work
         rdf:about="">
        <dc:format>image/svg+xml</dc:format>
        <dc:type
           rdf:resource="http://purl.org/dc/dcmitype/StillImage" />
        <dc:title />
      </cc:Work>
    </rdf:RDF>
  </metadata>
  <g
     inkscape:label="Layer 1"
     inkscape:groupmode="layer"
     id="layer1"
     transform="translate(-40,-402.36218)">
    <rect
       style="color:#000000;fill:none;stroke:none;stroke-width:2;marker:none;visibility:visible;display:inline;overflow:visible;enable-background:accumulate"
       id="rect4586-5"
       width="40"
       height="40"
       x="40"
       y="402.36218" />
    <rect
       style="color:#000000;fill:#af6c6a;fill-opacity:1;fill-rule:nonzero;stroke:none;stroke-width:2;marker:none;visibility:visible;display:inline;overflow:visible;enable-background:accumulate"
       id="rect8842"
       width="36"
       height="19.000006"
       x="42"
       y="420.36218" />
    <path
       style="color:#000000;fill:#dd7d7b;fill-opacity:1;fill-rule:nonzero;stroke:none;stroke-width:2;marker:none;visibility:visible;display:inline;overflow:visible;enable-background:accumulate"
       d="M 20 0 L 14 7 L 14 15 L 3 15 C 1.338 15 0 16.338 0 18 L 0 37 C 0 38.662 1.338 40 3 40 L 37 40 C 38.662 40 40 38.662 40 37 L 40 18 C 40 16.338 38.662 15 37 15 L 26 15 L 26 7 L 20 0 z M 6 20 L 7 20 C 8.108 20 9 20.892 9 22 L 9 23 C 9 24.108 8.108 25 7 25 L 6 25 C 4.892 25 4 24.108 4 23 L 4 22 C 4 20.892 4.892 20 6 20 z M 15 20 L 16 20 C 17.108 20 18 20.892 18 22 L 18 23 C 18 24.108 17.108 25 16 25 L 15 25 C 13.892 25 13 24.108 13 23 L 13 22 C 13 20.892 13.892 20 15 20 z M 24 20 L 25 20 C 26.108 20 27 20.892 27 22 L 27 23 C 27 24.108 26.108 25 25 25 L 24 25 C 22.892 25 22 24.108 22 23 L 22 22 C 22 20.892 22.892 20 24 20 z M 33 20 L 34 20 C 35.108 20 36 20.892 36 22 L 36 23 C 36 24.108 35.108 25 34 25 L 33 25 C 31.892 25 31 24.108 31 23 L 31 22 C 31 20.892 31.892 20 33 20 z M 6 30 L 7 30 C 8.108 30 9 30.892 9 32 L 9 33 C 9 34.108 8.108 35 7 35 L 6 35 C 4.892 35 4 34.108 4 33 L 4 32 C 4 30.892 4.892 30 6 30 z M 15 30 L 16 30 C 17.108 30 18 30.892 18 32 L 18 33 C 18 34.108 17.108 35 16 35 L 15 35 C 13.892 35 13 34.108 13 33 L 13 32 C 13 30.892 13.892 30 15 30 z M 24 30 L 25 30 C 26.108 30 27 30.892 27 32 L 27 33 C 27 34.108 26.108 35 25 35 L 24 35 C 22.892 35 22 34.108 22 33 L 22 32 C 22 30.892 22.892 30 24 30 z M 33 30 L 34 30 C 35.108 30 36 30.892 36 32 L 36 33 C 36 34.108 35.108 35 34 35 L 33 35 C 31.892 35 31 34.108 31 33 L 31 32 C 31 30.892 31.892 30 33 30 z "
       transform="translate(40,402.36218)"
       id="rect4639-1" />
  </g>
</svg>
