<?xml version="1.0" encoding="UTF-8" standalone="no"?>
<!-- Created with Inkscape (http://www.inkscape.org/) -->

<svg
   xmlns:dc="http://purl.org/dc/elements/1.1/"
   xmlns:cc="http://creativecommons.org/ns#"
   xmlns:rdf="http://www.w3.org/1999/02/22-rdf-syntax-ns#"
   xmlns:svg="http://www.w3.org/2000/svg"
   xmlns="http://www.w3.org/2000/svg"
   xmlns:sodipodi="http://sodipodi.sourceforge.net/DTD/sodipodi-0.dtd"
   xmlns:inkscape="http://www.inkscape.org/namespaces/inkscape"
   width="20"
   height="25"
   id="svg2"
   version="1.1"
   inkscape:version="0.48.2 r9819"
   sodipodi:docname="city1.svg">
  <defs
     id="defs4" />
  <sodipodi:namedview
     id="base"
     pagecolor="#ffffff"
     bordercolor="#666666"
     borderopacity="1.0"
     inkscape:pageopacity="0.0"
     inkscape:pageshadow="2"
     inkscape:zoom="16"
     inkscape:cx="-4.9937548"
     inkscape:cy="8.9825383"
     inkscape:document-units="px"
     inkscape:current-layer="layer1"
     showgrid="true"
     fit-margin-top="0"
     fit-margin-left="0"
     fit-margin-right="0"
     fit-margin-bottom="0"
     inkscape:window-width="1635"
     inkscape:window-height="908"
     inkscape:window-x="182"
     inkscape:window-y="138"
     inkscape:window-maximized="0"
     inkscape:object-paths="true"
     inkscape:object-nodes="true">
    <inkscape:grid
       type="xygrid"
       id="grid2985"
       empspacing="5"
       visible="true"
       enabled="true"
       snapvisiblegridlinesonly="true" />
  </sodipodi:namedview>
  <metadata
     id="metadata7">
    <rdf:RDF>
      <cc:Work
         rdf:about="">
        <dc:format>image/svg+xml</dc:format>
        <dc:type
           rdf:resource="http://purl.org/dc/dcmitype/StillImage" />
        <dc:title />
      </cc:Work>
    </rdf:RDF>
  </metadata>
  <g
     inkscape:label="Layer 1"
     inkscape:groupmode="layer"
     id="layer1"
     transform="translate(-45,-417.36218)">
    <rect
       style="color:#000000;fill:#af6c6a;fill-opacity:1;fill-rule:nonzero;stroke:none;stroke-width:2;marker:none;visibility:visible;display:inline;overflow:visible;enable-background:accumulate"
       id="rect8798"
       width="17"
       height="15.866662"
       x="47"
       y="424.42886" />
    <path
       style="color:#000000;fill:#dd7d7b;fill-opacity:1;stroke:none;stroke-width:2;marker:none;visibility:visible;display:inline;overflow:visible;enable-background:accumulate"
       d="m 13,-5 c -1.661999,0 -3,1.3380015 -3,3 L 10,0 3,0 C 1.338,0 0,1.338 0,3 l 0,14 c 0,1.662 1.338,3 3,3 l 14,0 c 1.662,0 3,-1.338 3,-3 l 0,-11 0,-3 0,-5 c 0,-1.6619985 -1.338001,-3 -3,-3 l -4,0 z M 5,3 6,3 C 7.108,3 8,3.892 8,5 L 8,6 C 8,7.108 7.108,8 6,8 L 5,8 C 3.892,8 3,7.108 3,6 L 3,5 C 3,3.892 3.892,3 5,3 z m 0,9 1,0 c 1.108,0 2,0.892 2,2 l 0,1 c 0,1.108 -0.892,2 -2,2 L 5,17 C 3.892,17 3,16.108 3,15 l 0,-1 c 0,-1.108 0.892,-2 2,-2 z m 9,0 1,0 c 1.108,0 2,0.892 2,2 l 0,1 c 0,1.108 -0.892,2 -2,2 l -1,0 c -1.108,0 -2,-0.892 -2,-2 l 0,-1 c 0,-1.108 0.892,-2 2,-2 z"
       transform="translate(45,422.36218)"
       id="rect2986"
       inkscape:connector-curvature="0" />
  </g>
</svg>
