<?xml version="1.0" encoding="UTF-8" standalone="no"?>
<!-- Created with Inkscape (http://www.inkscape.org/) -->

<svg
   xmlns:dc="http://purl.org/dc/elements/1.1/"
   xmlns:cc="http://creativecommons.org/ns#"
   xmlns:rdf="http://www.w3.org/1999/02/22-rdf-syntax-ns#"
   xmlns:svg="http://www.w3.org/2000/svg"
   xmlns="http://www.w3.org/2000/svg"
   xmlns:sodipodi="http://sodipodi.sourceforge.net/DTD/sodipodi-0.dtd"
   xmlns:inkscape="http://www.inkscape.org/namespaces/inkscape"
   width="50"
   height="50"
   id="svg2"
   version="1.1"
   inkscape:version="0.48.2 r9819"
   sodipodi:docname="city6.svg">
  <defs
     id="defs4" />
  <sodipodi:namedview
     id="base"
     pagecolor="#ffffff"
     bordercolor="#666666"
     borderopacity="1.0"
     inkscape:pageopacity="0.0"
     inkscape:pageshadow="2"
     inkscape:zoom="8"
     inkscape:cx="29.030772"
     inkscape:cy="23.203308"
     inkscape:document-units="px"
     inkscape:current-layer="layer1"
     showgrid="true"
     fit-margin-top="0"
     fit-margin-left="0"
     fit-margin-right="0"
     fit-margin-bottom="0"
     inkscape:window-width="1635"
     inkscape:window-height="908"
     inkscape:window-x="87"
     inkscape:window-y="157"
     inkscape:window-maximized="0"
     inkscape:object-paths="true"
     inkscape:object-nodes="true">
    <inkscape:grid
       type="xygrid"
       id="grid2985"
       empspacing="5"
       visible="true"
       enabled="true"
       snapvisiblegridlinesonly="true" />
  </sodipodi:namedview>
  <metadata
     id="metadata7">
    <rdf:RDF>
      <cc:Work
         rdf:about="">
        <dc:format>image/svg+xml</dc:format>
        <dc:type
           rdf:resource="http://purl.org/dc/dcmitype/StillImage" />
        <dc:title />
      </cc:Work>
    </rdf:RDF>
  </metadata>
  <g
     inkscape:label="Layer 1"
     inkscape:groupmode="layer"
     id="layer1"
     transform="translate(-40,-392.36218)">
    <rect
       style="color:#000000;fill:#af6c6a;fill-opacity:1;fill-rule:nonzero;stroke:none;stroke-width:2;marker:none;visibility:visible;display:inline;overflow:visible;enable-background:accumulate"
       id="rect8796-3"
       width="7"
       height="16"
       x="47"
       y="409.36218" />
    <rect
       style="color:#000000;fill:#af6c6a;fill-opacity:1;fill-rule:nonzero;stroke:none;stroke-width:2;marker:none;visibility:visible;display:inline;overflow:visible;enable-background:accumulate"
       id="rect8796"
       width="16"
       height="16"
       x="63"
       y="399.36218" />
    <rect
       style="color:#000000;fill:#af6c6a;fill-opacity:1;fill-rule:nonzero;stroke:none;stroke-width:2;marker:none;visibility:visible;display:inline;overflow:visible;enable-background:accumulate"
       id="rect8796-6"
       width="16"
       height="16"
       x="68"
       y="424.36218" />
    <path
       style="color:#000000;fill:#dd7d7b;fill-opacity:1;fill-rule:nonzero;stroke:none;stroke-width:2;marker:none;visibility:visible;display:inline;overflow:visible;enable-background:accumulate"
       d="M 34 0 C 32.338 0 31 1.338 31 3 L 31 5 L 24 5 C 22.338 5 21 6.338 21 8 L 21 22 C 21 23.662 22.338 25 24 25 L 38 25 C 39.662 25 41 23.662 41 22 L 41 11 L 41 8 L 41 3 C 41 1.338 39.662 0 38 0 L 34 0 z M 26 8 L 27 8 C 28.108 8 29 8.892 29 10 L 29 11 C 29 12.108 28.108 13 27 13 L 26 13 C 24.892 13 24 12.108 24 11 L 24 10 C 24 8.892 24.892 8 26 8 z M 8 15 C 6.338 15 5 16.338 5 18 L 5 32 C 5 33.662 6.338 35 8 35 L 13 35 C 14.662 35 16 33.662 16 32 L 16 18 C 16 16.338 14.662 15 13 15 L 8 15 z M 26 17 L 27 17 C 28.108 17 29 17.892 29 19 L 29 20 C 29 21.108 28.108 22 27 22 L 26 22 C 24.892 22 24 21.108 24 20 L 24 19 C 24 17.892 24.892 17 26 17 z M 35 17 L 36 17 C 37.108 17 38 17.892 38 19 L 38 20 C 38 21.108 37.108 22 36 22 L 35 22 C 33.892 22 33 21.108 33 20 L 33 19 C 33 17.892 33.892 17 35 17 z M 10 18 L 11 18 C 12.108 18 13 18.892 13 20 L 13 21 C 13 22.108 12.108 23 11 23 L 10 23 C 8.892 23 8 22.108 8 21 L 8 20 C 8 18.892 8.892 18 10 18 z M 10 27 L 11 27 C 12.108 27 13 27.892 13 29 L 13 30 C 13 31.108 12.108 32 11 32 L 10 32 C 8.892 32 8 31.108 8 30 L 8 29 C 8 27.892 8.892 27 10 27 z M 29 30 C 27.338 30 26 31.338 26 33 L 26 47 C 26 48.662 27.338 50 29 50 L 43 50 C 44.662 50 46 48.662 46 47 L 46 33 C 46 31.338 44.662 30 43 30 L 29 30 z M 31 33 L 32 33 C 33.108 33 34 33.892 34 35 L 34 36 C 34 37.108 33.108 38 32 38 L 31 38 C 29.892 38 29 37.108 29 36 L 29 35 C 29 33.892 29.892 33 31 33 z M 40 33 L 41 33 C 42.108 33 43 33.892 43 35 L 43 36 C 43 37.108 42.108 38 41 38 L 40 38 C 38.892 38 38 37.108 38 36 L 38 35 C 38 33.892 38.892 33 40 33 z M 31 42 L 32 42 C 33.108 42 34 42.892 34 44 L 34 45 C 34 46.108 33.108 47 32 47 L 31 47 C 29.892 47 29 46.108 29 45 L 29 44 C 29 42.892 29.892 42 31 42 z M 40 42 L 41 42 C 42.108 42 43 42.892 43 44 L 43 45 C 43 46.108 42.108 47 41 47 L 40 47 C 38.892 47 38 46.108 38 45 L 38 44 C 38 42.892 38.892 42 40 42 z "
       transform="translate(40,392.36218)"
       id="rect4704-7-1-9" />
    <rect
       style="opacity:0.98999999;color:#000000;fill:none;stroke:none;stroke-width:2;marker:none;visibility:visible;display:inline;overflow:visible;enable-background:accumulate"
       id="rect6726"
       width="60"
       height="60"
       x="0"
       y="0"
       transform="translate(40,382.36218)" />
  </g>
</svg>
