<?xml version="1.0" encoding="UTF-8" standalone="no"?>
<!-- Created with Inkscape (http://www.inkscape.org/) -->

<svg
   xmlns:dc="http://purl.org/dc/elements/1.1/"
   xmlns:cc="http://creativecommons.org/ns#"
   xmlns:rdf="http://www.w3.org/1999/02/22-rdf-syntax-ns#"
   xmlns:svg="http://www.w3.org/2000/svg"
   xmlns="http://www.w3.org/2000/svg"
   xmlns:sodipodi="http://sodipodi.sourceforge.net/DTD/sodipodi-0.dtd"
   xmlns:inkscape="http://www.inkscape.org/namespaces/inkscape"
   width="70"
   height="70"
   id="svg2"
   version="1.1"
   inkscape:version="0.48.2 r9819"
   sodipodi:docname="city5.svg">
  <defs
     id="defs4" />
  <sodipodi:namedview
     id="base"
     pagecolor="#ffffff"
     bordercolor="#666666"
     borderopacity="1.0"
     inkscape:pageopacity="0.0"
     inkscape:pageshadow="2"
     inkscape:zoom="5.6568542"
     inkscape:cx="47.471031"
     inkscape:cy="30.364926"
     inkscape:document-units="px"
     inkscape:current-layer="layer1"
     showgrid="false"
     fit-margin-top="0"
     fit-margin-left="0"
     fit-margin-right="0"
     fit-margin-bottom="0"
     inkscape:window-width="1280"
     inkscape:window-height="756"
     inkscape:window-x="0"
     inkscape:window-y="0"
     inkscape:window-maximized="0"
     inkscape:object-paths="true"
     inkscape:object-nodes="true"
     showguides="true"
     inkscape:guide-bbox="true">
    <inkscape:grid
       type="xygrid"
       id="grid2985"
       empspacing="5"
       visible="true"
       enabled="true"
       snapvisiblegridlinesonly="true" />
  </sodipodi:namedview>
  <metadata
     id="metadata7">
    <rdf:RDF>
      <cc:Work
         rdf:about="">
        <dc:format>image/svg+xml</dc:format>
        <dc:type
           rdf:resource="http://purl.org/dc/dcmitype/StillImage" />
        <dc:title />
      </cc:Work>
    </rdf:RDF>
  </metadata>
  <g
     inkscape:label="Layer 1"
     inkscape:groupmode="layer"
     id="layer1"
     transform="translate(-40,-372.36218)">
    <rect
       style="color:#000000;fill:#af6c6a;fill-opacity:1;fill-rule:nonzero;stroke:none;stroke-width:2;marker:none;visibility:visible;display:inline;overflow:visible;enable-background:accumulate"
       id="rect9398"
       width="35"
       height="18"
       x="42"
       y="400.36218" />
    <g
       id="g6608">
      <rect
         y="382.36218"
         x="40"
         height="40"
         width="40"
         id="rect4586-5"
         style="color:#000000;fill:none;stroke:none;stroke-width:2;marker:none;visibility:visible;display:inline;overflow:visible;enable-background:accumulate" />
      <path
         style="color:#000000;fill:#dd7d7b;fill-opacity:1;fill-rule:nonzero;stroke:none;stroke-width:2;marker:none;visibility:visible;display:inline;overflow:visible;enable-background:accumulate"
         d="m 20,10 -6,7 0,8 -11,0 c -1.662,0 -3,1.338 -3,3 l 0,19 c 0,1.662 1.338,3 3,3 l 34,0 c 1.662,0 3,-1.338 3,-3 l 0,-19 c 0,-1.662 -1.338,-3 -3,-3 l -11,0 0,-8 z M 6,30 7,30 c 1.108,0 2,0.892 2,2 l 0,1 c 0,1.108 -0.892,2 -2,2 L 6,35 C 4.892,35 4,34.108 4,33 l 0,-1 c 0,-1.108 0.892,-2 2,-2 z m 9,0 1,0 c 1.108,0 2,0.892 2,2 l 0,1 c 0,1.108 -0.892,2 -2,2 l -1,0 c -1.108,0 -2,-0.892 -2,-2 l 0,-1 c 0,-1.108 0.892,-2 2,-2 z m 9,0 1,0 c 1.108,0 2,0.892 2,2 l 0,1 c 0,1.108 -0.892,2 -2,2 l -1,0 c -1.108,0 -2,-0.892 -2,-2 l 0,-1 c 0,-1.108 0.892,-2 2,-2 z m 9,0 1,0 c 1.108,0 2,0.892 2,2 l 0,1 c 0,1.108 -0.892,2 -2,2 l -1,0 c -1.108,0 -2,-0.892 -2,-2 l 0,-1 c 0,-1.108 0.892,-2 2,-2 z M 6,40 7,40 c 1.108,0 2,0.892 2,2 l 0,1 c 0,1.108 -0.892,2 -2,2 L 6,45 C 4.892,45 4,44.108 4,43 l 0,-1 c 0,-1.108 0.892,-2 2,-2 z m 9,0 1,0 c 1.108,0 2,0.892 2,2 l 0,1 c 0,1.108 -0.892,2 -2,2 l -1,0 c -1.108,0 -2,-0.892 -2,-2 l 0,-1 c 0,-1.108 0.892,-2 2,-2 z m 9,0 1,0 c 1.108,0 2,0.892 2,2 l 0,1 c 0,1.108 -0.892,2 -2,2 l -1,0 c -1.108,0 -2,-0.892 -2,-2 l 0,-1 c 0,-1.108 0.892,-2 2,-2 z m 9,0 1,0 c 1.108,0 2,0.892 2,2 l 0,1 c 0,1.108 -0.892,2 -2,2 l -1,0 c -1.108,0 -2,-0.892 -2,-2 l 0,-1 c 0,-1.108 0.892,-2 2,-2 z"
         transform="translate(40,372.36218)"
         id="rect4639-1"
         inkscape:connector-curvature="0"
         sodipodi:nodetypes="cccsssssssscccssssssssssssssssssssssssssssssssssssssssssssssssssssssssssssssssssssssss" />
      <rect
         transform="translate(40,372.36218)"
         y="0"
         x="0"
         height="70"
         width="70"
         id="rect6606"
         style="opacity:0.98999999;color:#000000;fill:none;stroke:none;stroke-width:2;marker:none;visibility:visible;display:inline;overflow:visible;enable-background:accumulate" />
    </g>
    <rect
       style="color:#000000;fill:#af6c6a;fill-opacity:1;fill-rule:nonzero;stroke:none;stroke-width:2;marker:none;visibility:visible;display:inline;overflow:visible;enable-background:accumulate"
       id="rect8796"
       width="16"
       height="16"
       x="87.29557"
       y="384.32397" />
    <rect
       style="color:#000000;fill:#af6c6a;fill-opacity:1;fill-rule:nonzero;stroke:none;stroke-width:2;marker:none;visibility:visible;display:inline;overflow:visible;enable-background:accumulate"
       id="rect8796-6"
       width="16"
       height="16"
       x="92.29557"
       y="409.32397" />
    <path
       inkscape:connector-curvature="0"
       style="color:#000000;fill:#dd7d7b;fill-opacity:1;fill-rule:nonzero;stroke:none;stroke-width:2;marker:none;visibility:visible;display:inline;overflow:visible;enable-background:accumulate"
       d="m 98.29557,377.32397 c -1.661998,0 -2.999998,1.338 -2.999998,3 l 0,2 -7,0 c -1.662,0 -3,1.338 -3,3 l 0,14 c 0,1.662 1.338,3 3,3 l 13.999998,0 c 1.662,0 3,-1.338 3,-3 l 0,-11 0,-3 0,-5 c 0,-1.662 -1.338,-3 -3,-3 z m -7.999998,8 1,0 c 1.108,0 2,0.892 2,2 l 0,1 c 0,1.108 -0.892,2 -2,2 l -1,0 c -1.108,0 -2,-0.892 -2,-2 l 0,-1 c 0,-1.108 0.892,-2 2,-2 z m 0,9 1,0 c 1.108,0 2,0.892 2,2 l 0,1 c 0,1.108 -0.892,2 -2,2 l -1,0 c -1.108,0 -2,-0.892 -2,-2 l 0,-1 c 0,-1.108 0.892,-2 2,-2 z m 8.999998,0 1,0 c 1.108,0 2,0.892 2,2 l 0,1 c 0,1.108 -0.892,2 -2,2 l -1,0 c -1.108,0 -1.999998,-0.892 -1.999998,-2 l 0,-1 c 0,-1.108 0.891998,-2 1.999998,-2 z m -5.999998,13 c -1.662,0 -3,1.338 -3,3 l 0,14 c 0,1.662 1.338,3 3,3 l 13.999998,0 c 1.662,0 3,-1.338 3,-3 l 0,-14 c 0,-1.662 -1.338,-3 -3,-3 z m 2,3 1,0 c 1.108,0 1.999998,0.892 1.999998,2 l 0,1 c 0,1.108 -0.891998,2 -1.999998,2 l -1,0 c -1.108,0 -2,-0.892 -2,-2 l 0,-1 c 0,-1.108 0.892,-2 2,-2 z m 8.999998,0 1,0 c 1.108,0 2,0.892 2,2 l 0,1 c 0,1.108 -0.892,2 -2,2 l -1,0 c -1.108,0 -2,-0.892 -2,-2 l 0,-1 c 0,-1.108 0.892,-2 2,-2 z m -8.999998,9 1,0 c 1.108,0 1.999998,0.892 1.999998,2 l 0,1 c 0,1.108 -0.891998,2 -1.999998,2 l -1,0 c -1.108,0 -2,-0.892 -2,-2 l 0,-1 c 0,-1.108 0.892,-2 2,-2 z m 8.999998,0 1,0 c 1.108,0 2,0.892 2,2 l 0,1 c 0,1.108 -0.892,2 -2,2 l -1,0 c -1.108,0 -2,-0.892 -2,-2 l 0,-1 c 0,-1.108 0.892,-2 2,-2 z"
       id="rect4704-7-1-9"
       sodipodi:nodetypes="sscssssssccsssssssssssssssssssssssssssssssssssssssssssssssssssssssssssssssssssssssssss" />
  </g>
</svg>
