<?xml version="1.0" encoding="UTF-8" standalone="no"?>
<!-- Created with Inkscape (http://www.inkscape.org/) -->

<svg
   xmlns:dc="http://purl.org/dc/elements/1.1/"
   xmlns:cc="http://creativecommons.org/ns#"
   xmlns:rdf="http://www.w3.org/1999/02/22-rdf-syntax-ns#"
   xmlns:svg="http://www.w3.org/2000/svg"
   xmlns="http://www.w3.org/2000/svg"
   xmlns:sodipodi="http://sodipodi.sourceforge.net/DTD/sodipodi-0.dtd"
   xmlns:inkscape="http://www.inkscape.org/namespaces/inkscape"
   width="60"
   height="60"
   id="svg2"
   version="1.1"
   inkscape:version="0.48.2 r9819"
   sodipodi:docname="city4.svg">
  <defs
     id="defs4" />
  <sodipodi:namedview
     id="base"
     pagecolor="#ffffff"
     bordercolor="#666666"
     borderopacity="1.0"
     inkscape:pageopacity="0.0"
     inkscape:pageshadow="2"
     inkscape:zoom="8"
     inkscape:cx="34.311355"
     inkscape:cy="29.290661"
     inkscape:document-units="px"
     inkscape:current-layer="layer1"
     showgrid="true"
     fit-margin-top="0"
     fit-margin-left="0"
     fit-margin-right="0"
     fit-margin-bottom="0"
     inkscape:window-width="1635"
     inkscape:window-height="908"
     inkscape:window-x="142"
     inkscape:window-y="0"
     inkscape:window-maximized="0"
     inkscape:object-paths="true"
     inkscape:object-nodes="true">
    <inkscape:grid
       type="xygrid"
       id="grid2985"
       empspacing="5"
       visible="true"
       enabled="true"
       snapvisiblegridlinesonly="true" />
  </sodipodi:namedview>
  <metadata
     id="metadata7">
    <rdf:RDF>
      <cc:Work
         rdf:about="">
        <dc:format>image/svg+xml</dc:format>
        <dc:type
           rdf:resource="http://purl.org/dc/dcmitype/StillImage" />
        <dc:title />
      </cc:Work>
    </rdf:RDF>
  </metadata>
  <g
     inkscape:label="Layer 1"
     inkscape:groupmode="layer"
     id="layer1"
     transform="translate(-40,-382.36218)">
    <rect
       style="color:#000000;fill:#af6c6a;fill-opacity:1;fill-rule:nonzero;stroke:none;stroke-width:2;marker:none;visibility:visible;display:inline;overflow:visible;enable-background:accumulate"
       id="rect8798"
       width="17"
       height="16.999996"
       x="78"
       y="413.36218" />
    <rect
       style="color:#000000;fill:#af6c6a;fill-opacity:1;fill-rule:nonzero;stroke:none;stroke-width:2;marker:none;visibility:visible;display:inline;overflow:visible;enable-background:accumulate"
       id="rect8798-9"
       width="17"
       height="16.999996"
       x="63"
       y="388.36218" />
    <rect
       style="color:#000000;fill:#af6c6a;fill-opacity:1;fill-rule:nonzero;stroke:none;stroke-width:2;marker:none;visibility:visible;display:inline;overflow:visible;enable-background:accumulate"
       id="rect8798-9-7"
       width="25"
       height="16.999996"
       x="45"
       y="415.36218" />
    <path
       style="color:#000000;fill:#dd7d7b;fill-opacity:1;fill-rule:nonzero;stroke:none;stroke-width:2;marker:none;visibility:visible;display:inline;overflow:visible;enable-background:accumulate"
       d="M 25 4 C 23.338 4 22 5.338 22 7 L 22 21 C 22 22.662 23.338 24 25 24 L 39 24 C 40.662 24 42 22.662 42 21 L 42 7 C 42 5.338 40.662 4 39 4 L 25 4 z M 27 7 L 28 7 C 29.108 7 30 7.892 30 9 L 30 10 C 30 11.108 29.108 12 28 12 L 27 12 C 25.892 12 25 11.108 25 10 L 25 9 C 25 7.892 25.892 7 27 7 z M 36 7 L 37 7 C 38.108 7 39 7.892 39 9 L 39 10 C 39 11.108 38.108 12 37 12 L 36 12 C 34.892 12 34 11.108 34 10 L 34 9 C 34 7.892 34.892 7 36 7 z M 27 16 L 28 16 C 29.108 16 30 16.892 30 18 L 30 19 C 30 20.108 29.108 21 28 21 L 27 21 C 25.892 21 25 20.108 25 19 L 25 18 C 25 16.892 25.892 16 27 16 z M 36 16 L 37 16 C 38.108 16 39 16.892 39 18 L 39 19 C 39 20.108 38.108 21 37 21 L 36 21 C 34.892 21 34 20.108 34 19 L 34 18 C 34 16.892 34.892 16 36 16 z M 50 23 C 48.338 23 47 24.338 47 26 L 47 29 L 40 29 C 38.338 29 37 30.338 37 32 L 37 46 C 37 47.662 38.338 49 40 49 L 54 49 C 55.662 49 57 47.662 57 46 L 57 34 L 57 32 L 57 26 C 57 24.338 55.662 23 54 23 L 50 23 z M 5 24 C 3.338 24 2 25.338 2 27 L 2 30 C 2 30.13091 2.01514 30.2486 2.03125 30.375 C 2.03015 30.3855 2.03235 30.39575 2.03125 30.40625 C 2.011334 30.60194 2 30.79225 2 31 L 2 32 L 2 34 L 2 51 C 2 52.662 3.338 54 5 54 L 30 54 C 31.662 54 33 52.662 33 51 L 33 32 C 33 30.338 31.662 29 30 29 L 12 29 L 12 27 C 12 25.338 10.662 24 9 24 L 5 24 z M 42 32 L 43 32 C 44.108 32 45 32.892 45 34 L 45 35 C 45 36.108 44.108 37 43 37 L 42 37 C 40.892 37 40 36.108 40 35 L 40 34 C 40 32.892 40.892 32 42 32 z M 8 34 L 9 34 C 10.108 34 11 34.892 11 36 L 11 37 C 11 38.108 10.108 39 9 39 L 8 39 C 6.892 39 6 38.108 6 37 L 6 36 C 6 34.892 6.892 34 8 34 z M 17 34 L 18 34 C 19.108 34 20 34.892 20 36 L 20 37 C 20 38.108 19.108 39 18 39 L 17 39 C 15.892 39 15 38.108 15 37 L 15 36 C 15 34.892 15.892 34 17 34 z M 26 34 L 27 34 C 28.107998 34 29 34.892 29 36 L 29 37 C 29 38.108 28.107998 39 27 39 L 26 39 C 24.892 39 24 38.108 24 37 L 24 36 C 24 34.892 24.892 34 26 34 z M 42 41 L 43 41 C 44.108 41 45 41.892 45 43 L 45 44 C 45 45.108 44.108 46 43 46 L 42 46 C 40.892 46 40 45.108 40 44 L 40 43 C 40 41.892 40.892 41 42 41 z M 51 41 L 52 41 C 53.108 41 54 41.892 54 43 L 54 44 C 54 45.108 53.108 46 52 46 L 51 46 C 49.892 46 49 45.108 49 44 L 49 43 C 49 41.892 49.892 41 51 41 z M 8 44 L 9 44 C 10.108 44 11 44.892 11 46 L 11 47 C 11 48.108 10.108 49 9 49 L 8 49 C 6.892 49 6 48.108 6 47 L 6 46 C 6 44.892 6.892 44 8 44 z M 17 44 L 18 44 C 19.108 44 20 44.892 20 46 L 20 47 C 20 48.108 19.108 49 18 49 L 17 49 C 15.892 49 15 48.108 15 47 L 15 46 C 15 44.892 15.892 44 17 44 z M 26 44 L 27 44 C 28.107998 44 29 44.892 29 46 L 29 47 C 29 48.108 28.107998 49 27 49 L 26 49 C 24.892 49 24 48.108 24 47 L 24 46 C 24 44.892 24.892 44 26 44 z "
       transform="translate(40,382.36218)"
       id="rect4704-7-3" />
    <rect
       style="opacity:0.98999999;color:#000000;fill:none;stroke:none;stroke-width:2;marker:none;visibility:visible;display:inline;overflow:visible;enable-background:accumulate"
       id="rect6726"
       width="60"
       height="60"
       x="0"
       y="0"
       transform="translate(40,382.36218)" />
  </g>
</svg>
