<?xml version="1.0" encoding="UTF-8" standalone="no"?>
<!-- Created with Inkscape (http://www.inkscape.org/) -->

<svg
   xmlns:dc="http://purl.org/dc/elements/1.1/"
   xmlns:cc="http://creativecommons.org/ns#"
   xmlns:rdf="http://www.w3.org/1999/02/22-rdf-syntax-ns#"
   xmlns:svg="http://www.w3.org/2000/svg"
   xmlns="http://www.w3.org/2000/svg"
   xmlns:sodipodi="http://sodipodi.sourceforge.net/DTD/sodipodi-0.dtd"
   xmlns:inkscape="http://www.inkscape.org/namespaces/inkscape"
   width="744.09448819"
   height="1052.3622047"
   id="svg11069"
   version="1.1"
   inkscape:version="0.48.1 r9760"
   sodipodi:docname="New document 181">
  <defs
     id="defs11071" />
  <sodipodi:namedview
     id="base"
     pagecolor="#ffffff"
     bordercolor="#666666"
     borderopacity="1.0"
     inkscape:pageopacity="0.0"
     inkscape:pageshadow="2"
     inkscape:zoom="7.7097458"
     inkscape:cx="376.17854"
     inkscape:cy="551.11907"
     inkscape:document-units="px"
     inkscape:current-layer="layer1"
     showgrid="true">
    <inkscape:grid
       type="xygrid"
       id="grid11098" />
  </sodipodi:namedview>
  <metadata
     id="metadata11074">
    <rdf:RDF>
      <cc:Work
         rdf:about="">
        <dc:format>image/svg+xml</dc:format>
        <dc:type
           rdf:resource="http://purl.org/dc/dcmitype/StillImage" />
        <dc:title></dc:title>
      </cc:Work>
    </rdf:RDF>
  </metadata>
  <g
     inkscape:label="Layer 1"
     inkscape:groupmode="layer"
     id="layer1">
    <g
       id="g11102">
      <g
         transform="translate(-287,496)"
         id="g9974">
        <path
           transform="matrix(1.0333367,0,0,0.86666673,-452.17038,-547.68508)"
           d="m 1115,654.86218 c 0,4.14214 -6.7157,7.5 -15,7.5 -8.2843,0 -15,-3.35786 -15,-7.5 0,-4.14213 6.7157,-7.5 15,-7.5 8.2843,0 15,3.35787 15,7.5 z"
           sodipodi:ry="7.5"
           sodipodi:rx="15"
           sodipodi:cy="654.86218"
           sodipodi:cx="1100"
           id="path9820"
           style="opacity:0.1;color:#000000;fill:#162019;fill-opacity:1;fill-rule:nonzero;stroke:none;stroke-width:2;marker:none;visibility:visible;display:inline;overflow:visible;enable-background:accumulate"
           sodipodi:type="arc" />
        <path
           sodipodi:nodetypes="ccsccccc"
           inkscape:connector-curvature="0"
           id="path9910"
           d="m 684,6.3621826 1,7.0000004 2,6 c 0.29814,0.894427 0.57894,2 2,2 l 3,0 -2,-8 -2,-7.0000004 z"
           style="color:#000000;fill:#5f8a5c;fill-opacity:1;fill-rule:nonzero;stroke:none;stroke-width:2;marker:none;visibility:visible;display:inline;overflow:visible;enable-background:accumulate" />
        <path
           style="color:#000000;fill:#5a897e;fill-opacity:1;fill-rule:nonzero;stroke:#5f8a5c;stroke-width:3;stroke-linecap:round;stroke-miterlimit:4;stroke-opacity:1;stroke-dasharray:none;marker:none;visibility:visible;display:inline;overflow:visible;enable-background:accumulate"
           d="M 692.40192,-0.63781572 697.59808,-3.637819"
           id="path9942"
           inkscape:connector-curvature="0" />
        <path
           style="color:#000000;fill:#6dad6a;fill-opacity:1;fill-rule:nonzero;stroke:none;stroke-width:2;marker:none;visibility:visible;display:inline;overflow:visible;enable-background:accumulate"
           d="m 689.0625,-18 c -2.54949,0.09301 -4.0625,2.75 -4.0625,4.375 0,9.8088733 -5,7.9871826 -6.875,14.15625 -1.4177,4.6644701 -4.57932,9.676978 -9.125,9.84375 -2,-0.01282 -2,3 0,3 l 17.50005,0 c 4.69442,0 7.5,-5.8055798 7.5,-10.5 0,-0.167818 -0.0217,-0.334587 -0.0312,-0.5 l 0.0312,0 -2,-12 6,0 0,-5 -7,-3 c -0.69084,-0.296074 -1.34916,-0.396464 -1.9375,-0.375 z"
           id="path9847"
           inkscape:connector-curvature="0"
           sodipodi:nodetypes="csscccscccccssc" />
        <path
           inkscape:connector-curvature="0"
           id="path9914"
           d="m 692.40192,3.362182 5.19616,3.0000013"
           style="color:#000000;fill:#5a897e;fill-opacity:1;fill-rule:nonzero;stroke:#6dad6a;stroke-width:3;stroke-linecap:round;stroke-miterlimit:4;stroke-opacity:1;stroke-dasharray:none;marker:none;visibility:visible;display:inline;overflow:visible;enable-background:accumulate" />
        <path
           transform="matrix(0.6,0,0,0.6,130,-65.055127)"
           d="m 935,84.862183 c 0,1.380711 -1.11929,2.5 -2.5,2.5 -1.38071,0 -2.5,-1.119289 -2.5,-2.5 0,-1.380712 1.11929,-2.5 2.5,-2.5 1.38071,0 2.5,1.119288 2.5,2.5 z"
           sodipodi:ry="2.5"
           sodipodi:rx="2.5"
           sodipodi:cy="84.862183"
           sodipodi:cx="932.5"
           id="path6533-2-3"
           style="color:#000000;fill:#f4f9ed;fill-opacity:1;fill-rule:nonzero;stroke:none;stroke-width:2;marker:none;visibility:visible;display:inline;overflow:visible;enable-background:accumulate"
           sodipodi:type="arc" />
        <path
           style="color:#000000;fill:#6dad6a;fill-opacity:1;fill-rule:nonzero;stroke:none;stroke-width:2;marker:none;visibility:visible;display:inline;overflow:visible;enable-background:accumulate"
           d="m 676,9.3621826 1,4.0000004 2,6 c 0.29814,0.894427 0.57894,2 2,2 l 3,0 -2,-8 -2,-4.0000004 z"
           id="path9946"
           inkscape:connector-curvature="0"
           sodipodi:nodetypes="ccsccccc" />
      </g>
      <rect
         ry="0"
         rx="0"
         y="477.36218"
         x="380"
         height="45"
         width="35"
         id="rect11100"
         style="color:#000000;fill:none;fill-opacity:1;fill-rule:nonzero;stroke:none;stroke-width:4;marker:none;visibility:visible;display:inline;overflow:visible;enable-background:accumulate" />
    </g>
  </g>
</svg>
