<?xml version="1.0" encoding="UTF-8" standalone="no"?>
<!-- Created with Inkscape (http://www.inkscape.org/) -->

<svg
   xmlns:dc="http://purl.org/dc/elements/1.1/"
   xmlns:cc="http://creativecommons.org/ns#"
   xmlns:rdf="http://www.w3.org/1999/02/22-rdf-syntax-ns#"
   xmlns:svg="http://www.w3.org/2000/svg"
   xmlns="http://www.w3.org/2000/svg"
   xmlns:sodipodi="http://sodipodi.sourceforge.net/DTD/sodipodi-0.dtd"
   xmlns:inkscape="http://www.inkscape.org/namespaces/inkscape"
   width="60"
   height="50"
   id="svg19666"
   version="1.1"
   inkscape:version="0.48.2 r9819"
   sodipodi:docname="ocean3.svg">
  <defs
     id="defs19668" />
  <sodipodi:namedview
     id="base"
     pagecolor="#ffffff"
     bordercolor="#666666"
     borderopacity="1.0"
     inkscape:pageopacity="0.0"
     inkscape:pageshadow="2"
     inkscape:zoom="1"
     inkscape:cx="18.715128"
     inkscape:cy="2.9681046"
     inkscape:document-units="px"
     inkscape:current-layer="layer1"
     showgrid="false"
     fit-margin-top="0"
     fit-margin-left="0"
     fit-margin-right="0"
     fit-margin-bottom="0"
     inkscape:window-width="981"
     inkscape:window-height="633"
     inkscape:window-x="340"
     inkscape:window-y="121"
     inkscape:window-maximized="0">
    <inkscape:grid
       type="xygrid"
       id="grid19693"
       empspacing="5"
       visible="true"
       enabled="true"
       snapvisiblegridlinesonly="true" />
  </sodipodi:namedview>
  <metadata
     id="metadata19671">
    <rdf:RDF>
      <cc:Work
         rdf:about="">
        <dc:format>image/svg+xml</dc:format>
        <dc:type
           rdf:resource="http://purl.org/dc/dcmitype/StillImage" />
        <dc:title></dc:title>
      </cc:Work>
    </rdf:RDF>
  </metadata>
  <g
     inkscape:label="Layer 1"
     inkscape:groupmode="layer"
     id="layer1"
     transform="translate(-418.79451,-487.13374)">
    <g
       transform="translate(-450.25129,456.77156)"
       id="g19456">
      <g
         transform="translate(20,110)"
         id="g19386">
        <path
           style="color:#000000;fill:#9edae3;fill-opacity:1;fill-rule:nonzero;stroke:none;stroke-width:2;marker:none;visibility:visible;display:inline;overflow:visible;enable-background:accumulate"
           d="m 889.80339,-59.383215 -5,12 c 0,0 -0.33333,-2e-6 -1.00003,2e-6 -2,10e-7 -1.99999,-3 -1.99999,-3 l 0,-10 z"
           id="path16489"
           inkscape:connector-curvature="0"
           sodipodi:nodetypes="cccccc" />
        <path
           style="color:#000000;fill:#c8f0f5;fill-opacity:1;fill-rule:nonzero;stroke:none;stroke-width:2;marker:none;visibility:visible;display:inline;overflow:visible;enable-background:accumulate"
           d="m 869.58936,-78.968376 c -2.89778,0.776458 -2.12131,3.674236 -2.12131,3.674236 l 2.09481,7.81796 -11.40923,12.115759 -8.33041,-2.2325 -0.77742,2.893641 5.99231,4.735432 1.08194,7.53937 2.89359,0.777612 2.38872,-8.954643 c 3.7185,-0.695431 9.614,-1.831955 13.95047,-2.993911 l 0.66408,-0.177938 -1.2e-4,4.949944 c 0,0 -0.002,2.990928 1.99845,2.990925 l 1.00045,-0.0092 4.09473,-9.832324 22.66907,-6.074158 0.48298,-0.129409 0.48296,-0.12941 c 1.3378,-0.358465 2.12622,-1.724055 1.76775,-3.061863 -0.45235,-1.688222 -2.25227,-1.484199 -3.54482,-1.638357 l -5.34727,-0.637757 c -2.26002,-4.570809 -5.67543,-5.726203 -10.76388,-5.398034 l -7.69304,0.508428 -7.19336,-5.837113 c -1.15896,-0.937584 -2.4495,-1.414215 -4.38135,-0.896576 z"
           id="path16455"
           inkscape:connector-curvature="0" />
        <path
           sodipodi:type="arc"
           style="color:#000000;fill:#53a6bb;fill-opacity:1;fill-rule:nonzero;stroke:none;stroke-width:2;marker:none;visibility:visible;display:inline;overflow:visible;enable-background:accumulate"
           id="path16465"
           sodipodi:cx="932.5"
           sodipodi:cy="84.862183"
           sodipodi:rx="2.5"
           sodipodi:ry="2.5"
           d="m 935,84.862183 c 0,1.380711 -1.11929,2.5 -2.5,2.5 -1.38071,0 -2.5,-1.119289 -2.5,-2.5 0,-1.380712 1.11929,-2.5 2.5,-2.5 1.38071,0 2.5,1.119288 2.5,2.5 z"
           transform="matrix(0.96592583,-0.25881905,0.25881905,0.96592583,-31.153061,93.703649)" />
        <path
           sodipodi:type="arc"
           style="color:#000000;fill:#53a6bb;fill-opacity:1;fill-rule:nonzero;stroke:none;stroke-width:2;marker:none;visibility:visible;display:inline;overflow:visible;enable-background:accumulate"
           id="path16487"
           sodipodi:cx="917.5"
           sodipodi:cy="99.862183"
           sodipodi:rx="17.5"
           sodipodi:ry="7.5"
           d="m 935,99.862183 c 0,4.142137 -7.83502,7.499997 -17.5,7.499997 -9.66498,0 -17.5,-3.35786 -17.5,-7.499997 0,-4.142136 7.83502,-7.5 17.5,-7.5 9.66498,0 17.5,3.357864 17.5,7.5 z"
           transform="matrix(0.85714286,0,0,0.66666667,92.57143,-101.21261)" />
        <path
           inkscape:connector-curvature="0"
           style="color:#000000;fill:#f4f9ed;fill-opacity:1;fill-rule:nonzero;stroke:none;stroke-width:2;marker:none;visibility:visible;display:inline;overflow:visible;enable-background:accumulate"
           d="m 885.0625,-60.6875 -1.9375,5 10.6875,-2.84375 -8.75,-2.15625 z m -8.75,0.46875 c -7.05126,0.294597 -11.1066,4.637078 -14.90625,9.625 3.7185,-0.695431 9.60103,-1.838044 13.9375,-3 l 0.6875,-0.1875 0.28125,-6.4375 z"
           id="path16455-0" />
      </g>
    </g>
  </g>
</svg>
