<?xml version="1.0" encoding="UTF-8" standalone="no"?>
<!-- Created with Inkscape (http://www.inkscape.org/) -->

<svg
   xmlns:dc="http://purl.org/dc/elements/1.1/"
   xmlns:cc="http://creativecommons.org/ns#"
   xmlns:rdf="http://www.w3.org/1999/02/22-rdf-syntax-ns#"
   xmlns:svg="http://www.w3.org/2000/svg"
   xmlns="http://www.w3.org/2000/svg"
   xmlns:sodipodi="http://sodipodi.sourceforge.net/DTD/sodipodi-0.dtd"
   xmlns:inkscape="http://www.inkscape.org/namespaces/inkscape"
   width="45"
   height="30"
   id="svg19761"
   version="1.1"
   inkscape:version="0.48.2 r9819"
   sodipodi:docname="New document 319">
  <defs
     id="defs19763" />
  <sodipodi:namedview
     id="base"
     pagecolor="#ffffff"
     bordercolor="#666666"
     borderopacity="1.0"
     inkscape:pageopacity="0.0"
     inkscape:pageshadow="2"
     inkscape:zoom="8"
     inkscape:cx="15.021855"
     inkscape:cy="11.000794"
     inkscape:document-units="px"
     inkscape:current-layer="layer1"
     showgrid="false"
     fit-margin-top="0"
     fit-margin-left="0"
     fit-margin-right="0"
     fit-margin-bottom="0"
     inkscape:snap-bbox="true"
     inkscape:snap-nodes="false"
     inkscape:window-width="1203"
     inkscape:window-height="685"
     inkscape:window-x="60"
     inkscape:window-y="0"
     inkscape:window-maximized="0">
    <inkscape:grid
       type="xygrid"
       id="grid19796"
       empspacing="5"
       visible="true"
       enabled="true"
       snapvisiblegridlinesonly="true" />
  </sodipodi:namedview>
  <metadata
     id="metadata19766">
    <rdf:RDF>
      <cc:Work
         rdf:about="">
        <dc:format>image/svg+xml</dc:format>
        <dc:type
           rdf:resource="http://purl.org/dc/dcmitype/StillImage" />
        <dc:title></dc:title>
      </cc:Work>
    </rdf:RDF>
  </metadata>
  <g
     inkscape:label="Layer 1"
     inkscape:groupmode="layer"
     id="layer1"
     transform="translate(-236.50655,-448.2595)">
    <g
       transform="translate(-630.0247,470.97825)"
       id="g19448">
      <path
         inkscape:connector-curvature="0"
         id="path19411"
         d="m 887.34375,-21.65625 -1.21875,0.6875 0.1875,3.15625 -1.75,2.65625 0.71875,1.21875 3.125,-1.0625 c 0.73624,1.932234 2.90554,3.729455 5.78125,4.5 4.00099,1.0720631 7.81654,-0.238919 8.53125,-2.90625 0.71471,-2.66733 -1.93651,-5.677937 -5.9375,-6.75 -2.86537,-0.767773 -5.6436,-0.325669 -7.25,0.96875 l -2.1875,-2.46875 z"
         style="color:#000000;fill:#c8f0f5;fill-opacity:1;fill-rule:nonzero;stroke:none;stroke-width:4;marker:none;visibility:visible;display:inline;overflow:visible;enable-background:accumulate" />
      <path
         sodipodi:type="arc"
         style="color:#000000;fill:#53a6bb;fill-opacity:1;fill-rule:nonzero;stroke:none;stroke-width:2;marker:none;visibility:visible;display:inline;overflow:visible;enable-background:accumulate"
         id="path16465-2"
         sodipodi:cx="932.5"
         sodipodi:cy="84.862183"
         sodipodi:rx="2.5"
         sodipodi:ry="2.5"
         d="m 935,84.862183 c 0,1.380711 -1.11929,2.5 -2.5,2.5 -1.38071,0 -2.5,-1.119289 -2.5,-2.5 0,-1.380712 1.11929,-2.5 2.5,-2.5 1.38071,0 2.5,1.119288 2.5,2.5 z"
         transform="matrix(0.59985187,0,0,0.59985187,336.66975,-66.123119)" />
      <path
         inkscape:connector-curvature="0"
         id="path19433"
         d="m 903.375,-4.21875 c -0.71835,0.041237 -1.46856,0.1739882 -2.21875,0.375 -2.87571,0.7705454 -5.04501,2.5365161 -5.78125,4.46875 l -3.125,-1.0625 -0.71875,1.21875 1.75,2.65625 -0.1875,3.15625 1.21875,0.6875 L 896.5,4.8125 c 1.60529,1.298918 4.38033,1.768926 7.25,1 4.00099,-1.072063 6.65221,-4.113919 5.9375,-6.78125 -0.5807,-2.1672061 -3.19967,-3.4286914 -6.3125,-3.25 z"
         style="color:#000000;fill:#abe1e2;fill-opacity:1;fill-rule:nonzero;stroke:none;stroke-width:4;marker:none;visibility:visible;display:inline;overflow:visible;enable-background:accumulate" />
      <path
         transform="matrix(0.51948695,-0.29992594,0.29992594,0.51948695,393.15718,236.37727)"
         d="m 935,84.862183 c 0,1.380711 -1.11929,2.5 -2.5,2.5 -1.38071,0 -2.5,-1.119289 -2.5,-2.5 0,-1.380712 1.11929,-2.5 2.5,-2.5 1.38071,0 2.5,1.119288 2.5,2.5 z"
         sodipodi:ry="2.5"
         sodipodi:rx="2.5"
         sodipodi:cy="84.862183"
         sodipodi:cx="932.5"
         id="path19437"
         style="color:#000000;fill:#53a6bb;fill-opacity:1;fill-rule:nonzero;stroke:none;stroke-width:2;marker:none;visibility:visible;display:inline;overflow:visible;enable-background:accumulate"
         sodipodi:type="arc" />
      <path
         inkscape:connector-curvature="0"
         id="path19439"
         d="m 871.3125,-8.5625 -1.21875,0.6875 0.1875,3.15625 -1.75,2.65625 0.71875,1.21875 3.125,-1.0625 c 0.73624,1.932234 2.90554,3.729455 5.78125,4.5 4.00099,1.072063 7.81654,-0.238919 8.53125,-2.90625 0.71471,-2.6673305 -1.93651,-5.7091869 -5.9375,-6.78125 -2.86537,-0.7677728 -5.6436,-0.2944188 -7.25,1 l -2.1875,-2.46875 z"
         style="color:#000000;fill:#c8f0f5;fill-opacity:1;fill-rule:nonzero;stroke:none;stroke-width:4;marker:none;visibility:visible;display:inline;overflow:visible;enable-background:accumulate" />
      <path
         sodipodi:type="arc"
         style="color:#000000;fill:#53a6bb;fill-opacity:1;fill-rule:nonzero;stroke:none;stroke-width:2;marker:none;visibility:visible;display:inline;overflow:visible;enable-background:accumulate"
         id="path19443"
         sodipodi:cx="932.5"
         sodipodi:cy="84.862183"
         sodipodi:rx="2.5"
         sodipodi:ry="2.5"
         d="m 935,84.862183 c 0,1.380711 -1.11929,2.5 -2.5,2.5 -1.38071,0 -2.5,-1.119289 -2.5,-2.5 0,-1.380712 1.11929,-2.5 2.5,-2.5 1.38071,0 2.5,1.119288 2.5,2.5 z"
         transform="matrix(0.59985187,0,0,0.59985187,321.66975,-53.123859)" />
    </g>
  </g>
</svg>
