<?xml version="1.0" encoding="UTF-8" standalone="no"?>
<!-- Created with Inkscape (http://www.inkscape.org/) -->

<svg
   xmlns:dc="http://purl.org/dc/elements/1.1/"
   xmlns:cc="http://creativecommons.org/ns#"
   xmlns:rdf="http://www.w3.org/1999/02/22-rdf-syntax-ns#"
   xmlns:svg="http://www.w3.org/2000/svg"
   xmlns="http://www.w3.org/2000/svg"
   xmlns:sodipodi="http://sodipodi.sourceforge.net/DTD/sodipodi-0.dtd"
   xmlns:inkscape="http://www.inkscape.org/namespaces/inkscape"
   width="76"
   height="52"
   id="svg7641"
   version="1.1"
   inkscape:version="0.48.5 r10040"
   sodipodi:docname="hagiasophia.svg">
  <defs
     id="defs7643" />
  <sodipodi:namedview
     id="base"
     pagecolor="#ffffff"
     bordercolor="#666666"
     borderopacity="1.0"
     inkscape:pageopacity="0.0"
     inkscape:pageshadow="2"
     inkscape:zoom="3.959798"
     inkscape:cx="36.460895"
     inkscape:cy="7.6928106"
     inkscape:document-units="px"
     inkscape:current-layer="layer1"
     showgrid="true"
     fit-margin-top="0"
     fit-margin-left="0"
     fit-margin-right="0"
     fit-margin-bottom="0"
     inkscape:window-width="1269"
     inkscape:window-height="645"
     inkscape:window-x="71"
     inkscape:window-y="0"
     inkscape:window-maximized="0">
    <inkscape:grid
       type="xygrid"
       id="grid7649"
       empspacing="5"
       visible="true"
       enabled="true"
       snapvisiblegridlinesonly="true"
       originx="-307px"
       originy="-588px" />
  </sodipodi:namedview>
  <metadata
     id="metadata7646">
    <rdf:RDF>
      <cc:Work
         rdf:about="">
        <dc:format>image/svg+xml</dc:format>
        <dc:type
           rdf:resource="http://purl.org/dc/dcmitype/StillImage" />
        <dc:title></dc:title>
      </cc:Work>
    </rdf:RDF>
  </metadata>
  <g
     inkscape:label="Layer 1"
     inkscape:groupmode="layer"
     id="layer1"
     transform="translate(-307,-412.36218)">
    <path
       inkscape:connector-curvature="0"
       style="color:#000000;fill:#f4f9ed;fill-opacity:1;fill-rule:nonzero;stroke:none;stroke-width:6;marker:none;visibility:visible;display:inline;overflow:visible;enable-background:accumulate"
       d="m 316,412.36218 -3,10 7,0 -3,-10 -1,0 z m 57,0 -3,10 7,0 -3,-10 -1,0 z m -62,15 0,2 2,3 0,16 -3,0 c -1.662,0 -3,1.338 -3,3 l 0,6 0,2 0,5 76,0 0,-5 0,-2 0,-6 c 0,-1.662 -1.338,-3 -3,-3 l -3,0 0,-16 2,-3 0,-2 -11,0 0,2 2,3 0,16 -7,0 0,-17 -36,0 0,17 -7,0 0,-16 2,-3 0,-2 -11,0 z"
       id="path5391" />
    <path
       inkscape:connector-curvature="0"
       style="color:#000000;fill:#c9dbb0;fill-opacity:1;fill-rule:nonzero;stroke:none;stroke-width:6;marker:none;visibility:visible;display:inline;overflow:visible;enable-background:accumulate"
       d="m 345,418.36218 c -9.9411,0 -18,5.8203 -18,13 l 9,0 0,8 -9,0 0,4 36,0 0,-4 -9,0 0,-8 9,0 c 0,-7.1797 -8.0589,-13 -18,-13 z m -32,4 0,5 7,0 0,-5 -7,0 z m 57,0 0,5 7,0 0,-5 -7,0 z m -30,9 10,0 0,8 -10,0 0,-8 z m 5,17 c -5.52284,0 -10,4.47715 -10,10 l 0,6 20,0 0,-6 c 0,-5.52285 -4.47716,-10 -10,-10 z"
       id="rect5364" />
  </g>
</svg>
