<?xml version="1.0" encoding="UTF-8" standalone="no"?>
<!-- Created with Inkscape (http://www.inkscape.org/) -->

<svg
   xmlns:dc="http://purl.org/dc/elements/1.1/"
   xmlns:cc="http://creativecommons.org/ns#"
   xmlns:rdf="http://www.w3.org/1999/02/22-rdf-syntax-ns#"
   xmlns:svg="http://www.w3.org/2000/svg"
   xmlns="http://www.w3.org/2000/svg"
   xmlns:sodipodi="http://sodipodi.sourceforge.net/DTD/sodipodi-0.dtd"
   xmlns:inkscape="http://www.inkscape.org/namespaces/inkscape"
   width="48"
   height="44.000004"
   id="svg7842"
   version="1.1"
   inkscape:version="0.48.1 r9760"
   sodipodi:docname="New document 95">
  <defs
     id="defs7844" />
  <sodipodi:namedview
     id="base"
     pagecolor="#ffffff"
     bordercolor="#666666"
     borderopacity="1.0"
     inkscape:pageopacity="0.0"
     inkscape:pageshadow="2"
     inkscape:zoom="0.35"
     inkscape:cx="292.14286"
     inkscape:cy="-181.71428"
     inkscape:document-units="px"
     inkscape:current-layer="layer1"
     showgrid="true"
     inkscape:snap-bbox="true"
     inkscape:snap-nodes="false"
     fit-margin-top="0"
     fit-margin-left="0"
     fit-margin-right="0"
     fit-margin-bottom="0">
    <inkscape:grid
       type="xygrid"
       id="grid7873"
       empspacing="5"
       visible="true"
       enabled="true"
       snapvisiblegridlinesonly="true" />
  </sodipodi:namedview>
  <metadata
     id="metadata7847">
    <rdf:RDF>
      <cc:Work
         rdf:about="">
        <dc:format>image/svg+xml</dc:format>
        <dc:type
           rdf:resource="http://purl.org/dc/dcmitype/StillImage" />
        <dc:title></dc:title>
      </cc:Work>
    </rdf:RDF>
  </metadata>
  <g
     inkscape:label="Layer 1"
     inkscape:groupmode="layer"
     id="layer1"
     transform="translate(-440,-372.36218)">
    <g
       transform="translate(-256,361)"
       id="g7540">
      <g
         transform="translate(60,-20)"
         id="g7229">
        <path
           sodipodi:type="arc"
           style="opacity:0.1;color:#000000;fill:#162019;fill-opacity:1;fill-rule:nonzero;stroke:none;stroke-width:2;marker:none;visibility:visible;display:inline;overflow:visible;enable-background:accumulate"
           id="path6511-0"
           sodipodi:cx="1100"
           sodipodi:cy="654.86218"
           sodipodi:rx="15"
           sodipodi:ry="7.5"
           d="m 1115,654.86218 c 0,4.14214 -6.7157,7.5 -15,7.5 -8.2843,0 -15,-3.35786 -15,-7.5 0,-4.14213 6.7157,-7.5 15,-7.5 8.2843,0 15,3.35787 15,7.5 z"
           transform="matrix(1.2333333,0,0,0.86666673,-693.16668,-498.68508)" />
        <g
           id="g7144">
          <path
             sodipodi:nodetypes="csccssscc"
             inkscape:connector-curvature="0"
             style="color:#000000;fill:#a58464;fill-opacity:1;fill-rule:nonzero;stroke:none;stroke-width:2;marker:none;visibility:visible;display:inline;overflow:visible;enable-background:accumulate"
             d="m 664,57.362183 -0.9747,10.01282 c -0.1956,2.009374 1,2.987183 3,3 l 9,-0.01282 c 0,0 -0.0253,-3 -2.0253,-3 -2,0 -3,0 -4,0 -1,0 -1.07446,-0.545333 -0.9747,-0.999997 L 670,57.362183 z"
             id="path7140" />
          <path
             inkscape:connector-curvature="0"
             id="path6151-1-3"
             transform="translate(-60,20)"
             d="m 727,11.375 c 0,2.782926 0.009,5.549336 4,5.9375 l 0,1.25 c -1.2616,4.42917 -3.32117,6.098285 -8.21875,4.90625 -4.81603,-1.172192 -9.35831,1.578015 -11.53125,9.6875 -1.39379,5.201669 -1.8125,5.75 -1.8125,5.75 -1.79058,4.668381 -2.23787,8.509344 -6.90625,6.71875 -1.86735,-0.716237 -1.78888,-0.721262 -3.65625,-1.4375 -1.86735,-0.716238 -2.96111,2.096262 -1.09375,2.8125 1.86735,0.716237 1.79272,0.706894 4.59375,1.78125 2.76718,1.061373 8.37774,2.18166 12.65625,-8.59375 l 1.65625,0.375 -0.65625,6.8125 c -0.1956,2.009374 1,2.987183 3,3 l 9,0 c 0,0 -0.0312,-3 -2.03125,-3 l -4,0 c -1,0 -1.06851,-0.545336 -0.96875,-1 l 1,-4.59375 c 4.49016,0.817014 7.7476,-1.120799 9.84375,-4.71875 l 1.71875,1.71875 a 2.0002,2.0002 0 1 0 2.8125,-2.84375 l -2.84375,-2.84375 c 0.0557,-0.188897 0.10443,-0.369097 0.15625,-0.5625 L 737.75,20.375 l 6.25,0 0,-5 c 0,0 -6.5733,-3 -9,-3 -1.41176,0 -2.36984,0.447613 -3,1.125 l -5,-2.125 z"
             style="color:#000000;fill:#c09872;fill-opacity:1;fill-rule:nonzero;stroke:none;stroke-width:2;marker:none;visibility:visible;display:inline;overflow:visible;enable-background:accumulate" />
          <path
             transform="matrix(0.6,0,0,0.6,116,-15.055127)"
             d="m 935,84.862183 c 0,1.380711 -1.11929,2.5 -2.5,2.5 -1.38071,0 -2.5,-1.119289 -2.5,-2.5 0,-1.380712 1.11929,-2.5 2.5,-2.5 1.38071,0 2.5,1.119288 2.5,2.5 z"
             sodipodi:ry="2.5"
             sodipodi:rx="2.5"
             sodipodi:cy="84.862183"
             sodipodi:cx="932.5"
             id="path6533-2"
             style="color:#000000;fill:#f4f9ed;fill-opacity:1;fill-rule:nonzero;stroke:none;stroke-width:2;marker:none;visibility:visible;display:inline;overflow:visible;enable-background:accumulate"
             sodipodi:type="arc" />
        </g>
      </g>
      <g
         id="g7537">
        <rect
           style="color:#000000;fill:none;stroke:none;stroke-width:4;marker:none;visibility:visible;display:inline;overflow:visible;enable-background:accumulate"
           id="rect7535"
           width="48"
           height="44"
           x="696"
           y="11.362183" />
      </g>
    </g>
  </g>
</svg>
