<?xml version="1.0" encoding="UTF-8" standalone="no"?>
<!-- Created with Inkscape (http://www.inkscape.org/) -->

<svg
   xmlns:dc="http://purl.org/dc/elements/1.1/"
   xmlns:cc="http://creativecommons.org/ns#"
   xmlns:rdf="http://www.w3.org/1999/02/22-rdf-syntax-ns#"
   xmlns:svg="http://www.w3.org/2000/svg"
   xmlns="http://www.w3.org/2000/svg"
   xmlns:sodipodi="http://sodipodi.sourceforge.net/DTD/sodipodi-0.dtd"
   xmlns:inkscape="http://www.inkscape.org/namespaces/inkscape"
   width="47"
   height="40"
   id="svg8154"
   version="1.1"
   inkscape:version="0.48.1 r9760"
   sodipodi:docname="bear1.svg">
  <defs
     id="defs8156" />
  <sodipodi:namedview
     id="base"
     pagecolor="#ffffff"
     bordercolor="#666666"
     borderopacity="1.0"
     inkscape:pageopacity="0.0"
     inkscape:pageshadow="2"
     inkscape:zoom="10.870742"
     inkscape:cx="18.214489"
     inkscape:cy="25.171236"
     inkscape:document-units="px"
     inkscape:current-layer="layer1"
     showgrid="true"
     fit-margin-top="0"
     fit-margin-left="0"
     fit-margin-right="0"
     fit-margin-bottom="0">
    <inkscape:grid
       type="xygrid"
       id="grid8235"
       empspacing="5"
       visible="true"
       enabled="true"
       snapvisiblegridlinesonly="true" />
  </sodipodi:namedview>
  <metadata
     id="metadata8159">
    <rdf:RDF>
      <cc:Work
         rdf:about="">
        <dc:format>image/svg+xml</dc:format>
        <dc:type
           rdf:resource="http://purl.org/dc/dcmitype/StillImage" />
        <dc:title></dc:title>
      </cc:Work>
    </rdf:RDF>
  </metadata>
  <g
     inkscape:label="Layer 1"
     inkscape:groupmode="layer"
     id="layer1"
     transform="translate(-316.5,-520.93361)">
    <g
       transform="translate(-386.5,403.57143)"
       id="g7570">
      <g
         id="g7426">
        <path
           sodipodi:type="arc"
           style="opacity:0.1;color:#000000;fill:#162019;fill-opacity:1;fill-rule:nonzero;stroke:none;stroke-width:2;marker:none;visibility:visible;display:inline;overflow:visible;enable-background:accumulate"
           id="path6129"
           sodipodi:cx="1100"
           sodipodi:cy="654.86218"
           sodipodi:rx="15"
           sodipodi:ry="7.5"
           d="m 1115,654.86218 c 0,4.14214 -6.7157,7.5 -15,7.5 -8.2843,0 -15,-3.35786 -15,-7.5 0,-4.14213 6.7157,-7.5 15,-7.5 8.2843,0 15,3.35787 15,7.5 z"
           transform="matrix(1.4666667,0,0,1,-888.33333,-505)" />
        <path
           style="color:#000000;fill:#c1a17f;fill-opacity:1;fill-rule:nonzero;stroke:none;stroke-width:2;marker:none;visibility:visible;display:inline;overflow:visible;enable-background:accumulate"
           d="m 736,127.375 -3,3 3,17.98718 c 0.33311,1.99722 1,3 3,3 0.33333,0 1,0 1,0 l 1,0 0,-3 0,-6 0,-6 z"
           id="path6135"
           inkscape:connector-curvature="0"
           sodipodi:nodetypes="ccsccccccc" />
        <path
           id="path6195"
           d="m 719,131.375 c -1.662,0 -3,1.338 -3,3 l 0,14 c 0,1.662 1.338,3 3,3 l 2,0 0,-4.5 0,-3.5 c 0,-0.9467 4,-6.01282 4,-9.01282 0,-2.33386 -5.28469,-2.98718 -6,-2.98718 z"
           style="color:#000000;fill:#a68a70;fill-opacity:1;fill-rule:nonzero;stroke:none;stroke-width:2;marker:none;visibility:visible;display:inline;overflow:visible;enable-background:accumulate"
           inkscape:connector-curvature="0"
           sodipodi:nodetypes="ssscccsss" />
        <path
           sodipodi:nodetypes="csssssccccc"
           inkscape:connector-curvature="0"
           id="path6139"
           d="m 730.625,125.37503 -6.625,1 c -2.9664,0.44776 -5,-2.01285 -9,-2 -6.53656,0.021 -7,4 -7,9 l 0,4 c 0,3.324 1.59797,-0.92865 4.5,0 l 12.5,4 9.5,0 c 3.03026,-0.31897 6.07143,1 6.5,-2 l -6,-11.01285 z"
           style="color:#000000;fill:#c1a17f;fill-opacity:1;fill-rule:nonzero;stroke:none;stroke-width:2;marker:none;visibility:visible;display:inline;overflow:visible;enable-background:accumulate" />
        <path
           sodipodi:nodetypes="ssscccsss"
           inkscape:connector-curvature="0"
           style="color:#000000;fill:#c1a17f;fill-opacity:1;fill-rule:nonzero;stroke:none;stroke-width:2;marker:none;visibility:visible;display:inline;overflow:visible;enable-background:accumulate"
           d="m 711,131.375 c -1.662,0 -3,1.338 -3,3 l 0,14 c 0,1.662 1.338,3 3,3 l 2,0 0,-4.5 0,-3.5 c 0,-0.9467 4,-6.01282 4,-9.01282 0,-2.33386 -5.28469,-2.98718 -6,-2.98718 z"
           id="path6141" />
        <path
           style="color:#000000;fill:#c1a17f;fill-opacity:1;fill-rule:nonzero;stroke:none;stroke-width:2;marker:none;visibility:visible;display:inline;overflow:visible;enable-background:accumulate"
           d="m 728,127.37498 -3,3 3,17.98719 c 0.33311,1.99722 1,3 3,3 0.33333,0 0,0 0,0 l 2,0 0,-3 0,-6 0,-6 z"
           id="path6147"
           inkscape:connector-curvature="0"
           sodipodi:nodetypes="ccsccccccc" />
        <path
           sodipodi:nodetypes="ssccss"
           inkscape:connector-curvature="0"
           id="path6250"
           d="m 748.89132,119.51719 c -1.05293,-1.05293 -2.74826,-1.05293 -3.80119,1e-5 l -2.43386,2.62332 3.80118,3.80119 2.43387,-2.62333 c 1.01281,-1.09158 1.05293,-2.74826 0,-3.80119 z"
           style="color:#000000;fill:#c1a17f;fill-opacity:1;fill-rule:nonzero;stroke:none;stroke-width:2;marker:none;visibility:visible;display:inline;overflow:visible;enable-background:accumulate" />
        <path
           sodipodi:type="arc"
           style="color:#000000;fill:#c1a17f;fill-opacity:1;fill-rule:nonzero;stroke:none;stroke-width:2;marker:none;visibility:visible;display:inline;overflow:visible;enable-background:accumulate"
           id="path6215"
           sodipodi:cx="647"
           sodipodi:cy="37.362183"
           sodipodi:rx="8"
           sodipodi:ry="8"
           d="m 655,37.362183 c 0,4.418278 -3.58172,8 -8,8 -4.41828,0 -8,-3.581722 -8,-8 0,-4.418278 3.58172,-8 8,-8 4.41828,0 8,3.581722 8,8 z"
           transform="matrix(1.0624927,0,0,1.0624927,51.067185,89.16519)" />
        <path
           style="color:#000000;fill:#c1a17f;fill-opacity:1;fill-rule:nonzero;stroke:none;stroke-width:2;marker:none;visibility:visible;display:inline;overflow:visible;enable-background:accumulate"
           d="m 728.431,119.51719 c 1.05293,-1.05293 2.74826,-1.05293 3.80119,1e-5 l 2.43386,2.62332 -3.80118,3.80119 -2.43387,-2.62333 c -1.01281,-1.09158 -1.05293,-2.74826 0,-3.80119 z"
           id="rect6145"
           inkscape:connector-curvature="0"
           sodipodi:nodetypes="ssccss" />
        <path
           style="color:#000000;fill:#c1a17f;fill-opacity:1;fill-rule:nonzero;stroke:none;stroke-width:2;marker:none;visibility:visible;display:inline;overflow:visible;enable-background:accumulate"
           d="m 736,125.36218 7,0 0,9 -1,1 -5,0 -1,-1 z"
           id="rect6241"
           inkscape:connector-curvature="0"
           sodipodi:nodetypes="ccccccc" />
        <rect
           y="125.36218"
           x="734"
           height="7"
           width="13"
           id="rect6243"
           style="color:#000000;fill:#c1a17f;fill-opacity:1;fill-rule:nonzero;stroke:none;stroke-width:2;marker:none;visibility:visible;display:inline;overflow:visible;enable-background:accumulate"
           rx="3.5"
           ry="3.5" />
        <path
           transform="matrix(0.6,0,0,0.6,177,74.944873)"
           d="m 935,84.862183 c 0,1.380711 -1.11929,2.5 -2.5,2.5 -1.38071,0 -2.5,-1.119289 -2.5,-2.5 0,-1.380712 1.11929,-2.5 2.5,-2.5 1.38071,0 2.5,1.119288 2.5,2.5 z"
           sodipodi:ry="2.5"
           sodipodi:rx="2.5"
           sodipodi:cy="84.862183"
           sodipodi:cx="932.5"
           id="path6237"
           style="color:#000000;fill:#f4f9ed;fill-opacity:1;fill-rule:nonzero;stroke:none;stroke-width:2;marker:none;visibility:visible;display:inline;overflow:visible;enable-background:accumulate"
           sodipodi:type="arc" />
        <path
           sodipodi:type="arc"
           style="color:#000000;fill:#f4f9ed;fill-opacity:1;fill-rule:nonzero;stroke:none;stroke-width:2;marker:none;visibility:visible;display:inline;overflow:visible;enable-background:accumulate"
           id="path6239"
           sodipodi:cx="932.5"
           sodipodi:cy="84.862183"
           sodipodi:rx="2.5"
           sodipodi:ry="2.5"
           d="m 935,84.862183 c 0,1.380711 -1.11929,2.5 -2.5,2.5 -1.38071,0 -2.5,-1.119289 -2.5,-2.5 0,-1.380712 1.11929,-2.5 2.5,-2.5 1.38071,0 2.5,1.119288 2.5,2.5 z"
           transform="matrix(0.6,0,0,0.6,183,74.944873)" />
        <path
           style="color:#000000;fill:#a68a70;fill-opacity:1;fill-rule:nonzero;stroke:none;stroke-width:2;marker:none;visibility:visible;display:inline;overflow:visible;enable-background:accumulate"
           d="m 738,128.36218 3,0 0,1 -1,1 -1,0 -1,-1 z"
           id="path6286"
           inkscape:connector-curvature="0"
           sodipodi:nodetypes="ccccccc" />
        <rect
           style="color:#000000;fill:#a68a70;fill-opacity:1;fill-rule:nonzero;stroke:none;stroke-width:2;marker:none;visibility:visible;display:inline;overflow:visible;enable-background:accumulate"
           id="rect6288"
           width="5"
           height="1"
           x="737"
           y="132.36218"
           rx="0"
           ry="0" />
        <rect
           ry="0"
           rx="0"
           y="-740.00006"
           x="129.36218"
           height="1"
           width="3.9999962"
           id="rect6290"
           style="color:#000000;fill:#a68a70;fill-opacity:1;fill-rule:nonzero;stroke:none;stroke-width:2;marker:none;visibility:visible;display:inline;overflow:visible;enable-background:accumulate"
           transform="matrix(0,1,-1,0,0,0)" />
        <path
           id="path6591-4"
           d="m 707.5,128.36218 c -2.47179,0 -4.5,2.02821 -4.5,4.5 l 0,7.96875 0,0.0312 c 0.006,0.82034 0.67535,1.5 1.5,1.5 0.82465,0 1.49499,-0.67913 1.5,-1.5 6e-5,-0.0102 1.5e-4,-0.021 0,-0.0312 l 0,-7.96875 c 0,-0.86619 0.6338,-1.5 1.5,-1.5 l 3,0 0.5,0 0,-0.5 0,-2 0,-0.5 -0.5,0 -3,0 z"
           style="font-size:medium;font-style:normal;font-variant:normal;font-weight:normal;font-stretch:normal;text-indent:0;text-align:start;text-decoration:none;line-height:normal;letter-spacing:normal;word-spacing:normal;text-transform:none;direction:ltr;block-progression:tb;writing-mode:lr-tb;text-anchor:start;baseline-shift:baseline;color:#000000;fill:#c1a17f;fill-opacity:1;fill-rule:nonzero;stroke:none;stroke-width:1;marker:none;visibility:visible;display:inline;overflow:visible;enable-background:accumulate;font-family:Sans;-inkscape-font-specification:Sans"
           inkscape:connector-curvature="0" />
      </g>
      <rect
         y="117.36218"
         x="703"
         height="40"
         width="47"
         id="rect7568"
         style="color:#000000;fill:none;stroke:none;stroke-width:4;marker:none;visibility:visible;display:inline;overflow:visible;enable-background:accumulate" />
    </g>
  </g>
</svg>
