<?xml version="1.0" encoding="UTF-8" standalone="no"?>
<!-- Created with Inkscape (http://www.inkscape.org/) -->

<svg
   xmlns:dc="http://purl.org/dc/elements/1.1/"
   xmlns:cc="http://creativecommons.org/ns#"
   xmlns:rdf="http://www.w3.org/1999/02/22-rdf-syntax-ns#"
   xmlns:svg="http://www.w3.org/2000/svg"
   xmlns="http://www.w3.org/2000/svg"
   xmlns:sodipodi="http://sodipodi.sourceforge.net/DTD/sodipodi-0.dtd"
   xmlns:inkscape="http://www.inkscape.org/namespaces/inkscape"
   width="47"
   height="40"
   id="svg8154"
   version="1.1"
   inkscape:version="0.48.1 r9760"
   sodipodi:docname="lion1.svg">
  <defs
     id="defs8156" />
  <sodipodi:namedview
     id="base"
     pagecolor="#ffffff"
     bordercolor="#666666"
     borderopacity="1.0"
     inkscape:pageopacity="0.0"
     inkscape:pageshadow="2"
     inkscape:zoom="10.870742"
     inkscape:cx="18.214489"
     inkscape:cy="25.171236"
     inkscape:document-units="px"
     inkscape:current-layer="layer1"
     showgrid="true"
     fit-margin-top="0"
     fit-margin-left="0"
     fit-margin-right="0"
     fit-margin-bottom="0">
    <inkscape:grid
       type="xygrid"
       id="grid8235"
       empspacing="5"
       visible="true"
       enabled="true"
       snapvisiblegridlinesonly="true" />
  </sodipodi:namedview>
  <metadata
     id="metadata8159">
    <rdf:RDF>
      <cc:Work
         rdf:about="">
        <dc:format>image/svg+xml</dc:format>
        <dc:type
           rdf:resource="http://purl.org/dc/dcmitype/StillImage" />
        <dc:title></dc:title>
      </cc:Work>
    </rdf:RDF>
  </metadata>
  <g
     inkscape:label="Layer 1"
     inkscape:groupmode="layer"
     id="layer1"
     transform="translate(-316.5,-520.93361)">
    <g
       transform="translate(-379.5,357.57143)"
       id="g7593">
      <g
         id="g7445">
        <g
           transform="translate(82.999961,135.99999)"
           id="g6292-7-7">
          <path
             transform="matrix(1.4666667,0,0,1,-978.33333,-595)"
             d="m 1115,654.86218 c 0,4.14214 -6.7157,7.5 -15,7.5 -8.2843,0 -15,-3.35786 -15,-7.5 0,-4.14213 6.7157,-7.5 15,-7.5 8.2843,0 15,3.35787 15,7.5 z"
             sodipodi:ry="7.5"
             sodipodi:rx="15"
             sodipodi:cy="654.86218"
             sodipodi:cx="1100"
             id="path6129-3-5"
             style="opacity:0.1;color:#000000;fill:#162019;fill-opacity:1;fill-rule:nonzero;stroke:none;stroke-width:2;marker:none;visibility:visible;display:inline;overflow:visible;enable-background:accumulate"
             sodipodi:type="arc" />
          <path
             sodipodi:nodetypes="ccsccccccc"
             inkscape:connector-curvature="0"
             id="path6135-2-2"
             d="m 646,37.375 -3,3 3,17.987183 c 0.33311,1.997222 1,3 3,3 0.33333,0 1,0 1,0 l 1,0 0,-3 0,-6 0,-6 z"
             style="color:#000000;fill:#c1a17f;fill-opacity:1;fill-rule:nonzero;stroke:none;stroke-width:2;marker:none;visibility:visible;display:inline;overflow:visible;enable-background:accumulate" />
          <path
             sodipodi:nodetypes="ssscccsss"
             inkscape:connector-curvature="0"
             style="color:#000000;fill:#a68a70;fill-opacity:1;fill-rule:nonzero;stroke:none;stroke-width:2;marker:none;visibility:visible;display:inline;overflow:visible;enable-background:accumulate"
             d="m 629,41.375 c -1.662,0 -3,1.338 -3,3 l 0,14 c 0,1.662 1.338,3 3,3 l 2,0 0,-4.5 0,-3.5 c 0,-0.946696 4,-6.012817 4,-9.012817 0,-2.333862 -5.28469,-2.987183 -6,-2.987183 z"
             id="path6195-8-6" />
          <path
             style="color:#000000;fill:#c1a17f;fill-opacity:1;fill-rule:nonzero;stroke:none;stroke-width:2;marker:none;visibility:visible;display:inline;overflow:visible;enable-background:accumulate"
             d="m 640.625,35.375033 -6.625,1 c -2.9664,0.447758 -5,-2.01285 -9,-2 -6.53656,0.021 -7,4 -7,9 l 0,4 c 0,3.324 1.59797,-0.928649 4.5,0 l 12.5,4 9.5,0 c 3.03026,-0.318975 6.07143,1 6.5,-2 l -6,-11.01285 z"
             id="path6139-8-9"
             inkscape:connector-curvature="0"
             sodipodi:nodetypes="csssssccccc" />
          <path
             id="path6141-9-5"
             d="m 621,41.375 c -1.662,0 -3,1.338 -3,3 l 0,14 c 0,1.662 1.338,3 3,3 l 2,0 0,-4.5 0,-3.5 c 0,-0.946696 4,-6.012817 4,-9.012817 0,-2.333862 -5.28469,-2.987183 -6,-2.987183 z"
             style="color:#000000;fill:#c1a17f;fill-opacity:1;fill-rule:nonzero;stroke:none;stroke-width:2;marker:none;visibility:visible;display:inline;overflow:visible;enable-background:accumulate"
             inkscape:connector-curvature="0"
             sodipodi:nodetypes="ssscccsss" />
          <path
             sodipodi:nodetypes="ccsccccccc"
             inkscape:connector-curvature="0"
             id="path6147-3-8"
             d="m 638,37.374983 -3,3 3,17.987183 c 0.33311,1.997222 1,3 3,3 0.33333,0 0,0 0,0 l 2,0 0,-3 0,-6 0,-6 z"
             style="color:#000000;fill:#c1a17f;fill-opacity:1;fill-rule:nonzero;stroke:none;stroke-width:2;marker:none;visibility:visible;display:inline;overflow:visible;enable-background:accumulate" />
          <path
             style="color:#000000;fill:#c1a17f;fill-opacity:1;fill-rule:nonzero;stroke:none;stroke-width:2;marker:none;visibility:visible;display:inline;overflow:visible;enable-background:accumulate"
             d="m 658.89132,29.517188 c -1.05293,-1.052924 -2.74826,-1.052924 -3.80119,7e-6 l -2.43386,2.623324 3.80118,3.801187 2.43387,-2.623324 c 1.01281,-1.091582 1.05293,-2.748263 0,-3.801194 z"
             id="path6250-8-4"
             inkscape:connector-curvature="0"
             sodipodi:nodetypes="ssccss" />
          <path
             transform="matrix(1.4375,0,0,1.4375,-282.5625,-12.845955)"
             d="m 655,37.362183 c 0,4.418278 -3.58172,8 -8,8 -4.41828,0 -8,-3.581722 -8,-8 0,-4.418278 3.58172,-8 8,-8 4.41828,0 8,3.581722 8,8 z"
             sodipodi:ry="8"
             sodipodi:rx="8"
             sodipodi:cy="37.362183"
             sodipodi:cx="647"
             id="path6215-3-8"
             style="color:#000000;fill:#a68a70;fill-opacity:1;fill-rule:nonzero;stroke:none;stroke-width:2;marker:none;visibility:visible;display:inline;overflow:visible;enable-background:accumulate"
             sodipodi:type="arc" />
          <path
             sodipodi:nodetypes="ssccss"
             inkscape:connector-curvature="0"
             id="rect6145-0-8"
             d="m 638.431,29.517188 c 1.05293,-1.052924 2.74826,-1.052924 3.80119,7e-6 l 2.43386,2.623324 -3.80118,3.801187 -2.43387,-2.623324 c -1.01281,-1.091582 -1.05293,-2.748263 0,-3.801194 z"
             style="color:#000000;fill:#c1a17f;fill-opacity:1;fill-rule:nonzero;stroke:none;stroke-width:2;marker:none;visibility:visible;display:inline;overflow:visible;enable-background:accumulate" />
          <path
             sodipodi:nodetypes="ccccccc"
             inkscape:connector-curvature="0"
             id="rect6241-5-8"
             d="m 646,38.362183 9,0 -1,9 -1,1 -5,0 -1,-1 z"
             style="color:#000000;fill:#c1a17f;fill-opacity:1;fill-rule:nonzero;stroke:none;stroke-width:2;marker:none;visibility:visible;display:inline;overflow:visible;enable-background:accumulate" />
          <rect
             ry="3.5"
             rx="3.5"
             style="color:#000000;fill:#c1a17f;fill-opacity:1;fill-rule:nonzero;stroke:none;stroke-width:2;marker:none;visibility:visible;display:inline;overflow:visible;enable-background:accumulate"
             id="rect6243-1-4"
             width="13"
             height="7"
             x="644"
             y="35.362183" />
          <path
             sodipodi:type="arc"
             style="color:#000000;fill:#f4f9ed;fill-opacity:1;fill-rule:nonzero;stroke:none;stroke-width:2;marker:none;visibility:visible;display:inline;overflow:visible;enable-background:accumulate"
             id="path6237-7-8"
             sodipodi:cx="932.5"
             sodipodi:cy="84.862183"
             sodipodi:rx="2.5"
             sodipodi:ry="2.5"
             d="m 935,84.862183 c 0,1.380711 -1.11929,2.5 -2.5,2.5 -1.38071,0 -2.5,-1.119289 -2.5,-2.5 0,-1.380712 1.11929,-2.5 2.5,-2.5 1.38071,0 2.5,1.119288 2.5,2.5 z"
             transform="matrix(0.6,0,0,0.6,88,-12.055127)" />
          <path
             transform="matrix(0.6,0,0,0.6,94,-12.055127)"
             d="m 935,84.862183 c 0,1.380711 -1.11929,2.5 -2.5,2.5 -1.38071,0 -2.5,-1.119289 -2.5,-2.5 0,-1.380712 1.11929,-2.5 2.5,-2.5 1.38071,0 2.5,1.119288 2.5,2.5 z"
             sodipodi:ry="2.5"
             sodipodi:rx="2.5"
             sodipodi:cy="84.862183"
             sodipodi:cx="932.5"
             id="path6239-0-1"
             style="color:#000000;fill:#f4f9ed;fill-opacity:1;fill-rule:nonzero;stroke:none;stroke-width:2;marker:none;visibility:visible;display:inline;overflow:visible;enable-background:accumulate"
             sodipodi:type="arc" />
          <path
             sodipodi:nodetypes="ccccccc"
             inkscape:connector-curvature="0"
             id="path6286-7-7"
             d="m 649,41.362183 3,0 0,1 -1,1 -1,0 -1,-1 z"
             style="color:#000000;fill:#a68a70;fill-opacity:1;fill-rule:nonzero;stroke:none;stroke-width:2;marker:none;visibility:visible;display:inline;overflow:visible;enable-background:accumulate" />
          <path
             style="color:#000000;fill:#a68a70;fill-opacity:1;fill-rule:nonzero;stroke:none;stroke-width:2;marker:none;visibility:visible;display:inline;overflow:visible;enable-background:accumulate"
             d="m 646,46.612193 4.5,-1.25001 4.5,1.25001 -1,0.74999 -3.5,-1 -3.5,1 z"
             id="rect6288-8-7"
             inkscape:connector-curvature="0"
             sodipodi:nodetypes="ccccccc" />
          <rect
             transform="matrix(0,1,-1,0,0,0)"
             style="color:#000000;fill:#a68a70;fill-opacity:1;fill-rule:nonzero;stroke:none;stroke-width:2;marker:none;visibility:visible;display:inline;overflow:visible;enable-background:accumulate"
             id="rect6290-5-0"
             width="4.0000029"
             height="1"
             x="42.362186"
             y="-651.00006"
             rx="0"
             ry="0" />
        </g>
        <path
           id="path6591-4-3"
           d="m 700.5,174.36218 c -2.47179,0 -4.5,2.02821 -4.5,4.5 l 0,7.96875 0,0.0312 c 0.006,0.82034 0.67535,1.5 1.5,1.5 0.82465,0 1.49499,-0.67913 1.5,-1.5 6e-5,-0.0102 1.5e-4,-0.021 0,-0.0312 l 0,-7.96875 c 0,-0.86619 0.6338,-1.5 1.5,-1.5 l 3,0 0.5,0 0,-0.5 0,-2 0,-0.5 -0.5,0 -3,0 z"
           style="font-size:medium;font-style:normal;font-variant:normal;font-weight:normal;font-stretch:normal;text-indent:0;text-align:start;text-decoration:none;line-height:normal;letter-spacing:normal;word-spacing:normal;text-transform:none;direction:ltr;block-progression:tb;writing-mode:lr-tb;text-anchor:start;baseline-shift:baseline;color:#000000;fill:#c1a17f;fill-opacity:1;fill-rule:nonzero;stroke:none;stroke-width:1;marker:none;visibility:visible;display:inline;overflow:visible;enable-background:accumulate;font-family:Sans;-inkscape-font-specification:Sans"
           inkscape:connector-curvature="0" />
      </g>
      <rect
         y="164.36218"
         x="696"
         height="39"
         width="47"
         id="rect7591"
         style="color:#000000;fill:none;stroke:none;stroke-width:4;marker:none;visibility:visible;display:inline;overflow:visible;enable-background:accumulate" />
    </g>
  </g>
</svg>
