<?xml version="1.0" encoding="UTF-8" standalone="no"?>
<!-- Created with Inkscape (http://www.inkscape.org/) -->

<svg
   xmlns:dc="http://purl.org/dc/elements/1.1/"
   xmlns:cc="http://creativecommons.org/ns#"
   xmlns:rdf="http://www.w3.org/1999/02/22-rdf-syntax-ns#"
   xmlns:svg="http://www.w3.org/2000/svg"
   xmlns="http://www.w3.org/2000/svg"
   xmlns:sodipodi="http://sodipodi.sourceforge.net/DTD/sodipodi-0.dtd"
   xmlns:inkscape="http://www.inkscape.org/namespaces/inkscape"
   width="32"
   height="32"
   id="svg2"
   version="1.1"
   inkscape:version="0.48.5 r10040"
   sodipodi:docname="park3.svg">
  <defs
     id="defs4" />
  <sodipodi:namedview
     id="base"
     pagecolor="#ffffff"
     bordercolor="#666666"
     borderopacity="1.0"
     inkscape:pageopacity="0.0"
     inkscape:pageshadow="2"
     inkscape:zoom="22.627416"
     inkscape:cx="15.848482"
     inkscape:cy="14.678386"
     inkscape:document-units="px"
     inkscape:current-layer="layer1"
     showgrid="true"
     fit-margin-top="0"
     fit-margin-left="0"
     fit-margin-right="0"
     fit-margin-bottom="0"
     inkscape:window-width="1280"
     inkscape:window-height="755"
     inkscape:window-x="28"
     inkscape:window-y="0"
     inkscape:window-maximized="0"
     inkscape:object-paths="true"
     inkscape:object-nodes="true">
    <inkscape:grid
       type="xygrid"
       id="grid2985"
       empspacing="5"
       visible="true"
       enabled="true"
       snapvisiblegridlinesonly="true" />
  </sodipodi:namedview>
  <metadata
     id="metadata7">
    <rdf:RDF>
      <cc:Work
         rdf:about="">
        <dc:format>image/svg+xml</dc:format>
        <dc:type
           rdf:resource="http://purl.org/dc/dcmitype/StillImage" />
        <dc:title />
      </cc:Work>
    </rdf:RDF>
  </metadata>
  <g
     inkscape:label="Layer 1"
     inkscape:groupmode="layer"
     id="layer1"
     transform="translate(-45,-410.36218)">
    <path
       style="color:#000000;fill:#68ad90;fill-opacity:1;fill-rule:nonzero;stroke:none;stroke-width:3;marker:none;visibility:visible;display:inline;overflow:visible;enable-background:accumulate"
       d="M 16,2 C 13.163112,2 10.827425,4.1480274 10.53125,6.90625 9.6606868,6.3281768 8.6233238,6 7.5,6 4.4624339,6 2,8.4624339 2,11.5 2,12.66346 2.3522887,13.736344 2.96875,14.625 1.2055406,15.541181 0,17.375644 0,19.5 0,22.537566 2.4624339,25 5.5,25 l 21,0 C 29.537566,25 32,22.537566 32,19.5 32,17.375644 30.794459,15.541181 29.03125,14.625 29.647711,13.736344 30,12.66346 30,11.5 30,8.4624339 27.537566,6 24.5,6 23.376676,6 22.339313,6.3281768 21.46875,6.90625 21.172575,4.1480274 18.836888,2 16,2 z"
       transform="translate(45,410.36218)"
       id="path6576"
       inkscape:connector-curvature="0"
       sodipodi:nodetypes="scsscsccscsscs" />
  </g>
</svg>
