<?xml version="1.0" encoding="UTF-8" standalone="no"?>
<!-- Created with Inkscape (http://www.inkscape.org/) -->

<svg
   xmlns:dc="http://purl.org/dc/elements/1.1/"
   xmlns:cc="http://creativecommons.org/ns#"
   xmlns:rdf="http://www.w3.org/1999/02/22-rdf-syntax-ns#"
   xmlns:svg="http://www.w3.org/2000/svg"
   xmlns="http://www.w3.org/2000/svg"
   xmlns:sodipodi="http://sodipodi.sourceforge.net/DTD/sodipodi-0.dtd"
   xmlns:inkscape="http://www.inkscape.org/namespaces/inkscape"
   width="30.999981"
   height="46.000004"
   id="svg8154"
   version="1.1"
   inkscape:version="0.48.1 r9760"
   sodipodi:docname="penguin.svg">
  <defs
     id="defs8156" />
  <sodipodi:namedview
     id="base"
     pagecolor="#ffffff"
     bordercolor="#666666"
     borderopacity="1.0"
     inkscape:pageopacity="0.0"
     inkscape:pageshadow="2"
     inkscape:zoom="21.612122"
     inkscape:cx="12.200056"
     inkscape:cy="16.122793"
     inkscape:document-units="px"
     inkscape:current-layer="layer1"
     showgrid="true"
     fit-margin-top="0"
     fit-margin-left="0"
     fit-margin-right="0"
     fit-margin-bottom="0">
    <inkscape:grid
       type="xygrid"
       id="grid8235"
       empspacing="5"
       visible="true"
       enabled="true"
       snapvisiblegridlinesonly="true" />
  </sodipodi:namedview>
  <metadata
     id="metadata8159">
    <rdf:RDF>
      <cc:Work
         rdf:about="">
        <dc:format>image/svg+xml</dc:format>
        <dc:type
           rdf:resource="http://purl.org/dc/dcmitype/StillImage" />
        <dc:title></dc:title>
      </cc:Work>
    </rdf:RDF>
  </metadata>
  <g
     inkscape:label="Layer 1"
     inkscape:groupmode="layer"
     id="layer1"
     transform="translate(-327.50012,-508.93362)">
    <g
       id="g9299"
       transform="translate(-323.49994,538.57144)">
      <path
         transform="matrix(1.0333327,0,0,0.86666673,-470.16592,-557.68508)"
         d="m 1115,654.86218 c 0,4.14214 -6.7157,7.5 -15,7.5 -8.2843,0 -15,-3.35786 -15,-7.5 0,-4.14213 6.7157,-7.5 15,-7.5 8.2843,0 15,3.35787 15,7.5 z"
         sodipodi:ry="7.5"
         sodipodi:rx="15"
         sodipodi:cy="654.86218"
         sodipodi:cx="1100"
         id="path6511-0-7"
         style="opacity:0.1;color:#000000;fill:#162019;fill-opacity:1;fill-rule:nonzero;stroke:none;stroke-width:2;marker:none;visibility:visible;display:inline;overflow:visible;enable-background:accumulate"
         sodipodi:type="arc" />
      <g
         transform="translate(-2,0)"
         style="fill:#5c4d42;fill-opacity:1"
         id="g9247">
        <path
           id="rect4194-9"
           d="m 661,3.3749956 0,6.0000004 c 0,1.987183 1,2.987183 3,3 l 2,-0.01282 c 0,-2.662395 0,-7.0000004 0,-8.9871834 z"
           style="color:#000000;fill:#df9778;fill-opacity:1;fill-rule:nonzero;stroke:none;stroke-width:2;marker:none;visibility:visible;display:inline;overflow:visible;enable-background:accumulate"
           inkscape:connector-curvature="0"
           sodipodi:nodetypes="cscccc" />
        <path
           sodipodi:nodetypes="cscccc"
           inkscape:connector-curvature="0"
           style="color:#000000;fill:#df9778;fill-opacity:1;fill-rule:nonzero;stroke:none;stroke-width:2;marker:none;visibility:visible;display:inline;overflow:visible;enable-background:accumulate"
           d="m 670,-6.6250044 0,16.0000004 c 0,1.987183 1,2.987183 3,3 l 2,-0.01282 c 0,-2.662395 0,-17.0000004 0,-18.9871834 z"
           id="path9226" />
      </g>
      <path
         sodipodi:nodetypes="sssssss"
         inkscape:connector-curvature="0"
         id="rect9202"
         d="m 666,-22.637817 c 6.094,0 9,4.906 9,11 l 0,7.9999996 c 0,6.094 -2.906,11 -9,11 -6.094,0 -11,-4.906 -11,-11 l 0,-4.9999996 c 0,-6.094 4.906,-14 11,-14 z"
         style="color:#000000;fill:#5c4d42;fill-opacity:1;fill-rule:nonzero;stroke:none;stroke-width:4;marker:none;visibility:visible;display:inline;overflow:visible;enable-background:accumulate" />
      <path
         sodipodi:nodetypes="cccc"
         inkscape:connector-curvature="0"
         id="path9204"
         d="m 655,-7.637817 0,15 11,0 z"
         style="color:#000000;fill:#5c4d42;fill-opacity:1;fill-rule:nonzero;stroke:none;stroke-width:4;marker:none;visibility:visible;display:inline;overflow:visible;enable-background:accumulate" />
      <path
         style="color:#000000;fill:#5c4d42;fill-opacity:1;fill-rule:nonzero;stroke:none;stroke-width:2;marker:none;visibility:visible;display:inline;overflow:visible;enable-background:accumulate"
         d="m 672,-15.637817 c 0,0 7,3 7,7.9999996 l 0,10 c 0,0 -6,-1 -6,-4 0,-1.6666667 0,-4 0,-4 l -3,-2 z"
         id="path9258"
         inkscape:connector-curvature="0"
         sodipodi:nodetypes="cscsccc" />
      <path
         sodipodi:nodetypes="sssssss"
         inkscape:connector-curvature="0"
         id="rect9253"
         d="m 670,-22.637817 c 3.878,0 5,7.122 5,11 l 0,12.9999996 c 0,3.8780006 -2.122,6 -6,6 -3.878,0 -6,-3.122 -6,-6.99999998 l 0,-11.99999962 c 0,-3.878 3.122,-11 7,-11 z"
         style="color:#000000;fill:#dddfd4;fill-opacity:1;fill-rule:nonzero;stroke:none;stroke-width:4;marker:none;visibility:visible;display:inline;overflow:visible;enable-background:accumulate" />
      <path
         sodipodi:nodetypes="csscc"
         inkscape:connector-curvature="0"
         id="path9251"
         d="m 669,-26.637817 10,2 c 1.99331,0.398663 1.9872,2.523216 0,3 l -7,1.679492 z"
         style="color:#000000;fill:#5c4d42;fill-opacity:1;fill-rule:nonzero;stroke:none;stroke-width:2;marker:none;visibility:visible;display:inline;overflow:visible;enable-background:accumulate" />
      <path
         transform="matrix(1.0909091,0,0,1.0909091,-61.363636,2.694347)"
         d="m 675,-24.137817 c 0,3.037566 -2.46243,5.5 -5.5,5.5 -3.03757,0 -5.5,-2.462434 -5.5,-5.5 0,-3.037567 2.46243,-5.5 5.5,-5.5 3.03757,0 5.5,2.462433 5.5,5.5 z"
         sodipodi:ry="5.5"
         sodipodi:rx="5.5"
         sodipodi:cy="-24.137817"
         sodipodi:cx="669.5"
         id="path9206"
         style="color:#000000;fill:#5c4d42;fill-opacity:1;fill-rule:nonzero;stroke:none;stroke-width:4;marker:none;visibility:visible;display:inline;overflow:visible;enable-background:accumulate"
         sodipodi:type="arc" />
      <path
         sodipodi:nodetypes="cccc"
         inkscape:connector-curvature="0"
         id="path9261"
         d="m 655,7.3621826 c 3.16169,-1.5385651 4.74916,-6.48792987 7,-10 l 7,10 z"
         style="color:#000000;fill:#dddfd4;fill-opacity:1;fill-rule:nonzero;stroke:none;stroke-width:2;marker:none;visibility:visible;display:inline;overflow:visible;enable-background:accumulate" />
      <path
         sodipodi:nodetypes="cscsccc"
         inkscape:connector-curvature="0"
         id="path9256"
         d="m 661,-15.637817 c 0,0 7,3 7,7.9999996 l 0,10 c 0,0 -6,-1 -6,-4 0,-1.6666667 0,-4 0,-4 l -3,-2 z"
         style="color:#000000;fill:#5c4d42;fill-opacity:1;fill-rule:nonzero;stroke:none;stroke-width:2;marker:none;visibility:visible;display:inline;overflow:visible;enable-background:accumulate" />
      <path
         sodipodi:type="arc"
         style="color:#000000;fill:#f4f9ed;fill-opacity:1;fill-rule:nonzero;stroke:none;stroke-width:2;marker:none;visibility:visible;display:inline;overflow:visible;enable-background:accumulate"
         id="path6533-2-2"
         sodipodi:cx="932.5"
         sodipodi:cy="84.862183"
         sodipodi:rx="2.5"
         sodipodi:ry="2.5"
         d="m 935,84.862183 c 0,1.380711 -1.11929,2.5 -2.5,2.5 -1.38071,0 -2.5,-1.119289 -2.5,-2.5 0,-1.380712 1.11929,-2.5 2.5,-2.5 1.38071,0 2.5,1.119288 2.5,2.5 z"
         transform="matrix(0.6,0,0,0.6,110,-75.055127)" />
    </g>
  </g>
</svg>
