<?xml version="1.0" encoding="UTF-8" standalone="no"?>
<!-- Created with Inkscape (http://www.inkscape.org/) -->

<svg
   xmlns:dc="http://purl.org/dc/elements/1.1/"
   xmlns:cc="http://creativecommons.org/ns#"
   xmlns:rdf="http://www.w3.org/1999/02/22-rdf-syntax-ns#"
   xmlns:svg="http://www.w3.org/2000/svg"
   xmlns="http://www.w3.org/2000/svg"
   xmlns:sodipodi="http://sodipodi.sourceforge.net/DTD/sodipodi-0.dtd"
   xmlns:inkscape="http://www.inkscape.org/namespaces/inkscape"
   width="57"
   height="35"
   id="svg7919"
   version="1.1"
   inkscape:version="0.48.5 r10040"
   sodipodi:docname="seamonster.svg">
  <defs
     id="defs7921" />
  <sodipodi:namedview
     id="base"
     pagecolor="#ffffff"
     bordercolor="#666666"
     borderopacity="1.0"
     inkscape:pageopacity="0.0"
     inkscape:pageshadow="2"
     inkscape:zoom="4"
     inkscape:cx="15.424769"
     inkscape:cy="5.4641282"
     inkscape:document-units="px"
     inkscape:current-layer="layer1"
     showgrid="true"
     fit-margin-top="0"
     fit-margin-left="0"
     fit-margin-right="0"
     fit-margin-bottom="0"
     inkscape:window-width="1119"
     inkscape:window-height="815"
     inkscape:window-x="295"
     inkscape:window-y="20"
     inkscape:window-maximized="0"
     inkscape:snap-bbox="true"
     inkscape:snap-nodes="true">
    <inkscape:grid
       type="xygrid"
       id="grid7962"
       empspacing="5"
       visible="true"
       enabled="true"
       snapvisiblegridlinesonly="true"
       originx="2px"
       originy="-1.4697232e-08px" />
  </sodipodi:namedview>
  <metadata
     id="metadata7924">
    <rdf:RDF>
      <cc:Work
         rdf:about="">
        <dc:format>image/svg+xml</dc:format>
        <dc:type
           rdf:resource="http://purl.org/dc/dcmitype/StillImage" />
        <dc:title></dc:title>
      </cc:Work>
    </rdf:RDF>
  </metadata>
  <g
     inkscape:label="Layer 1"
     inkscape:groupmode="layer"
     id="layer1"
     transform="translate(-254,-460.34936)">
    <g
       transform="translate(-619.5,487.98718)"
       id="g6051">
      <path
         inkscape:connector-curvature="0"
         id="path5171"
         d="m 918.5,-27.637816 c -6,0 -7.56528,2.489166 -9.5625,6.856566 C 907.5,-17.637817 907.5,-12.410714 907.5,-8.625 l 0,1.25 c -3.68851,-2.975034 -8.39226,-4.75 -13.5,-4.75 -10.00832,0 -18.10381,6.7279127 -20.5,15.9871838 0.6026,0.04818 0.88156,0.3375615 1.40625,0.6378162 L 879.5,7.3621838 884.4375,4.5 c 0.0819,-0.044477 0.16529,-0.086175 0.25,-0.125 0.12233,-0.058204 0.24753,-0.1103713 0.375,-0.15625 0.13315,-0.048615 0.2688,-0.090355 0.40625,-0.125 C 885.60247,4.055675 885.73812,4.024372 885.875,4 c 0.26788,-0.047581 0.54049,-0.068551 0.8125,-0.0625 0.13582,0.00371 0.27146,0.014146 0.40625,0.03125 0.41009,0.054132 0.81191,0.1704489 1.1875,0.34375 0.12807,0.056086 0.25329,0.118694 0.375,0.1875 L 893.5,7.3621838 898.15625,4.5 c 0.0917,-0.055717 0.18551,-0.1078529 0.28125,-0.15625 0.25007,-0.119706 0.51226,-0.2140926 0.78125,-0.28125 0.39542,-0.1124716 0.80774,-0.1653332 1.21875,-0.15625 0.27409,0.014476 0.54673,0.05642 0.8125,0.125 0.1269,0.035639 0.25209,0.077369 0.375,0.125 0.26065,0.089138 0.51232,0.2044893 0.75,0.34375 L 907.5,7.3621838 911.90625,4.5 c 0.0819,-0.044477 0.16529,-0.086175 0.25,-0.125 0.12233,-0.058204 0.24753,-0.1103713 0.375,-0.15625 0.13315,-0.048615 0.2688,-0.090355 0.40625,-0.125 0.13372,-0.038075 0.26937,-0.069378 0.40625,-0.09375 0.26788,-0.047581 0.54049,-0.068551 0.8125,-0.0625 0.13582,0.00371 0.27146,0.014146 0.40625,0.03125 0.41009,0.054132 0.81191,0.1704489 1.1875,0.34375 0.12807,0.056086 0.25329,0.118694 0.375,0.1875 l 2.25,1.34375 C 919.09929,4.8362293 919.51765,3.6228337 919.5,2.375 l 0,-11 0,-5 7.5,0 c 1.84909,0.02615 3.5,-1.663537 3.5,-3.512816 0,-1.849279 -1.65091,-3.513335 -3.5,-3.487184 l -1.5,-0.01282 c 0,0 0,-0.652647 0,-1 0,-3.170193 -4,-5.999996 -7,-5.999996 z"
         style="color:#000000;fill:#6dad6a;fill-opacity:1;fill-rule:nonzero;stroke:none;stroke-width:2;marker:none;visibility:visible;display:inline;overflow:visible;enable-background:accumulate"
         sodipodi:nodetypes="csscscccccccccccccccccccccccccccccccccccsccsc" />
      <path
         inkscape:connector-curvature="0"
         id="path5941-3"
         d="m 918.5,-13.625 c -2,0 -4,0.503107 -4,4 l 0,12 c 0,0.565 -0.13815,1.0773062 -0.34375,1.5625 0.13582,0.00371 0.27146,0.014146 0.40625,0.03125 0.41009,0.054132 0.81191,0.1704489 1.1875,0.34375 0.12807,0.056086 0.25329,0.118694 0.375,0.1875 l 2.2519,1.34375 C 919.11113,4.8322949 919.5195,3.6308274 919.5,2.375 l 0,-9 c 0,-3.0128496 0,-5 1,-7 z"
         style="font-size:medium;font-style:normal;font-variant:normal;font-weight:normal;font-stretch:normal;text-indent:0;text-align:start;text-decoration:none;line-height:normal;letter-spacing:normal;word-spacing:normal;text-transform:none;direction:ltr;block-progression:tb;writing-mode:lr-tb;text-anchor:start;baseline-shift:baseline;color:#000000;fill:#e5edad;fill-opacity:1;fill-rule:nonzero;stroke:none;stroke-width:12;marker:none;visibility:visible;display:inline;overflow:visible;enable-background:accumulate;font-family:Sans;-inkscape-font-specification:Sans"
         sodipodi:nodetypes="sssccccccscs" />
      <path
         sodipodi:type="arc"
         style="color:#000000;fill:#f4f9ed;fill-opacity:1;fill-rule:nonzero;stroke:none;stroke-width:2;marker:none;visibility:visible;display:inline;overflow:visible;enable-background:accumulate"
         id="path6533-2-1"
         sodipodi:cx="932.5"
         sodipodi:cy="84.862183"
         sodipodi:rx="2.5"
         sodipodi:ry="2.5"
         d="m 935,84.862183 c 0,1.380711 -1.11929,2.5 -2.5,2.5 -1.38071,0 -2.5,-1.119289 -2.5,-2.5 0,-1.380712 1.11929,-2.5 2.5,-2.5 1.38071,0 2.5,1.119288 2.5,2.5 z"
         transform="matrix(0.6,0,0,0.6,357.5,-73.055127)" />
    </g>
  </g>
</svg>
