<?xml version="1.0" encoding="UTF-8" standalone="no"?>
<!-- Created with Inkscape (http://www.inkscape.org/) -->

<svg
   xmlns:dc="http://purl.org/dc/elements/1.1/"
   xmlns:cc="http://creativecommons.org/ns#"
   xmlns:rdf="http://www.w3.org/1999/02/22-rdf-syntax-ns#"
   xmlns:svg="http://www.w3.org/2000/svg"
   xmlns="http://www.w3.org/2000/svg"
   xmlns:sodipodi="http://sodipodi.sourceforge.net/DTD/sodipodi-0.dtd"
   xmlns:inkscape="http://www.inkscape.org/namespaces/inkscape"
   width="57"
   height="45.000019"
   id="svg5570"
   version="1.1"
   inkscape:version="0.48.5 r10040"
   sodipodi:docname="New document 36">
  <defs
     id="defs5572" />
  <sodipodi:namedview
     id="base"
     pagecolor="#ffffff"
     bordercolor="#666666"
     borderopacity="1.0"
     inkscape:pageopacity="0.0"
     inkscape:pageshadow="2"
     inkscape:zoom="0.35"
     inkscape:cx="194"
     inkscape:cy="-37.999983"
     inkscape:document-units="px"
     inkscape:current-layer="layer1"
     showgrid="true"
     fit-margin-top="0"
     fit-margin-left="0"
     fit-margin-right="0"
     fit-margin-bottom="0"
     inkscape:window-width="1225"
     inkscape:window-height="822"
     inkscape:window-x="106"
     inkscape:window-y="20"
     inkscape:window-maximized="0">
    <inkscape:grid
       type="xygrid"
       id="grid5578"
       empspacing="5"
       visible="true"
       enabled="true"
       snapvisiblegridlinesonly="true"
       originx="-161px"
       originy="-557.99998px" />
  </sodipodi:namedview>
  <metadata
     id="metadata5575">
    <rdf:RDF>
      <cc:Work
         rdf:about="">
        <dc:format>image/svg+xml</dc:format>
        <dc:type
           rdf:resource="http://purl.org/dc/dcmitype/StillImage" />
        <dc:title></dc:title>
      </cc:Work>
    </rdf:RDF>
  </metadata>
  <g
     inkscape:label="Layer 1"
     inkscape:groupmode="layer"
     id="layer1"
     transform="translate(-161,-449.36218)">
    <g
       transform="translate(-1800,-1090)"
       id="g5166">
      <g
         id="g4821"
         transform="matrix(-1,0,0,1,3958,-20)">
        <g
           transform="translate(10,0)"
           id="g4823">
          <rect
             style="color:#000000;fill:#d4cb9e;fill-opacity:1;fill-rule:nonzero;stroke:none;stroke-width:4;marker:none;visibility:visible;display:inline;overflow:visible;enable-background:accumulate"
             id="rect4826"
             width="3"
             height="17.000004"
             x="1965"
             y="1577.3622"
             rx="1.5"
             ry="1.5000001" />
          <rect
             ry="1.5"
             rx="1.5"
             y="1559.3622"
             x="1956"
             height="35"
             width="3"
             id="rect4828"
             style="color:#000000;fill:#d4cb9e;fill-opacity:1;fill-rule:nonzero;stroke:none;stroke-width:4;marker:none;visibility:visible;display:inline;overflow:visible;enable-background:accumulate" />
          <rect
             style="color:#000000;fill:#d4cb9e;fill-opacity:1;fill-rule:nonzero;stroke:none;stroke-width:4;marker:none;visibility:visible;display:inline;overflow:visible;enable-background:accumulate"
             id="rect4830"
             width="3"
             height="16.921299"
             x="1947"
             y="1577.4409"
             rx="1.5"
             ry="1.5000001" />
        </g>
        <g
           transform="translate(4,-2)"
           id="g4832">
          <path
             sodipodi:nodetypes="ccccc"
             inkscape:connector-curvature="0"
             id="path4834"
             d="m 1948,1587.3622 13,0 c 5,-4.3334 -5,-13 -5,-13 l -8,0 c 0,0 5,8.6666 0,13 z"
             style="color:#000000;fill:#a3dce2;fill-opacity:1;fill-rule:nonzero;stroke:none;stroke-width:4;marker:none;visibility:visible;display:inline;overflow:visible;enable-background:accumulate" />
        </g>
        <path
           inkscape:connector-curvature="0"
           id="path4836"
           transform="matrix(-1,0,0,1,2198,672.36218)"
           d="m 228,887 c 0,0 -10,8.6666 -5,13 l 5,0 c 0,0 -10,8.6666 -5,13 l 15,0 c -5,-4.3334 0,-13 0,-13 -5,-4.3334 0,-13 0,-13 l -10,0 z"
           style="color:#000000;fill:#c8f0f5;fill-opacity:1;fill-rule:nonzero;stroke:none;stroke-width:4;marker:none;visibility:visible;display:inline;overflow:visible;enable-background:accumulate" />
        <path
           sodipodi:nodetypes="ccccc"
           inkscape:connector-curvature="0"
           id="path4840"
           d="m 1970,1585.3622 13,0 c 5,-4.3334 -5,-13 -5,-13 l -8,0 c 0,0 5,8.6666 0,13 z"
           style="color:#000000;fill:#f4f9ed;fill-opacity:1;fill-rule:nonzero;stroke:none;stroke-width:4;marker:none;visibility:visible;display:inline;overflow:visible;enable-background:accumulate" />
        <path
           id="path4842"
           transform="matrix(-1,0,0,1,2198,672.36218)"
           d="m 250,913 -4,5 -37,0 -5.5625,-1.40625 C 202.36725,916.30698 201,917.142 201,918.25 c 0,1 0.336,1.93198 1.40625,2.21875 l 4.625,1.15625 L 213,927 l 45,0 0,-2 0,-7 0,-5 z"
           style="color:#000000;fill:#ebe2b6;fill-opacity:1;fill-rule:nonzero;stroke:none;stroke-width:4;marker:none;visibility:visible;display:inline;overflow:visible;enable-background:accumulate"
           inkscape:connector-curvature="0"
           sodipodi:nodetypes="ccccscccccccc" />
        <path
           sodipodi:nodetypes="csccc"
           inkscape:connector-curvature="0"
           id="path4846"
           d="m 1985,1599.3622 c -3,4 -6,5 -11,5 -5,0 -29,0 -29,0 l -5,-5 z"
           style="color:#000000;fill:#b8d4bc;fill-opacity:1;fill-rule:nonzero;stroke:none;stroke-width:4;marker:none;visibility:visible;display:inline;overflow:visible;enable-background:accumulate" />
      </g>
    </g>
  </g>
</svg>
