<?xml version="1.0" encoding="UTF-8" standalone="no"?>
<!-- Created with Inkscape (http://www.inkscape.org/) -->

<svg
   xmlns:dc="http://purl.org/dc/elements/1.1/"
   xmlns:cc="http://creativecommons.org/ns#"
   xmlns:rdf="http://www.w3.org/1999/02/22-rdf-syntax-ns#"
   xmlns:svg="http://www.w3.org/2000/svg"
   xmlns="http://www.w3.org/2000/svg"
   xmlns:sodipodi="http://sodipodi.sourceforge.net/DTD/sodipodi-0.dtd"
   xmlns:inkscape="http://www.inkscape.org/namespaces/inkscape"
   width="57"
   height="54"
   id="svg5431"
   version="1.1"
   inkscape:version="0.48.5 r10040"
   sodipodi:docname="New document 32">
  <defs
     id="defs5433" />
  <sodipodi:namedview
     id="base"
     pagecolor="#ffffff"
     bordercolor="#666666"
     borderopacity="1.0"
     inkscape:pageopacity="0.0"
     inkscape:pageshadow="2"
     inkscape:zoom="0.35"
     inkscape:cx="85"
     inkscape:cy="-82.285697"
     inkscape:document-units="px"
     inkscape:current-layer="layer1"
     showgrid="true"
     fit-margin-top="0"
     fit-margin-left="0"
     fit-margin-right="0"
     fit-margin-bottom="0"
     inkscape:window-width="1041"
     inkscape:window-height="642"
     inkscape:window-x="106"
     inkscape:window-y="20"
     inkscape:window-maximized="0">
    <inkscape:grid
       type="xygrid"
       id="grid5439"
       empspacing="5"
       visible="true"
       enabled="true"
       snapvisiblegridlinesonly="true"
       originx="-270px"
       originy="-487.99998px" />
  </sodipodi:namedview>
  <metadata
     id="metadata5436">
    <rdf:RDF>
      <cc:Work
         rdf:about="">
        <dc:format>image/svg+xml</dc:format>
        <dc:type
           rdf:resource="http://purl.org/dc/dcmitype/StillImage" />
        <dc:title></dc:title>
      </cc:Work>
    </rdf:RDF>
  </metadata>
  <g
     inkscape:label="Layer 1"
     inkscape:groupmode="layer"
     id="layer1"
     transform="translate(-270,-510.3622)">
    <g
       transform="translate(-1640,-1050)"
       id="g5388">
      <g
         id="g5125">
        <g
           id="g4806"
           transform="translate(-30,10)">
          <g
             transform="translate(10,0)"
             id="g4753">
            <rect
               style="color:#000000;fill:#d4cb9e;fill-opacity:1;fill-rule:nonzero;stroke:none;stroke-width:4;marker:none;visibility:visible;display:inline;overflow:visible;enable-background:accumulate"
               id="rect4749"
               width="3"
               height="17.000004"
               x="1965"
               y="1577.3622"
               rx="1.5"
               ry="1.5000001" />
            <rect
               ry="1.5"
               rx="1.5"
               y="1559.3622"
               x="1956"
               height="35"
               width="3"
               id="rect4751"
               style="color:#000000;fill:#d4cb9e;fill-opacity:1;fill-rule:nonzero;stroke:none;stroke-width:4;marker:none;visibility:visible;display:inline;overflow:visible;enable-background:accumulate" />
            <rect
               style="color:#000000;fill:#d4cb9e;fill-opacity:1;fill-rule:nonzero;stroke:none;stroke-width:4;marker:none;visibility:visible;display:inline;overflow:visible;enable-background:accumulate"
               id="rect4770"
               width="3"
               height="16.921299"
               x="1947"
               y="1577.4409"
               rx="1.5"
               ry="1.5000001" />
          </g>
          <g
             transform="translate(4,-2)"
             id="g4763">
            <path
               sodipodi:nodetypes="ccccc"
               inkscape:connector-curvature="0"
               id="path4759"
               d="m 1948,1587.3622 13,0 c 5,-4.3334 -5,-13 -5,-13 l -8,0 c 0,0 5,8.6666 0,13 z"
               style="color:#000000;fill:#a3dce2;fill-opacity:1;fill-rule:nonzero;stroke:none;stroke-width:4;marker:none;visibility:visible;display:inline;overflow:visible;enable-background:accumulate" />
          </g>
          <path
             inkscape:connector-curvature="0"
             style="color:#000000;fill:#c8f0f5;fill-opacity:1;fill-rule:nonzero;stroke:none;stroke-width:4;marker:none;visibility:visible;display:inline;overflow:visible;enable-background:accumulate"
             d="m 170,917 c 0,0 5,8.6666 0,13 0,0 5,8.6666 0,13 l 15,0 c 5,-4.3334 -5,-13 -5,-13 l 5,0 c 5,-4.3334 -5,-13 -5,-13 l -10,0 z"
             transform="translate(1790,642.36218)"
             id="path4745" />
          <path
             sodipodi:nodetypes="ccccc"
             inkscape:connector-curvature="0"
             id="path4727"
             d="m 1970,1585.3622 13,0 c 5,-4.3334 -5,-13 -5,-13 l -8,0 c 0,0 5,8.6666 0,13 z"
             style="color:#000000;fill:#f4f9ed;fill-opacity:1;fill-rule:nonzero;stroke:none;stroke-width:4;marker:none;visibility:visible;display:inline;overflow:visible;enable-background:accumulate" />
          <path
             sodipodi:nodetypes="cccccccsccccc"
             inkscape:connector-curvature="0"
             style="color:#000000;fill:#ebe2b6;fill-opacity:1;fill-rule:nonzero;stroke:none;stroke-width:4;marker:none;visibility:visible;display:inline;overflow:visible;enable-background:accumulate"
             d="m 150,943 0,5 0,7 0,2 45,0 5.96875,-5.375 4.625,-1.15625 C 206.664,950.18198 207,949.49097 207,948.35355 c 0,-1.108 -1.18562,-2.09524 -2.4375,-1.7598 L 199,948 l -37,0 -4,-5 z"
             transform="translate(1790,642.36218)"
             id="rect4767" />
          <path
             sodipodi:nodetypes="csccc"
             inkscape:connector-curvature="0"
             id="path4723"
             d="m 1985,1599.3622 c -3,4 -6,5 -11,5 -5,0 -29,0 -29,0 l -5,-5 z"
             style="color:#000000;fill:#b8d4bc;fill-opacity:1;fill-rule:nonzero;stroke:none;stroke-width:4;marker:none;visibility:visible;display:inline;overflow:visible;enable-background:accumulate" />
        </g>
        <path
           inkscape:connector-curvature="0"
           style="color:#000000;fill:#a3dce2;fill-opacity:1;fill-rule:nonzero;stroke:none;stroke-width:4;marker:none;visibility:visible;display:inline;overflow:visible;enable-background:accumulate"
           d="m 1941.0313,1570.3622 -7.0313,2 c 4.918,4.0983 7.8402,4.8355 12.0313,4.9687 -0.9736,-2.7996 -3.558,-5.5552 -5,-6.9687 z"
           id="path4747-7" />
        <path
           style="color:#000000;fill:#5c4d42;fill-opacity:1;fill-rule:nonzero;stroke:none;stroke-width:2;marker:none;visibility:visible;display:inline;overflow:visible;enable-background:accumulate"
           d="m 1934,1561.3622 c 0,-1 1,-1 1,-1 l 20,0 -3,6.5 3,6.5 -20,0 c 0,0 -1,0 -1,-1 0,-3.6667 0,-11 0,-11 z"
           id="rect4850"
           inkscape:connector-curvature="0"
           sodipodi:nodetypes="cccccccc" />
        <path
           style="color:#000000;fill:#f4f9ed;fill-opacity:1;fill-rule:nonzero;stroke:none;stroke-width:2;marker:none;visibility:visible;display:inline;overflow:visible;enable-background:accumulate"
           d="m 1943.5,1562.3622 c -1.5629,0 -2.8629,0.9572 -3.3125,2.25 -0.056,0.098 -0.096,0.2003 -0.125,0.3125 -0.027,0.1038 -0.062,0.2001 -0.062,0.3125 l 0,0.3125 0,3.5312 c 0,0.7112 0.5701,1.2813 1.2813,1.2813 l 4.4375,0 c 0.7111,0 1.2812,-0.5701 1.2812,-1.2813 l 0,-3.5312 0,-0.3125 c 0,-0.1124 -0.036,-0.2087 -0.062,-0.3125 -0.029,-0.1122 -0.069,-0.2146 -0.125,-0.3125 -0.4496,-1.2928 -1.7496,-2.25 -3.3125,-2.25 z m -6.5,2 0,2 2,1 0,-2 -2,-1 z m 2,3 -2,1 0,2 2,-1 0,-2 z m 11,-3 -2,1 0,2 2,-1 0,-2 z m -2,3 0,2 2,1 0,-2 -2,-1 z m -6,-2 c 0.5523,0 1,0.4477 1,1 0,0.5523 -0.4477,1 -1,1 -0.5523,0 -1,-0.4477 -1,-1 0,-0.5523 0.4477,-1 1,-1 z m 3,0 c 0.5523,0 1,0.4477 1,1 0,0.5523 -0.4477,1 -1,1 -0.5523,0 -1,-0.4477 -1,-1 0,-0.5523 0.4477,-1 1,-1 z m -3.5,3 c 0.277,0 0.5,0.223 0.5,0.5 0,0.277 -0.223,0.5 -0.5,0.5 -0.277,0 -0.5,-0.223 -0.5,-0.5 0,-0.277 0.223,-0.5 0.5,-0.5 z m 2,0 c 0.277,0 0.5,0.223 0.5,0.5 0,0.277 -0.223,0.5 -0.5,0.5 -0.277,0 -0.5,-0.223 -0.5,-0.5 0,-0.277 0.223,-0.5 0.5,-0.5 z m 2,0 c 0.277,0 0.5,0.223 0.5,0.5 0,0.277 -0.223,0.5 -0.5,0.5 -0.277,0 -0.5,-0.223 -0.5,-0.5 0,-0.277 0.223,-0.5 0.5,-0.5 z"
           id="path4969"
           inkscape:connector-curvature="0" />
      </g>
    </g>
  </g>
</svg>
