<?xml version="1.0" encoding="UTF-8" standalone="no"?>
<!-- Created with Inkscape (http://www.inkscape.org/) -->

<svg
   xmlns:dc="http://purl.org/dc/elements/1.1/"
   xmlns:cc="http://creativecommons.org/ns#"
   xmlns:rdf="http://www.w3.org/1999/02/22-rdf-syntax-ns#"
   xmlns:svg="http://www.w3.org/2000/svg"
   xmlns="http://www.w3.org/2000/svg"
   xmlns:sodipodi="http://sodipodi.sourceforge.net/DTD/sodipodi-0.dtd"
   xmlns:inkscape="http://www.inkscape.org/namespaces/inkscape"
   width="56"
   height="44"
   id="svg5231"
   version="1.1"
   inkscape:version="0.48.5 r10040"
   sodipodi:docname="submarine.svg">
  <defs
     id="defs5233" />
  <sodipodi:namedview
     id="base"
     pagecolor="#ffffff"
     bordercolor="#666666"
     borderopacity="1.0"
     inkscape:pageopacity="0.0"
     inkscape:pageshadow="2"
     inkscape:zoom="2.8284271"
     inkscape:cx="10.805161"
     inkscape:cy="11.040441"
     inkscape:document-units="px"
     inkscape:current-layer="layer1"
     showgrid="true"
     fit-margin-top="0"
     fit-margin-left="0"
     fit-margin-right="0"
     fit-margin-bottom="0"
     inkscape:window-width="900"
     inkscape:window-height="606"
     inkscape:window-x="106"
     inkscape:window-y="20"
     inkscape:window-maximized="0">
    <inkscape:grid
       type="xygrid"
       id="grid5239"
       empspacing="5"
       visible="true"
       enabled="true"
       snapvisiblegridlinesonly="true"
       originx="-189px"
       originy="-695px" />
  </sodipodi:namedview>
  <metadata
     id="metadata5236">
    <rdf:RDF>
      <cc:Work
         rdf:about="">
        <dc:format>image/svg+xml</dc:format>
        <dc:type
           rdf:resource="http://purl.org/dc/dcmitype/StillImage" />
        <dc:title></dc:title>
      </cc:Work>
    </rdf:RDF>
  </metadata>
  <g
     inkscape:label="Layer 1"
     inkscape:groupmode="layer"
     id="layer1"
     transform="translate(-189,-313.36218)">
    <g
       transform="translate(-1600,-1250)"
       id="g5206">
      <path
         transform="matrix(1.4545537,0,0,1.9999816,1724.7267,-280.62071)"
         d="m 71,929.5 c 0,0.82843 -2.462434,1.5 -5.5,1.5 -3.037566,0 -5.5,-0.67157 -5.5,-1.5 0,-0.82843 2.462434,-1.5 5.5,-1.5 3.037566,0 5.5,0.67157 5.5,1.5 z"
         sodipodi:ry="1.5"
         sodipodi:rx="5.5"
         sodipodi:cy="929.5"
         sodipodi:cx="65.5"
         id="path5117"
         style="color:#000000;fill:#b1ded2;fill-opacity:1;fill-rule:nonzero;stroke:none;stroke-width:2;marker:none;visibility:visible;display:inline;overflow:visible;enable-background:accumulate"
         sodipodi:type="arc" />
      <g
         id="g4688">
        <path
           inkscape:connector-curvature="0"
           id="path4661"
           transform="translate(1760,652.36218)"
           d="m 68,911 c -0.553999,0 -1,0.446 -1,1 l 0,1 -2.6875,0 c -0.054,-0.01 -0.1493,-0.0282 -0.1875,-0.0312 -0.153,-0.014 -0.23645,0 -0.34375,0 -0.2144,0.01 -0.44765,0.0205 -0.71875,0.0625 -0.5423,0.085 -1.22855,0.27905 -1.96875,0.65625 C 59.61315,914.4419 58,916.3333 58,919 l 0,16 4,0 0,-16 c 0,-1.3333 0.38685,-1.4853 0.90625,-1.75 0.2598,-0.1323 0.57355,-0.2174 0.78125,-0.25 l 0.3125,0 3,0 0,1 c 0,0.554 0.446001,1 1,1 l 4,0 c 0.553999,0 1,-0.446 1,-1 l 0,-6 c 0,-0.554 -0.446001,-1 -1,-1 l -4,0 z"
           style="font-size:medium;font-style:normal;font-variant:normal;font-weight:normal;font-stretch:normal;text-indent:0;text-align:start;text-decoration:none;line-height:normal;letter-spacing:normal;word-spacing:normal;text-transform:none;direction:ltr;block-progression:tb;writing-mode:lr-tb;text-anchor:start;baseline-shift:baseline;color:#000000;fill:#e7cc78;fill-opacity:1;stroke:none;stroke-width:4;marker:none;visibility:visible;display:inline;overflow:visible;enable-background:accumulate;font-family:Sans;-inkscape-font-specification:Sans" />
        <path
           inkscape:connector-curvature="0"
           id="rect3790"
           transform="translate(1760,652.36218)"
           d="m 58,928 0,4 c -1.107999,0 -2,0.892 -2,2 l 0,1 -11,0 c -4.364242,0 -8.066107,2.77307 -9.4375,6.65625 L 31,938 l -2,0 0,14 2,0 4.5625,-3.65625 C 36.933893,952.22693 40.635758,955 45,955 l 30,0 c 5.54,0 10,-4.46 10,-10 0,-5.54 -4.46,-10 -10,-10 l -11,0 0,-1 c 0,-1.108 -0.892001,-2 -2,-2 l 0,-4 -4,0 z"
           style="color:#000000;fill:#b0c69b;fill-opacity:1;fill-rule:nonzero;stroke:none;stroke-width:1;marker:none;visibility:visible;display:inline;overflow:visible;enable-background:accumulate" />
      </g>
      <path
         inkscape:connector-curvature="0"
         id="path4657"
         transform="translate(1760,652.36218)"
         d="m 45,942 c -1.656854,0 -3,1.34315 -3,3 0,1.65685 1.343146,3 3,3 1.656854,0 3,-1.34315 3,-3 0,-1.65685 -1.343146,-3 -3,-3 z m 10,0 c -1.656854,0 -3,1.34315 -3,3 0,1.65685 1.343146,3 3,3 1.656854,0 3,-1.34315 3,-3 0,-1.65685 -1.343146,-3 -3,-3 z m 10,0 c -1.656854,0 -3,1.34315 -3,3 0,1.65685 1.343146,3 3,3 1.656854,0 3,-1.34315 3,-3 0,-1.65685 -1.343146,-3 -3,-3 z m 10,0 c -1.656854,0 -3,1.34315 -3,3 0,1.65685 1.343146,3 3,3 1.656854,0 3,-1.34315 3,-3 0,-1.65685 -1.343146,-3 -3,-3 z"
         style="color:#000000;fill:#66acb5;fill-opacity:1;fill-rule:nonzero;stroke:none;stroke-width:1;marker:none;visibility:visible;display:inline;overflow:visible;enable-background:accumulate" />
      <path
         sodipodi:end="3.1415927"
         sodipodi:start="0"
         sodipodi:type="arc"
         style="color:#000000;fill:#b1ded2;fill-opacity:1;fill-rule:nonzero;stroke:none;stroke-width:2;marker:none;visibility:visible;display:inline;overflow:visible;enable-background:accumulate"
         id="path5119"
         sodipodi:cx="65.5"
         sodipodi:cy="929.5"
         sodipodi:rx="5.5"
         sodipodi:ry="1.5"
         d="m 71,929.5 c 0,0.82843 -2.462434,1.5 -5.5,1.5 -3.037566,0 -5.5,-0.67157 -5.5,-1.5 0,0 0,0 0,0 l 5.5,0 z"
         transform="matrix(1.4545537,0,0,1.9999816,1724.7267,-280.62071)" />
    </g>
  </g>
</svg>
