<?xml version="1.0" encoding="UTF-8" standalone="no"?>
<!-- Created with Inkscape (http://www.inkscape.org/) -->

<svg
   xmlns:dc="http://purl.org/dc/elements/1.1/"
   xmlns:cc="http://creativecommons.org/ns#"
   xmlns:rdf="http://www.w3.org/1999/02/22-rdf-syntax-ns#"
   xmlns:svg="http://www.w3.org/2000/svg"
   xmlns="http://www.w3.org/2000/svg"
   xmlns:sodipodi="http://sodipodi.sourceforge.net/DTD/sodipodi-0.dtd"
   xmlns:inkscape="http://www.inkscape.org/namespaces/inkscape"
   width="95"
   height="55.000004"
   id="svg9124"
   version="1.1"
   inkscape:version="0.48.2 r9819"
   sodipodi:docname="New document 91">
  <defs
     id="defs9126" />
  <sodipodi:namedview
     id="base"
     pagecolor="#ffffff"
     bordercolor="#666666"
     borderopacity="1.0"
     inkscape:pageopacity="0.0"
     inkscape:pageshadow="2"
     inkscape:zoom="0.35"
     inkscape:cx="-4.6428714"
     inkscape:cy="304.64285"
     inkscape:document-units="px"
     inkscape:current-layer="layer1"
     showgrid="false"
     fit-margin-top="0"
     fit-margin-left="0"
     fit-margin-right="0"
     fit-margin-bottom="0"
     inkscape:window-width="811"
     inkscape:window-height="587"
     inkscape:window-x="656"
     inkscape:window-y="129"
     inkscape:window-maximized="0" />
  <metadata
     id="metadata9129">
    <rdf:RDF>
      <cc:Work
         rdf:about="">
        <dc:format>image/svg+xml</dc:format>
        <dc:type
           rdf:resource="http://purl.org/dc/dcmitype/StillImage" />
        <dc:title></dc:title>
      </cc:Work>
    </rdf:RDF>
  </metadata>
  <g
     inkscape:label="Layer 1"
     inkscape:groupmode="layer"
     id="layer1"
     transform="translate(-378.2143,-627.71932)">
    <g
       transform="translate(-1538.7857,-154.64286)"
       id="g8371">
      <path
         sodipodi:nodetypes="cccsscc"
         inkscape:connector-curvature="0"
         id="rect4361-5"
         d="m 1934,807.36218 61,0 0,27 c 0,0 0,3 -3,3 -8.452,0 -38.4273,0 -55,0 -3,0 -3,-2.99999 -3,-2.99999 z"
         style="color:#000000;fill:#f4f9ed;fill-opacity:1;fill-rule:nonzero;stroke:none;stroke-width:2;marker:none;visibility:visible;display:inline;overflow:visible;enable-background:accumulate" />
      <path
         sodipodi:nodetypes="ssscs"
         inkscape:connector-curvature="0"
         id="path6649"
         d="m 1977,794.86218 c 0,6.90356 -5.5964,12.5 -12.5,12.5 -6.9036,0 -12.5,-5.59644 -12.5,-12.5 0,-6.90356 12.5,-12.5 12.5,-12.5 0,0 12.5,5.59644 12.5,12.5 z"
         style="color:#000000;fill:#c8f0f5;fill-opacity:1;fill-rule:nonzero;stroke:none;stroke-width:6;marker:none;visibility:visible;display:inline;overflow:visible;enable-background:accumulate" />
      <path
         style="color:#000000;fill:#f4f9ed;fill-opacity:1;fill-rule:nonzero;stroke:none;stroke-width:6;marker:none;visibility:visible;display:inline;overflow:visible;enable-background:accumulate"
         d="m 1921.5,807.375 c -2.5274,0.25514 -4.5,2.40313 -4.5,5 l 0,9 0,11 0,4.98718 10,0 0,-4.98718 0,-11 0,-9 c 0,-2.77 -2.23,-5 -5,-5 -0.1731,0 -0.3315,-0.017 -0.5,0 z"
         id="rect6651"
         inkscape:connector-curvature="0"
         sodipodi:nodetypes="ssccccccsss" />
      <path
         style="color:#000000;fill:#f4f9ed;fill-opacity:1;fill-rule:nonzero;stroke:none;stroke-width:6;marker:none;visibility:visible;display:inline;overflow:visible;enable-background:accumulate"
         d="m 2006.5,807.375 c -2.5274,0.25514 -4.5,2.40313 -4.5,5 l 0,5 0,15 0,4.98718 10,0 0,-4.98718 0,-15 0,-5 c 0,-2.77 -2.23,-5 -5,-5 -0.1731,0 -0.3315,-0.017 -0.5,0 z"
         id="rect6655"
         inkscape:connector-curvature="0"
         sodipodi:nodetypes="ssccccccsss" />
      <rect
         y="795.36218"
         x="1952"
         height="12"
         width="25"
         id="rect6659"
         style="color:#000000;fill:#c8f0f5;fill-opacity:1;fill-rule:nonzero;stroke:none;stroke-width:6;marker:none;visibility:visible;display:inline;overflow:visible;enable-background:accumulate" />
      <path
         style="color:#000000;fill:#c8f0f5;fill-opacity:1;fill-rule:nonzero;stroke:none;stroke-width:6;marker:none;visibility:visible;display:inline;overflow:visible;enable-background:accumulate"
         d="m 1949,799.86218 c 0,4.14214 -3.3578,7.5 -7.5,7.5 -4.1422,0 -7.5,-3.35786 -7.5,-7.5 0,-4.14213 7.5,-7.5 7.5,-7.5 0,0 7.5,3.35787 7.5,7.5 z"
         id="path6662"
         inkscape:connector-curvature="0"
         sodipodi:nodetypes="ssscs" />
      <rect
         style="color:#000000;fill:#c8f0f5;fill-opacity:1;fill-rule:nonzero;stroke:none;stroke-width:6;marker:none;visibility:visible;display:inline;overflow:visible;enable-background:accumulate"
         id="rect6664"
         width="15"
         height="7.4999995"
         x="1934"
         y="799.86218" />
      <path
         sodipodi:nodetypes="ssscs"
         inkscape:connector-curvature="0"
         id="path6666"
         d="m 1995,799.86218 c 0,4.14214 -3.3578,7.5 -7.5,7.5 -4.1422,0 -7.5,-3.35786 -7.5,-7.5 0,-4.14213 7.5,-7.5 7.5,-7.5 0,0 7.5,3.35787 7.5,7.5 z"
         style="color:#000000;fill:#c8f0f5;fill-opacity:1;fill-rule:nonzero;stroke:none;stroke-width:6;marker:none;visibility:visible;display:inline;overflow:visible;enable-background:accumulate" />
      <rect
         y="799.86218"
         x="1980"
         height="7.4999995"
         width="15"
         id="rect6668"
         style="color:#000000;fill:#c8f0f5;fill-opacity:1;fill-rule:nonzero;stroke:none;stroke-width:6;marker:none;visibility:visible;display:inline;overflow:visible;enable-background:accumulate" />
      <path
         style="color:#000000;fill:#c9dbb0;fill-opacity:1;fill-rule:nonzero;stroke:none;stroke-width:6;marker:none;visibility:visible;display:inline;overflow:visible;enable-background:accumulate"
         d="m 1980,827.36218 c 0,8.28427 -6.7157,10 -15,10 -8.2843,0 -15,-1.71573 -15,-10 0,-8.28427 7.9289,-15 15,-15 7.0711,0 15,6.71573 15,15 z"
         id="path6672"
         inkscape:connector-curvature="0"
         sodipodi:nodetypes="sssss" />
      <rect
         style="color:#000000;fill:#c9dbb0;fill-opacity:1;fill-rule:nonzero;stroke:none;stroke-width:6;marker:none;visibility:visible;display:inline;overflow:visible;enable-background:accumulate"
         id="rect6674"
         width="30"
         height="10"
         x="1950"
         y="827.36218" />
    </g>
  </g>
</svg>
