<?xml version="1.0" encoding="UTF-8" standalone="no"?>
<!-- Created with Inkscape (http://www.inkscape.org/) -->

<svg
   xmlns:dc="http://purl.org/dc/elements/1.1/"
   xmlns:cc="http://creativecommons.org/ns#"
   xmlns:rdf="http://www.w3.org/1999/02/22-rdf-syntax-ns#"
   xmlns:svg="http://www.w3.org/2000/svg"
   xmlns="http://www.w3.org/2000/svg"
   xmlns:sodipodi="http://sodipodi.sourceforge.net/DTD/sodipodi-0.dtd"
   xmlns:inkscape="http://www.inkscape.org/namespaces/inkscape"
   width="50"
   height="50"
   id="svg19588"
   version="1.1"
   inkscape:version="0.48.2 r9819"
   sodipodi:docname="ocean2.svg">
  <defs
     id="defs19590" />
  <sodipodi:namedview
     id="base"
     pagecolor="#ffffff"
     bordercolor="#666666"
     borderopacity="1.0"
     inkscape:pageopacity="0.0"
     inkscape:pageshadow="2"
     inkscape:zoom="7.9195959"
     inkscape:cx="26.885434"
     inkscape:cy="29.147875"
     inkscape:document-units="px"
     inkscape:current-layer="layer1"
     showgrid="true"
     fit-margin-top="0"
     fit-margin-left="0"
     fit-margin-right="0"
     fit-margin-bottom="0"
     inkscape:window-width="1160"
     inkscape:window-height="723"
     inkscape:window-x="20"
     inkscape:window-y="20"
     inkscape:window-maximized="0">
    <inkscape:grid
       type="xygrid"
       id="grid19611"
       empspacing="5"
       visible="true"
       enabled="true"
       snapvisiblegridlinesonly="true" />
  </sodipodi:namedview>
  <metadata
     id="metadata19593">
    <rdf:RDF>
      <cc:Work
         rdf:about="">
        <dc:format>image/svg+xml</dc:format>
        <dc:type
           rdf:resource="http://purl.org/dc/dcmitype/StillImage" />
        <dc:title></dc:title>
      </cc:Work>
    </rdf:RDF>
  </metadata>
  <g
     inkscape:label="Layer 1"
     inkscape:groupmode="layer"
     id="layer1"
     transform="translate(-310.51508,-545.78442)">
    <g
       id="g19380"
       transform="translate(-547.16241,564.09689)">
      <path
         sodipodi:nodetypes="cccccccscc"
         inkscape:connector-curvature="0"
         id="path18987"
         d="m 877.0625,19.71875 c -14.24986,0.12661 -17.34524,6.644106 -4.9375,9.96875 l 4.75,-2.875 c 0.57083,-0.322868 1.21965,-0.506702 1.875,-0.53125 0.12444,-0.0161 0.24961,-0.02651 0.375,-0.0312 0.68947,0.01883 1.3734,0.214236 1.96875,0.5625 L 882.5,27.6563 c 4.79381,-3.64521 11.01475,-6.29611 -0.59375,-7.65625 -1.63506,-0.19158 -3.25245,-0.29539 -4.84375,-0.28125 z"
         style="color:#000000;fill:#53a6bb;fill-opacity:1;fill-rule:nonzero;stroke:none;stroke-width:2;marker:none;visibility:visible;display:inline;overflow:visible;enable-background:accumulate" />
      <path
         inkscape:connector-curvature="0"
         id="path18778"
         d="m 896.1875,-17.15625 c -0.70395,-0.0168 -1.46732,0.26102 -2.15625,0.9375 -5.78771,5.68309 -9.57523,3.56651 -12.8125,10.9375 -8.34712,-5.95297 -11.60173,-1.36811 -18.625,-3.25 -3.20579,-0.85899 -5.04127,2.98595 -3.15625,5.46875 3.12331,4.11379 10.32111,7.82081 18.53125,10.9375 l 0,18.53125 a 4.1218975,4.1218975 0 0 1 0.78125,-0.125 4.1218975,4.1218975 0 0 1 0.375,-0.0312 4.1218975,4.1218975 0 0 1 1.96875,0.5625 l 4.75,2.875 4.78125,-2.875 a 4.1218975,4.1218975 0 0 1 0.25,-0.125 4.1218975,4.1218975 0 0 1 0.375,-0.15625 4.1218975,4.1218975 0 0 1 0.40625,-0.125 4.1218975,4.1218975 0 0 1 0.40625,-0.0937 4.1218975,4.1218975 0 0 1 0.8125,-0.0625 4.1218975,4.1218975 0 0 1 0.40625,0.0312 4.1218975,4.1218975 0 0 1 1.1875,0.34375 4.1218975,4.1218975 0 0 1 0.375,0.1875 l 4.78125,2.875 4.75,-2.875 a 4.1218975,4.1218975 0 0 1 1.84375,-0.5625 l -15.625,-19.75 c 8.5331,-8.94204 8.9375,-19.5625 8.9375,-19.5625 0.59495,-1.46267 -1.23188,-4.04314 -3.34375,-4.09375 z"
         style="color:#000000;fill:#c8f0f5;fill-opacity:1;fill-rule:nonzero;stroke:none;stroke-width:2;marker:none;visibility:visible;display:inline;overflow:visible;enable-background:accumulate" />
      <path
         sodipodi:nodetypes="cscccccc"
         id="path18778-5"
         d="m 896.1875,-17.15625 c -0.70395,-0.0168 -1.46732,0.26102 -2.15625,0.9375 -5.64794,5.54585 -9.40673,3.68156 -12.59375,10.4375 l -0.23067,0.49489 9.38632,11.78551 0.0631,-0.0929 c 8.45666,-8.9247 8.875,-19.46875 8.875,-19.46875 0.59495,-1.46267 -1.23188,-4.04314 -3.34375,-4.09375 z"
         style="color:#000000;fill:#9edae3;fill-opacity:1;fill-rule:nonzero;stroke:none;stroke-width:2;marker:none;visibility:visible;display:inline;overflow:visible;enable-background:accumulate"
         inkscape:connector-curvature="0" />
      <path
         id="path18778-2"
         d="m 877.96875,7.8749826 0,18.5312504 a 4.1218975,4.1218975 0 0 1 0.78125,-0.125 4.1218975,4.1218975 0 0 1 0.375,-0.03125 4.1218975,4.1218975 0 0 1 1.96875,0.5625 l 4.75,2.875 1.46875,-0.875 -9.34375,-20.9375004 z"
         style="color:#000000;fill:#f4f9ed;fill-opacity:1;fill-rule:nonzero;stroke:none;stroke-width:2;marker:none;visibility:visible;display:inline;overflow:visible;enable-background:accumulate"
         inkscape:connector-curvature="0" />
    </g>
  </g>
</svg>
