<?xml version="1.0" encoding="UTF-8" standalone="no"?>
<!-- Created with Inkscape (http://www.inkscape.org/) -->

<svg
   xmlns:dc="http://purl.org/dc/elements/1.1/"
   xmlns:cc="http://creativecommons.org/ns#"
   xmlns:rdf="http://www.w3.org/1999/02/22-rdf-syntax-ns#"
   xmlns:svg="http://www.w3.org/2000/svg"
   xmlns="http://www.w3.org/2000/svg"
   xmlns:sodipodi="http://sodipodi.sourceforge.net/DTD/sodipodi-0.dtd"
   xmlns:inkscape="http://www.inkscape.org/namespaces/inkscape"
   width="744.09448819"
   height="1052.3622047"
   id="svg9116"
   version="1.1"
   inkscape:version="0.48.1 r9760"
   sodipodi:docname="New document 133">
  <defs
     id="defs9118" />
  <sodipodi:namedview
     id="base"
     pagecolor="#ffffff"
     bordercolor="#666666"
     borderopacity="1.0"
     inkscape:pageopacity="0.0"
     inkscape:pageshadow="2"
     inkscape:zoom="7.858048"
     inkscape:cx="396.47418"
     inkscape:cy="627.20172"
     inkscape:document-units="px"
     inkscape:current-layer="layer1"
     showgrid="false"
     inkscape:snap-bbox="true"
     inkscape:snap-nodes="false">
    <inkscape:grid
       type="xygrid"
       id="grid9141" />
  </sodipodi:namedview>
  <metadata
     id="metadata9121">
    <rdf:RDF>
      <cc:Work
         rdf:about="">
        <dc:format>image/svg+xml</dc:format>
        <dc:type
           rdf:resource="http://purl.org/dc/dcmitype/StillImage" />
        <dc:title></dc:title>
      </cc:Work>
    </rdf:RDF>
  </metadata>
  <g
     inkscape:label="Layer 1"
     inkscape:groupmode="layer"
     id="layer1">
    <g
       id="g9145">
      <g
         transform="translate(-593.72002,336.45594)"
         id="g5495">
        <path
           inkscape:connector-curvature="0"
           id="path19203"
           d="m 1011.1293,99.073835 c -0.9125,7.847265 -5.5662,9.307225 -9.1247,9.672255 -3.55882,0.36493 -0.2738,-10.584709 -0.2738,-10.584709 z"
           style="color:#000000;fill:#90d1c5;fill-opacity:1;fill-rule:nonzero;stroke:none;stroke-width:1.99950373;marker:none;visibility:visible;display:inline;overflow:visible;enable-background:accumulate" />
        <path
           inkscape:connector-curvature="0"
           style="color:#000000;fill:#f4f9ed;fill-opacity:1;fill-rule:nonzero;stroke:none;stroke-width:2;marker:none;visibility:visible;display:inline;overflow:visible;enable-background:accumulate"
           d="m 1007.0938,68.84375 c -2.77,0.0276 -5.625,0.596955 -8.37505,1.84375 -17.51674,7.941758 -33.4187,9.571865 -39.875,9.90625 L 953.375,71.15625 949.75,73.25 951,83.78125 l -6.34375,8.5 2.09375,3.625 11.40625,-6.59375 c 5.117,5.397627 14.79568,12.80239 29.8125,13.34375 -0.70216,3.21574 -1.31934,7.86608 1.03125,7.625 3.25323,-0.33367 7.42389,-1.60515 8.8125,-7.8125 15.1042,-0.84453 31.1323,-4.845886 26.9063,-21.75 -1.7581,-7.032308 -9.3151,-11.957813 -17.625,-11.875 z"
           id="path19112-2-5" />
        <path
           style="color:#000000;fill:#c8f0f5;fill-opacity:1;fill-rule:nonzero;stroke:none;stroke-width:2;marker:none;visibility:visible;display:inline;overflow:visible;enable-background:accumulate"
           d="m 983.0281,76.76591 20,-13"
           id="path19199-1"
           inkscape:connector-curvature="0" />
        <path
           sodipodi:type="arc"
           style="color:#000000;fill:#53a6bb;fill-opacity:1;fill-rule:nonzero;stroke:none;stroke-width:2;marker:none;visibility:visible;display:inline;overflow:visible;enable-background:accumulate"
           id="path16465-8-7-2"
           sodipodi:cx="932.5"
           sodipodi:cy="84.862183"
           sodipodi:rx="2.5"
           sodipodi:ry="2.5"
           d="m 935,84.862183 c 0,1.380711 -1.11929,2.5 -2.5,2.5 -1.38071,0 -2.5,-1.119289 -2.5,-2.5 0,-1.380712 1.11929,-2.5 2.5,-2.5 1.38071,0 2.5,1.119288 2.5,2.5 z"
           transform="matrix(0.96568615,0.25875483,0.25875483,-0.96568615,79.759185,-67.932402)" />
        <path
           inkscape:connector-curvature="0"
           style="opacity:0.5;color:#000000;fill:#6ec4b8;fill-opacity:1;fill-rule:nonzero;stroke:none;stroke-width:2;marker:none;visibility:visible;display:inline;overflow:visible;enable-background:accumulate"
           d="m 978.75005,82.906247 c -0.52207,-0.0044 -1.0448,0.09166 -1.53125,0.28125 -0.22738,0.08458 -0.44726,0.189292 -0.65625,0.3125 -0.0104,-3.9e-5 -0.0208,-3.9e-5 -0.0312,0 l -4.75,2.875 -4.7813,-2.875 c -0.12171,-0.06881 -0.24693,-0.131414 -0.375,-0.1875 -0.37559,-0.173301 -0.77741,-0.289618 -1.1875,-0.34375 -0.13479,-0.0171 -0.27043,-0.02754 -0.40625,-0.03125 -0.27201,-0.0061 -0.54462,0.01492 -0.8125,0.0625 -0.13688,0.02437 -0.27253,0.05567 -0.40625,0.09375 -0.13745,0.03464 -0.2731,0.07639 -0.40625,0.125 -0.12747,0.04588 -0.25267,0.09805 -0.375,0.15625 -0.0847,0.03883 -0.16811,0.08052 -0.25,0.125 l -4.78125,2.875 -4.75,-2.875 c -0.59535,-0.348264 -1.27928,-0.543673 -1.96875,-0.5625 -0.12539,0.0047 -0.25056,0.01513 -0.375,0.03125 l 0.0937,0.8125 -6.34375,8.5 2.09375,3.625001 11.40625,-6.593751 c 5.117,5.397628 14.79568,12.802393 29.8125,13.343753 -0.70216,3.21574 -1.31934,7.86608 1.03125,7.625 3.25323,-0.33367 7.42389,-1.60515 8.8125,-7.8125 13.5534,-0.75781 27.854,-4.054487 27.5938,-16.937503 l -3.3751,-2.03125 c -0.1217,-0.06881 -0.2468,-0.131414 -0.375,-0.1875 -0.3755,-0.173292 -0.7772,-0.289608 -1.1874,-0.34375 -0.1349,-0.01711 -0.2705,-0.02754 -0.4063,-0.03125 -0.272,-0.0061 -0.5446,0.01492 -0.8125,0.0625 -0.1368,0.02437 -0.2726,0.05568 -0.4062,0.09375 -0.1376,0.03464 -0.2731,0.07638 -0.4063,0.125 -0.1274,0.04588 -0.2527,0.09805 -0.375,0.15625 -0.085,0.03883 -0.1681,0.08052 -0.25,0.125 l -4.7813,2.875 -4.7812,-2.875 c -0.1013,-0.06707 -0.2056,-0.129647 -0.3125,-0.1875 -0.021,-0.01059 -0.043,-0.02101 -0.062,-0.03125 -0.1127,-0.04673 -0.2273,-0.08845 -0.3438,-0.125 -0.01,-3.9e-5 -0.021,-3.9e-5 -0.031,0 -0.1127,-0.04673 -0.2275,-0.08845 -0.3439,-0.125 -0.021,-1.57e-4 -0.042,-1.57e-4 -0.062,0 -0.042,-0.01107 -0.083,-0.02148 -0.125,-0.03125 -0.073,-0.01237 -0.1457,-0.02279 -0.2189,-0.03125 -0.9213,-0.133209 -1.8861,0.05753 -2.6875,0.53125 l -4.74995,2.875 -4.78125,-2.875 c -0.12171,-0.06881 -0.24693,-0.131414 -0.375,-0.1875 -0.37559,-0.173301 -0.77741,-0.289618 -1.1875,-0.34375 -0.13479,-0.0171 -0.27043,-0.02754 -0.40625,-0.03125 -0.27201,-0.0061 -0.54462,0.01492 -0.8125,0.0625 -0.13688,0.02437 -0.27253,0.05567 -0.40625,0.09375 -0.13745,0.03464 -0.2731,0.07639 -0.40625,0.125 -0.12747,0.04588 -0.25267,0.09805 -0.375,0.15625 -0.0847,0.03883 -0.16811,0.08052 -0.25,0.125 l -4.78125,2.875 -4.75,-2.875 c -0.12171,-0.06881 -0.24693,-0.131414 -0.375,-0.1875 -0.0207,-0.01059 -0.0416,-0.02101 -0.0625,-0.03125 -0.10241,-0.0459 -0.20669,-0.08761 -0.3125,-0.125 -0.0208,-1.58e-4 -0.0417,-1.58e-4 -0.0625,0 -0.11266,-0.04672 -0.22739,-0.08845 -0.34375,-0.125 -0.0208,-1.58e-4 -0.0417,-1.58e-4 -0.0625,0 -0.0415,-0.01107 -0.0832,-0.02148 -0.125,-0.03125 -0.0726,-0.01237 -0.14557,-0.02279 -0.21875,-0.03125 -0.15488,-0.02978 -0.31148,-0.05066 -0.46875,-0.0625 z"
           id="path19112-2-5-0" />
      </g>
      <rect
         y="397.36218"
         x="350"
         height="50"
         width="85"
         id="rect9143"
         style="color:#000000;fill:none;stroke:none;stroke-width:4;marker:none;visibility:visible;display:inline;overflow:visible;enable-background:accumulate" />
    </g>
  </g>
</svg>
