<?xml version="1.0" encoding="UTF-8" standalone="no"?>
<!-- Created with Inkscape (http://www.inkscape.org/) -->

<svg
   xmlns:dc="http://purl.org/dc/elements/1.1/"
   xmlns:cc="http://creativecommons.org/ns#"
   xmlns:rdf="http://www.w3.org/1999/02/22-rdf-syntax-ns#"
   xmlns:svg="http://www.w3.org/2000/svg"
   xmlns="http://www.w3.org/2000/svg"
   xmlns:sodipodi="http://sodipodi.sourceforge.net/DTD/sodipodi-0.dtd"
   xmlns:inkscape="http://www.inkscape.org/namespaces/inkscape"
   width="75"
   height="55"
   id="svg19474"
   version="1.1"
   inkscape:version="0.48.2 r9819"
   sodipodi:docname="ocean1.svg">
  <defs
     id="defs19476" />
  <sodipodi:namedview
     id="base"
     pagecolor="#ffffff"
     bordercolor="#666666"
     borderopacity="1.0"
     inkscape:pageopacity="0.0"
     inkscape:pageshadow="2"
     inkscape:zoom="5.6568542"
     inkscape:cx="38.064491"
     inkscape:cy="29.570214"
     inkscape:document-units="px"
     inkscape:current-layer="layer1"
     showgrid="true"
     fit-margin-bottom="0"
     fit-margin-top="0"
     fit-margin-left="0"
     fit-margin-right="0"
     inkscape:window-width="1265"
     inkscape:window-height="710"
     inkscape:window-x="550"
     inkscape:window-y="6"
     inkscape:window-maximized="0">
    <inkscape:grid
       type="xygrid"
       id="grid19550"
       empspacing="5"
       visible="true"
       enabled="true"
       snapvisiblegridlinesonly="true" />
  </sodipodi:namedview>
  <metadata
     id="metadata19479">
    <rdf:RDF>
      <cc:Work
         rdf:about="">
        <dc:format>image/svg+xml</dc:format>
        <dc:type
           rdf:resource="http://purl.org/dc/dcmitype/StillImage" />
        <dc:title></dc:title>
      </cc:Work>
    </rdf:RDF>
  </metadata>
  <g
     inkscape:label="Layer 1"
     inkscape:groupmode="layer"
     id="layer1"
     transform="translate(-311.74945,-525.17139)">
    <g
       transform="translate(-542.36965,354.07761)"
       id="g19464">
      <g
         transform="translate(0,120)"
         id="g19371">
        <path
           style="color:#000000;fill:#c8f0f5;fill-opacity:1;fill-rule:nonzero;stroke:none;stroke-width:2;marker:none;visibility:visible;display:inline;overflow:visible;enable-background:accumulate"
           d="m 908.875,75.125 c -2.74855,0.0701 -5.55185,0.77679 -8.1875,2.25 -16.35358,9.14096 -25.08251,10.81297 -29.375,10.75 l -5.96875,-10.3125 c 0,0 -3.31325,1.28461 -3.8125,3.28125 -0.85855,3.43355 1.4375,9.34375 1.4375,9.34375 0,0 -4.99794,3.67352 -5.78125,7.125 -0.4577,2.01672 1.53125,5 1.53125,5 L 870.3125,95.875 c 3.13953,3.28087 7.71747,7.31068 13.28125,10.125 l 4.625,-2.78125 a 4.1218975,4.1218975 0 0 1 1.875,-0.53125 4.1218975,4.1218975 0 0 1 0.375,-0.0312 4.1218975,4.1218975 0 0 1 1.96875,0.5625 l 4.75,2.875 4.78125,-2.875 a 4.1218975,4.1218975 0 0 1 0.25,-0.125 4.1218975,4.1218975 0 0 1 0.375,-0.15625 4.1218975,4.1218975 0 0 1 0.40625,-0.125 4.1218975,4.1218975 0 0 1 0.40625,-0.0937 4.1218975,4.1218975 0 0 1 0.8125,-0.0625 4.1218975,4.1218975 0 0 1 0.40625,0.0312 4.1218975,4.1218975 0 0 1 1.1875,0.34375 4.1218975,4.1218975 0 0 1 0.375,0.1875 l 4.78125,2.875 4.75,-2.875 a 4.1218975,4.1218975 0 0 1 4.1875,0 l 2.15625,1.3125 c 4.57084,-3.2056 6.79226,-8.48721 4.625,-17.15625 -1.75807,-7.03231 -9.56685,-12.46017 -17.8125,-12.25 z"
           id="path19112-2"
           inkscape:connector-curvature="0" />
        <path
           style="color:#000000;fill:#f4f9ed;fill-opacity:1;fill-rule:nonzero;stroke:none;stroke-width:2;marker:none;visibility:visible;display:inline;overflow:visible;enable-background:accumulate"
           d="m 927.375,90.875 c -6.01628,6.9172 -16.2931,3.25562 -23.78125,11.8125 a 4.1218975,4.1218975 0 0 1 0.625,-0.0312 4.1218975,4.1218975 0 0 1 0.40625,0.0312 4.1218975,4.1218975 0 0 1 1.1875,0.34375 4.1218975,4.1218975 0 0 1 0.375,0.1875 l 4.78125,2.875 4.75,-2.875 a 4.1218975,4.1218975 0 0 1 4.1875,0 L 922.0625,104.5 c 3.92269,-2.74301 6.12959,-7.00213 5.3125,-13.625 z"
           id="path19112-2-0"
           inkscape:connector-curvature="0" />
        <path
           sodipodi:type="arc"
           style="color:#000000;fill:#53a6bb;fill-opacity:1;fill-rule:nonzero;stroke:none;stroke-width:2;marker:none;visibility:visible;display:inline;overflow:visible;enable-background:accumulate"
           id="path16465-8-7"
           sodipodi:cx="932.5"
           sodipodi:cy="84.862183"
           sodipodi:rx="2.5"
           sodipodi:ry="2.5"
           d="m 935,84.862183 c 0,1.380711 -1.11929,2.5 -2.5,2.5 -1.38071,0 -2.5,-1.119289 -2.5,-2.5 0,-1.380712 1.11929,-2.5 2.5,-2.5 1.38071,0 2.5,1.119288 2.5,2.5 z"
           transform="matrix(0.96568615,0.25875483,0.25875483,-0.96568615,-20.640922,-65.58865)" />
        <path
           style="color:#000000;fill:#c8f0f5;fill-opacity:1;fill-rule:nonzero;stroke:none;stroke-width:2;marker:none;visibility:visible;display:inline;overflow:visible;enable-background:accumulate"
           d="m 895,83.43266 20,-13"
           id="path19199"
           inkscape:connector-curvature="0" />
        <path
           style="color:#000000;fill:#53a6bb;fill-opacity:1;fill-rule:nonzero;stroke:none;stroke-width:4;marker:none;visibility:visible;display:inline;overflow:visible;enable-background:accumulate"
           d="m 901.45836,68.44031 c -2.5655,-9.695222 3.9424,-16.203129 10.54164,-16.203129 7.375,0 6.53274,10.173319 0.25,10.999999 -3.33241,0.43847 -6.68623,2.99362 -8.13673,5.72742 -0.97619,1.83985 -2.28643,0.86819 -2.65491,-0.52429 z"
           id="path19256"
           inkscape:connector-curvature="0"
           sodipodi:nodetypes="sssss" />
        <path
           sodipodi:nodetypes="sssss"
           inkscape:connector-curvature="0"
           id="path19258"
           d="m 899.50917,71.5037 c -1.7376,-2.7556 -5.3606,-3.88441 -7.91249,-2.41107 -3.01981,1.74349 -0.26992,5.70999 2.49809,4.56322 1.27206,-0.52701 2.95684,-0.48833 4.13065,0.17797 2.28515,1.29712 2.37149,-0.60512 1.28375,-2.33012 z"
           style="color:#000000;fill:#53a6bb;fill-opacity:1;fill-rule:nonzero;stroke:none;stroke-width:4;marker:none;visibility:visible;display:inline;overflow:visible;enable-background:accumulate" />
        <path
           inkscape:connector-curvature="0"
           style="color:#000000;fill:#9edae3;fill-opacity:1;fill-rule:nonzero;stroke:none;stroke-width:2;marker:none;visibility:visible;display:inline;overflow:visible;enable-background:accumulate"
           d="m 865.34375,77.8125 c 0,0 -3.31325,1.28461 -3.8125,3.28125 -0.85855,3.43355 1.4375,9.34375 1.4375,9.34375 0,0 4.72339,-3.06927 8.25,-2.4375 l -5.875,-10.1875 z"
           id="path16467-8-3" />
      </g>
    </g>
  </g>
</svg>
