<?xml version="1.0" encoding="UTF-8" standalone="no"?>
<!-- Created with Inkscape (http://www.inkscape.org/) -->

<svg
   xmlns:dc="http://purl.org/dc/elements/1.1/"
   xmlns:cc="http://creativecommons.org/ns#"
   xmlns:rdf="http://www.w3.org/1999/02/22-rdf-syntax-ns#"
   xmlns:svg="http://www.w3.org/2000/svg"
   xmlns="http://www.w3.org/2000/svg"
   xmlns:sodipodi="http://sodipodi.sourceforge.net/DTD/sodipodi-0.dtd"
   xmlns:inkscape="http://www.inkscape.org/namespaces/inkscape"
   width="45"
   height="46.000008"
   id="svg8154"
   version="1.1"
   inkscape:version="0.48.1 r9760"
   sodipodi:docname="deer.svg">
  <defs
     id="defs8156" />
  <sodipodi:namedview
     id="base"
     pagecolor="#ffffff"
     bordercolor="#666666"
     borderopacity="1.0"
     inkscape:pageopacity="0.0"
     inkscape:pageshadow="2"
     inkscape:zoom="10.870742"
     inkscape:cx="23.261452"
     inkscape:cy="25.171246"
     inkscape:document-units="px"
     inkscape:current-layer="layer1"
     showgrid="true"
     fit-margin-top="0"
     fit-margin-left="0"
     fit-margin-right="0"
     fit-margin-bottom="0"
     inkscape:snap-bbox="true"
     inkscape:snap-nodes="false">
    <inkscape:grid
       type="xygrid"
       id="grid8235"
       empspacing="5"
       visible="true"
       enabled="true"
       snapvisiblegridlinesonly="true" />
  </sodipodi:namedview>
  <metadata
     id="metadata8159">
    <rdf:RDF>
      <cc:Work
         rdf:about="">
        <dc:format>image/svg+xml</dc:format>
        <dc:type
           rdf:resource="http://purl.org/dc/dcmitype/StillImage" />
        <dc:title></dc:title>
      </cc:Work>
    </rdf:RDF>
  </metadata>
  <g
     inkscape:label="Layer 1"
     inkscape:groupmode="layer"
     id="layer1"
     transform="translate(-311.45304,-514.93361)">
    <g
       transform="translate(-378.54696,297.57143)"
       id="g9001">
      <g
         id="g8960">
        <path
           transform="matrix(-1.2666707,0,0,0.86666667,2107.3378,-310.68504)"
           d="m 1115,654.86218 c 0,4.14214 -6.7157,7.5 -15,7.5 -8.2843,0 -15,-3.35786 -15,-7.5 0,-4.14213 6.7157,-7.5 15,-7.5 8.2843,0 15,3.35787 15,7.5 z"
           sodipodi:ry="7.5"
           sodipodi:rx="15"
           sodipodi:cy="654.86218"
           sodipodi:cx="1100"
           id="path8571"
           style="opacity:0.1;color:#000000;fill:#162019;fill-opacity:1;fill-rule:nonzero;stroke:none;stroke-width:2;marker:none;visibility:visible;display:inline;overflow:visible;enable-background:accumulate"
           sodipodi:type="arc" />
        <path
           sodipodi:nodetypes="ccccc"
           inkscape:connector-curvature="0"
           id="path8575"
           d="m 704.0001,238.36218 -4,0 0,18 3,0 z"
           style="color:#000000;fill:#c6c6b9;fill-opacity:1;fill-rule:nonzero;stroke:none;stroke-width:1.99950373;marker:none;visibility:visible;display:inline;overflow:visible;enable-background:accumulate" />
        <path
           style="color:#000000;fill:#5c4d42;fill-opacity:1;fill-rule:nonzero;stroke:none;stroke-width:4;marker:none;visibility:visible;display:inline;overflow:visible;enable-background:accumulate"
           d="m 699.69564,220.04213 c 0,0 2.24843,-2.67995 4.30436,-2.67995 5,0 5,8 7,13 0.90126,2.25314 -7,2 -7,2 z"
           id="path8641"
           inkscape:connector-curvature="0"
           sodipodi:nodetypes="csscc" />
        <path
           inkscape:connector-curvature="0"
           style="color:#000000;fill:#dddfd4;fill-opacity:1;fill-rule:nonzero;stroke:none;stroke-width:1.99950373;marker:none;visibility:visible;display:inline;overflow:visible;enable-background:accumulate"
           d="m 702,219.375 c -2.4267,0 -9,2 -9,2 l 0,5 6,0 1,10 0,3 c 0,2.77 2.23,5 5,5 l 15,0 c 2.77,0 5,-2.23 5,-5 l 0,-5 c 0,-2.77 -2.23,-5 -5,-5 l -12.40625,0 C 706.71484,227.2168 706,225 706,223.375 c 0,-2 -1,-4 -4,-4 z"
           id="rect8577" />
        <g
           transform="matrix(-1,0,0,1,1418.0001,137)"
           style="fill:#a58464;fill-opacity:1"
           id="g8579">
          <path
             sodipodi:nodetypes="ccccccc"
             inkscape:connector-curvature="0"
             id="path8581"
             d="m 696,107.375 0,5 1,7 3,0 0,-7 6,-5 z"
             style="color:#000000;fill:#c6c6b9;fill-opacity:1;fill-rule:nonzero;stroke:none;stroke-width:1.99950373;marker:none;visibility:visible;display:inline;overflow:visible;enable-background:accumulate" />
        </g>
        <path
           inkscape:connector-curvature="0"
           style="color:#000000;fill:#dddfd4;fill-opacity:1;fill-rule:nonzero;stroke:none;stroke-width:1.99950373;marker:none;visibility:visible;display:inline;overflow:visible;enable-background:accumulate"
           d="m 713,236.375 0,8 5,0 6,5 0,7 3,0 1,-7 -3,-6.75 0,-6.25 -12,0 z"
           id="path8583" />
        <path
           sodipodi:nodetypes="ccccc"
           inkscape:connector-curvature="0"
           id="path8585"
           d="m 710.0001,242.36218 -4,0 0,14 3,0 z"
           style="color:#000000;fill:#dddfd4;fill-opacity:1;fill-rule:nonzero;stroke:none;stroke-width:1.99950373;marker:none;visibility:visible;display:inline;overflow:visible;enable-background:accumulate" />
        <path
           sodipodi:nodetypes="ccccc"
           inkscape:connector-curvature="0"
           id="path8601"
           d="m 704.0001,222.36218 7,-4 c 0,3 0,6 -5,6 l -2,0 z"
           style="color:#000000;fill:#dddfd4;fill-opacity:1;fill-rule:nonzero;stroke:none;stroke-width:1.99950373;marker:none;visibility:visible;display:inline;overflow:visible;enable-background:accumulate" />
        <path
           sodipodi:type="arc"
           style="color:#000000;fill:#5c4d42;fill-opacity:1;fill-rule:nonzero;stroke:none;stroke-width:2;marker:none;visibility:visible;display:inline;overflow:visible;enable-background:accumulate"
           id="path8603"
           sodipodi:cx="932.5"
           sodipodi:cy="84.862183"
           sodipodi:rx="2.5"
           sodipodi:ry="2.5"
           d="m 935,84.862183 c 0,1.380711 -1.11929,2.5 -2.5,2.5 -1.38071,0 -2.5,-1.119289 -2.5,-2.5 0,-1.380712 1.11929,-2.5 2.5,-2.5 1.38071,0 2.5,1.119288 2.5,2.5 z"
           transform="matrix(0.6,0,0,0.6,141.9088,172.02904)" />
        <path
           id="path6591-4-3-8"
           d="m 725.5,231.36218 c 2.47179,0 4.5,2.02821 4.5,4.5 l 0,3.96875 0,0.0312 c -0.006,0.82034 -0.67535,1.5 -1.5,1.5 -0.82465,0 -1.49499,-0.67913 -1.5,-1.5 -6e-5,-0.0102 -1.5e-4,-0.021 0,-0.0312 l 0,-3.96875 c 0,-0.86619 -0.6338,-1.5 -1.5,-1.5 l -3,0 -0.5,0 0,-0.5 0,-2 0,-0.5 0.5,0 z"
           style="font-size:medium;font-style:normal;font-variant:normal;font-weight:normal;font-stretch:normal;text-indent:0;text-align:start;text-decoration:none;line-height:normal;letter-spacing:normal;word-spacing:normal;text-transform:none;direction:ltr;block-progression:tb;writing-mode:lr-tb;text-anchor:start;baseline-shift:baseline;color:#000000;fill:#dddfd4;fill-opacity:1;fill-rule:nonzero;stroke:none;stroke-width:1;marker:none;visibility:visible;display:inline;overflow:visible;enable-background:accumulate;font-family:Sans;-inkscape-font-specification:Sans"
           inkscape:connector-curvature="0"
           sodipodi:nodetypes="ssccsccssccccccs" />
        <path
           style="color:#000000;fill:#948c81;fill-opacity:1;fill-rule:nonzero;stroke:none;stroke-width:4;marker:none;visibility:visible;display:inline;overflow:visible;enable-background:accumulate"
           d="m 706,224.375 c 0,0 -1,3.98718 -4,4 -0.93749,0.004 -2.8125,0 -2.8125,0 l 0.3125,3 c 0,0 3.00003,0.01 4.5,0 2,-0.0128 2.53125,-5.03125 2.53125,-5.03125 -0.189,-0.65204 -0.3504,-1.29309 -0.4375,-1.875 z m 1,3.46875 0,4.03125 c 0,0 -1,2.48718 -3,2.5 -1.3958,0.009 -4.1875,0 -4.1875,0 l 0.1875,2 0,1 c 0,0 2.66669,0.009 4,0 2,-0.0128 3,-2.25 3,-2.25 l 0,1.25 0,0.98718 -5.75,5.26282 c 0.5596,0.64604 1.27024,1.14627 2.09375,1.4375 L 707,240.36218 c 0,3 2,4 3,4.01282 l 2,0 c 0,0 -2,-2.01282 -2,-4 0,-1.33333 0,-4 0,-4 l 0,-1.5 0,-5.5 -2.40625,0 C 707.38648,228.86604 707.1818,228.35069 707,227.84375 z m 6,1.53125 0,5.5 c 0,0 0,3.66667 0,5.5 0,1.98718 1,4 1,4 l 2,0 0,-4 0,-5.5 0,-5.5 z m 8.90625,0.375 c 0,0 -2.90625,0.61218 -2.90625,3.625 0,0.5 0,1.5 0,1.5 l 0,4.5 0,4.375 -1,0.625 2.875,2.40625 4.625,-3.0625 -0.5,-1.09375 0,-2.625 -3,1.875 0,-2.5 0,-4.5 c 0,0 0,-0.33333 0,-0.5 0,-2.01282 2.21875,-2.6875 2.21875,-2.6875 -0.54639,-0.86189 -1.35854,-1.54207 -2.3125,-1.9375 z m 5.09375,6.625 0,3 3,0 0,-3 z m -21,10 0,3 3.5,0 0.21875,-3 z m 20.84375,0.375 -4.28125,1.4375 1.4375,1.1875 0,1 3.84375,0 0.15625,-1 z"
           id="rect8645"
           inkscape:connector-curvature="0"
           sodipodi:nodetypes="csccscccccscccsccccccccscccccccscccccccscccccccccccsccccccccccccccccccc" />
        <path
           inkscape:connector-curvature="0"
           style="color:#000000;fill:#948c81;fill-opacity:1;fill-rule:nonzero;stroke:none;stroke-width:1.99950373;marker:none;visibility:visible;display:inline;overflow:visible;enable-background:accumulate"
           d="m 699,219.8125 c -1.03054,0.2183 -2.02957,0.46108 -3,0.71875 l 1,5.84375 2,0 z"
           id="rect8577-5"
           sodipodi:nodetypes="ccccc" />
      </g>
      <rect
         y="217.36218"
         x="690"
         height="46"
         width="45"
         id="rect8999"
         style="color:#000000;fill:none;stroke:none;stroke-width:4;marker:none;visibility:visible;display:inline;overflow:visible;enable-background:accumulate" />
    </g>
  </g>
</svg>
