<?xml version="1.0" encoding="UTF-8" standalone="no"?>
<!-- Created with Inkscape (http://www.inkscape.org/) -->

<svg
   xmlns:dc="http://purl.org/dc/elements/1.1/"
   xmlns:cc="http://creativecommons.org/ns#"
   xmlns:rdf="http://www.w3.org/1999/02/22-rdf-syntax-ns#"
   xmlns:svg="http://www.w3.org/2000/svg"
   xmlns="http://www.w3.org/2000/svg"
   xmlns:sodipodi="http://sodipodi.sourceforge.net/DTD/sodipodi-0.dtd"
   xmlns:inkscape="http://www.inkscape.org/namespaces/inkscape"
   width="32"
   height="32"
   id="svg2"
   version="1.1"
   inkscape:version="0.48.2 r9819"
   sodipodi:docname="building3.svg">
  <defs
     id="defs4" />
  <sodipodi:namedview
     id="base"
     pagecolor="#ffffff"
     bordercolor="#666666"
     borderopacity="1.0"
     inkscape:pageopacity="0.0"
     inkscape:pageshadow="2"
     inkscape:zoom="11.313708"
     inkscape:cx="13.463477"
     inkscape:cy="21.358862"
     inkscape:document-units="px"
     inkscape:current-layer="layer1"
     showgrid="false"
     fit-margin-top="0"
     fit-margin-left="0"
     fit-margin-right="0"
     fit-margin-bottom="0"
     inkscape:window-width="1635"
     inkscape:window-height="908"
     inkscape:window-x="0"
     inkscape:window-y="0"
     inkscape:window-maximized="0"
     inkscape:object-paths="true"
     inkscape:object-nodes="true">
    <inkscape:grid
       type="xygrid"
       id="grid2985"
       empspacing="5"
       visible="true"
       enabled="true"
       snapvisiblegridlinesonly="true" />
  </sodipodi:namedview>
  <metadata
     id="metadata7">
    <rdf:RDF>
      <cc:Work
         rdf:about="">
        <dc:format>image/svg+xml</dc:format>
        <dc:type
           rdf:resource="http://purl.org/dc/dcmitype/StillImage" />
        <dc:title />
      </cc:Work>
    </rdf:RDF>
  </metadata>
  <g
     inkscape:label="Layer 1"
     inkscape:groupmode="layer"
     id="layer1"
     transform="translate(-30,-425.36218)">
    <path
       inkscape:connector-curvature="0"
       style="color:#000000;fill:#1a1a1a;fill-opacity:1;fill-rule:nonzero;stroke:none;stroke-width:2;marker:none;visibility:visible;display:inline;overflow:visible;enable-background:accumulate"
       d="m 34.799999,425.36218 c -2.659199,0 -4.799999,2.1408 -4.799999,4.8 l 0,22.4 c 0,2.6592 2.1408,4.8 4.799999,4.8 l 22.399997,0 c 2.6592,0 4.8,-2.1408 4.8,-4.8 l 0,-22.4 c 0,-2.6592 -2.1408,-4.8 -4.8,-4.8 z m 3.199999,4.8 1.600001,0 c 1.772799,0 3.199999,1.42721 3.199999,3.2 l 0,1.60001 c 0,1.77279 -1.4272,3.2 -3.199999,3.2 l -1.600001,0 c -1.772799,0 -3.199999,-1.42721 -3.199999,-3.2 l 0,-1.60001 c 0,-1.77279 1.4272,-3.2 3.199999,-3.2 z m 14.399999,0 1.599999,0 c 1.772801,0 3.2,1.42721 3.2,3.2 l 0,1.60001 c 0,1.77279 -1.427199,3.2 -3.2,3.2 l -1.599999,0 c -1.7728,0 -3.199999,-1.42721 -3.199999,-3.2 l 0,-1.60001 c 0,-1.77279 1.427199,-3.2 3.199999,-3.2 z m -14.399999,14.4 1.600001,0 c 1.772799,0 3.199999,1.4272 3.199999,3.2 l 0,1.6 c 0,1.7728 -1.4272,3.2 -3.199999,3.2 l -1.600001,0 c -1.772799,0 -3.199999,-1.4272 -3.199999,-3.2 l 0,-1.6 c 0,-1.7728 1.4272,-3.2 3.199999,-3.2 z m 14.399999,0 1.599999,0 c 1.772801,0 3.2,1.4272 3.2,3.2 l 0,1.6 c 0,1.7728 -1.427199,3.2 -3.2,3.2 l -1.599999,0 c -1.7728,0 -3.199999,-1.4272 -3.199999,-3.2 l 0,-1.6 c 0,-1.7728 1.427199,-3.2 3.199999,-3.2 z"
       id="rect4704-7-1-9"
       sodipodi:nodetypes="ccccccccccccccccccccccccccccccccccccccccccccc" />
  </g>
</svg>
