<?xml version="1.0" encoding="UTF-8" standalone="no"?>
<!-- Created with Inkscape (http://www.inkscape.org/) -->

<svg
   xmlns:dc="http://purl.org/dc/elements/1.1/"
   xmlns:cc="http://creativecommons.org/ns#"
   xmlns:rdf="http://www.w3.org/1999/02/22-rdf-syntax-ns#"
   xmlns:svg="http://www.w3.org/2000/svg"
   xmlns="http://www.w3.org/2000/svg"
   xmlns:sodipodi="http://sodipodi.sourceforge.net/DTD/sodipodi-0.dtd"
   xmlns:inkscape="http://www.inkscape.org/namespaces/inkscape"
   width="32"
   height="32"
   id="svg2"
   version="1.1"
   inkscape:version="0.48.2 r9819"
   sodipodi:docname="building5.svg">
  <defs
     id="defs4" />
  <sodipodi:namedview
     id="base"
     pagecolor="#ffffff"
     bordercolor="#666666"
     borderopacity="1.0"
     inkscape:pageopacity="0.0"
     inkscape:pageshadow="2"
     inkscape:zoom="11.313708"
     inkscape:cx="11.945512"
     inkscape:cy="16.935621"
     inkscape:document-units="px"
     inkscape:current-layer="layer1"
     showgrid="true"
     fit-margin-top="0"
     fit-margin-left="0"
     fit-margin-right="0"
     fit-margin-bottom="0"
     inkscape:window-width="1635"
     inkscape:window-height="908"
     inkscape:window-x="112"
     inkscape:window-y="81"
     inkscape:window-maximized="0"
     inkscape:object-paths="true"
     inkscape:object-nodes="true">
    <inkscape:grid
       type="xygrid"
       id="grid2985"
       empspacing="5"
       visible="true"
       enabled="true"
       snapvisiblegridlinesonly="true" />
  </sodipodi:namedview>
  <metadata
     id="metadata7">
    <rdf:RDF>
      <cc:Work
         rdf:about="">
        <dc:format>image/svg+xml</dc:format>
        <dc:type
           rdf:resource="http://purl.org/dc/dcmitype/StillImage" />
        <dc:title></dc:title>
      </cc:Work>
    </rdf:RDF>
  </metadata>
  <g
     inkscape:label="Layer 1"
     inkscape:groupmode="layer"
     id="layer1"
     transform="translate(-30,-425.36218)">
    <path
       style="color:#000000;fill:#000000;fill-opacity:1;fill-rule:nonzero;stroke:none;stroke-width:2;marker:none;visibility:visible;display:inline;overflow:visible;enable-background:accumulate"
       d="M 33.107143,426.29075 C 31.385786,426.29075 30,427.67654 30,429.39789 l 0,3.10715 c 0,0.13558 0.01568,0.25748 0.03237,0.38839 -0.0011,0.0109 0.0011,0.0214 0,0.0323 C 30.011739,433.12847 30,433.32558 30,433.54075 l 0,1.03572 0,2.07142 0,17.60715 c 0,1.72135 1.385786,3.10714 3.107143,3.10714 l 25.892857,0 c 1.721357,0 3.107143,-1.38579 3.107143,-3.10714 l 0,-19.67857 c 0,-1.72136 -1.385786,-3.10715 -3.107143,-3.10715 l -18.642857,0 0,-2.07143 c 0,-1.72135 -1.385786,-3.10714 -3.107143,-3.10714 z m 3.107143,10.35714 1.035714,0 c 1.147571,0 2.071429,0.92386 2.071429,2.07143 l 0,1.03572 c 0,1.14757 -0.923858,2.07143 -2.071429,2.07143 l -1.035714,0 c -1.147572,0 -2.071429,-0.92386 -2.071429,-2.07143 l 0,-1.03572 c 0,-1.14757 0.923857,-2.07143 2.071429,-2.07143 z m 9.321428,0 1.035715,0 c 1.147571,0 2.071428,0.92386 2.071428,2.07143 l 0,1.03572 c 0,1.14757 -0.923857,2.07143 -2.071428,2.07143 l -1.035715,0 c -1.147571,0 -2.071428,-0.92386 -2.071428,-2.07143 l 0,-1.03572 c 0,-1.14757 0.923857,-2.07143 2.071428,-2.07143 z m 9.321429,0 1.035714,0 c 1.14757,0 2.071429,0.92386 2.071429,2.07143 l 0,1.03572 c 0,1.14757 -0.923859,2.07143 -2.071429,2.07143 l -1.035714,0 c -1.147572,0 -2.071429,-0.92386 -2.071429,-2.07143 l 0,-1.03572 c 0,-1.14757 0.923857,-2.07143 2.071429,-2.07143 z m -18.642857,10.35715 1.035714,0 c 1.147571,0 2.071429,0.92385 2.071429,2.07143 l 0,1.03571 c 0,1.14757 -0.923858,2.07143 -2.071429,2.07143 l -1.035714,0 c -1.147572,0 -2.071429,-0.92386 -2.071429,-2.07143 l 0,-1.03571 c 0,-1.14758 0.923857,-2.07143 2.071429,-2.07143 z m 9.321428,0 1.035715,0 c 1.147571,0 2.071428,0.92385 2.071428,2.07143 l 0,1.03571 c 0,1.14757 -0.923857,2.07143 -2.071428,2.07143 l -1.035715,0 c -1.147571,0 -2.071428,-0.92386 -2.071428,-2.07143 l 0,-1.03571 c 0,-1.14758 0.923857,-2.07143 2.071428,-2.07143 z m 9.321429,0 1.035714,0 c 1.14757,0 2.071429,0.92385 2.071429,2.07143 l 0,1.03571 c 0,1.14757 -0.923859,2.07143 -2.071429,2.07143 l -1.035714,0 c -1.147572,0 -2.071429,-0.92386 -2.071429,-2.07143 l 0,-1.03571 c 0,-1.14758 0.923857,-2.07143 2.071429,-2.07143 z"
       id="rect4704-7-3"
       inkscape:connector-curvature="0"
       sodipodi:nodetypes="sssccsccsssssscsssssssssssssssssssssssssssssssssssssssssssssssssssssssss" />
  </g>
</svg>
