<?xml version="1.0" encoding="UTF-8" standalone="no"?>
<!-- Created with Inkscape (http://www.inkscape.org/) -->

<svg
   xmlns:dc="http://purl.org/dc/elements/1.1/"
   xmlns:cc="http://creativecommons.org/ns#"
   xmlns:rdf="http://www.w3.org/1999/02/22-rdf-syntax-ns#"
   xmlns:svg="http://www.w3.org/2000/svg"
   xmlns="http://www.w3.org/2000/svg"
   xmlns:xlink="http://www.w3.org/1999/xlink"
   xmlns:sodipodi="http://sodipodi.sourceforge.net/DTD/sodipodi-0.dtd"
   xmlns:inkscape="http://www.inkscape.org/namespaces/inkscape"
   width="32"
   height="32"
   id="svg2"
   version="1.1"
   inkscape:version="0.48.5 r10040"
   sodipodi:docname="hill4.svg">
  <defs
     id="defs4">
    <linearGradient
       inkscape:collect="always"
       id="linearGradient5537">
      <stop
         style="stop-color:#000000;stop-opacity:1;"
         offset="0"
         id="stop5539" />
      <stop
         style="stop-color:#000000;stop-opacity:0;"
         offset="1"
         id="stop5541" />
    </linearGradient>
    <linearGradient
       inkscape:collect="always"
       xlink:href="#linearGradient5537"
       id="linearGradient5543"
       x1="168.59293"
       y1="364.37762"
       x2="168.59293"
       y2="388.81378"
       gradientUnits="userSpaceOnUse" />
  </defs>
  <sodipodi:namedview
     id="base"
     pagecolor="#ffffff"
     bordercolor="#666666"
     borderopacity="1.0"
     inkscape:pageopacity="0.0"
     inkscape:pageshadow="2"
     inkscape:zoom="11.313708"
     inkscape:cx="-1.3980747"
     inkscape:cy="19.447933"
     inkscape:document-units="px"
     inkscape:current-layer="layer1"
     showgrid="false"
     fit-margin-top="0"
     fit-margin-left="0"
     fit-margin-right="0"
     fit-margin-bottom="0"
     inkscape:window-width="1280"
     inkscape:window-height="756"
     inkscape:window-x="0"
     inkscape:window-y="0"
     inkscape:window-maximized="0"
     inkscape:object-paths="true"
     inkscape:snap-bbox="true">
    <inkscape:grid
       type="xygrid"
       id="grid2985"
       empspacing="5"
       visible="true"
       enabled="true"
       snapvisiblegridlinesonly="true" />
  </sodipodi:namedview>
  <metadata
     id="metadata7">
    <rdf:RDF>
      <cc:Work
         rdf:about="">
        <dc:format>image/svg+xml</dc:format>
        <dc:type
           rdf:resource="http://purl.org/dc/dcmitype/StillImage" />
        <dc:title></dc:title>
      </cc:Work>
    </rdf:RDF>
  </metadata>
  <g
     inkscape:label="Layer 1"
     inkscape:groupmode="layer"
     id="layer1"
     transform="translate(-30,-425.36218)">
    <path
       style="color:#000000;fill:#000000;fill-opacity:1;fill-rule:nonzero;stroke:none;stroke-width:8;marker:none;visibility:visible;display:inline;overflow:visible;enable-background:accumulate"
       d="M 11.34375 4.21875 C 9.809744 4.1944919 8.0712856 4.9280707 6.4375 6.8125 C 6.4068146 6.8540933 6.3740171 6.8955485 6.34375 6.9375 C 2.4571819 12.324449 2 20.629186 2 24 C 2 30 8 30 8 30 L 24 30 C 24 30 30 30 30 24 C 30 23.900518 30.000859 23.732884 30 23.625 L 29.96875 23.625 C 29.70881 20.058965 27.119481 18 23.9375 18 L 22.5625 18 C 22.833975 17.388284 23 16.715429 23 16 C 23 13.238576 20.761424 11 18 11 C 17.286496 11 16.613203 11.166966 16 11.4375 L 16 9 C 16 6.5 13.955963 4.2600584 11.34375 4.21875 z "
       transform="translate(30,425.36218)"
       id="path5499" />
  </g>
</svg>
