<?xml version="1.0" encoding="UTF-8" standalone="no"?>
<!-- Created with Inkscape (http://www.inkscape.org/) -->

<svg
   xmlns:dc="http://purl.org/dc/elements/1.1/"
   xmlns:cc="http://creativecommons.org/ns#"
   xmlns:rdf="http://www.w3.org/1999/02/22-rdf-syntax-ns#"
   xmlns:svg="http://www.w3.org/2000/svg"
   xmlns="http://www.w3.org/2000/svg"
   xmlns:xlink="http://www.w3.org/1999/xlink"
   xmlns:sodipodi="http://sodipodi.sourceforge.net/DTD/sodipodi-0.dtd"
   xmlns:inkscape="http://www.inkscape.org/namespaces/inkscape"
   width="32"
   height="32"
   id="svg2"
   version="1.1"
   inkscape:version="0.48.2 r9819"
   sodipodi:docname="industrial.svg">
  <defs
     id="defs4">
    <linearGradient
       inkscape:collect="always"
       id="linearGradient5537">
      <stop
         style="stop-color:#000000;stop-opacity:1;"
         offset="0"
         id="stop5539" />
      <stop
         style="stop-color:#000000;stop-opacity:0;"
         offset="1"
         id="stop5541" />
    </linearGradient>
    <linearGradient
       inkscape:collect="always"
       xlink:href="#linearGradient5537"
       id="linearGradient5543"
       x1="168.59293"
       y1="364.37762"
       x2="168.59293"
       y2="388.81378"
       gradientUnits="userSpaceOnUse" />
  </defs>
  <sodipodi:namedview
     id="base"
     pagecolor="#ffffff"
     bordercolor="#666666"
     borderopacity="1.0"
     inkscape:pageopacity="0.0"
     inkscape:pageshadow="2"
     inkscape:zoom="8"
     inkscape:cx="24.647445"
     inkscape:cy="16.601886"
     inkscape:document-units="px"
     inkscape:current-layer="layer1"
     showgrid="true"
     fit-margin-top="0"
     fit-margin-left="0"
     fit-margin-right="0"
     fit-margin-bottom="0"
     inkscape:window-width="1280"
     inkscape:window-height="756"
     inkscape:window-x="0"
     inkscape:window-y="0"
     inkscape:window-maximized="0">
    <inkscape:grid
       type="xygrid"
       id="grid2985"
       empspacing="5"
       visible="true"
       enabled="true"
       snapvisiblegridlinesonly="true" />
  </sodipodi:namedview>
  <metadata
     id="metadata7">
    <rdf:RDF>
      <cc:Work
         rdf:about="">
        <dc:format>image/svg+xml</dc:format>
        <dc:type
           rdf:resource="http://purl.org/dc/dcmitype/StillImage" />
        <dc:title />
      </cc:Work>
    </rdf:RDF>
  </metadata>
  <g
     inkscape:label="Layer 1"
     inkscape:groupmode="layer"
     id="layer1"
     transform="translate(-30,-425.36218)">
    <path
       style="color:#000000;fill:#000000;fill-opacity:1;fill-rule:nonzero;stroke:none;stroke-width:8;marker:none;visibility:visible;display:inline;overflow:visible;enable-background:accumulate"
       d="M 1.6875,4 C 0.74836637,4.1485742 -0.01158486,5.0492571 0,6 l 0,9 c 1.6343205e-5,0.16362 0.01924261,0.313015 0.0625,0.46875 C 0.03939247,15.643399 0,15.818838 0,16 l 0,10 c 0,2.216 1.784,4 4,4 l 24,0 c 2.216,0 4,-1.784 4,-4 l 0,-10 c 0,-1 -0.607275,-2.161364 -1.328125,-3 L 23.5,4.65625 C 23.057604,4.1524878 22.349862,3.8962363 21.6875,4 20.748366,4.1485742 19.988415,5.0492571 20,6 l 0,5.96875 -6.5,-7.3125 C 13.057604,4.1524878 12.349862,3.8962363 11.6875,4 10.748366,4.1485742 9.9884151,5.0492571 10,6 l 0,5.96875 -6.5,-7.3125 C 3.0576043,4.1524878 2.349862,3.8962363 1.6875,4 z"
       transform="translate(30,425.36218)"
       id="rect17719"
       inkscape:connector-curvature="0"
       sodipodi:nodetypes="ccccssssscscccccccccc" />
  </g>
</svg>
