<?xml version="1.0" encoding="UTF-8" standalone="no"?>
<!-- Created with Inkscape (http://www.inkscape.org/) -->

<svg
   xmlns:dc="http://purl.org/dc/elements/1.1/"
   xmlns:cc="http://creativecommons.org/ns#"
   xmlns:rdf="http://www.w3.org/1999/02/22-rdf-syntax-ns#"
   xmlns:svg="http://www.w3.org/2000/svg"
   xmlns="http://www.w3.org/2000/svg"
   xmlns:sodipodi="http://sodipodi.sourceforge.net/DTD/sodipodi-0.dtd"
   xmlns:inkscape="http://www.inkscape.org/namespaces/inkscape"
   width="32"
   height="32"
   id="svg2"
   version="1.1"
   inkscape:version="0.48.5 r10040"
   sodipodi:docname="marsh1.svg">
  <defs
     id="defs4" />
  <sodipodi:namedview
     id="base"
     pagecolor="#ffffff"
     bordercolor="#666666"
     borderopacity="1.0"
     inkscape:pageopacity="0.0"
     inkscape:pageshadow="2"
     inkscape:zoom="1"
     inkscape:cx="20.588357"
     inkscape:cy="18.40914"
     inkscape:document-units="px"
     inkscape:current-layer="layer1"
     showgrid="false"
     fit-margin-top="0"
     fit-margin-left="0"
     fit-margin-right="0"
     fit-margin-bottom="0"
     inkscape:window-width="1280"
     inkscape:window-height="756"
     inkscape:window-x="0"
     inkscape:window-y="0"
     inkscape:window-maximized="0"
     inkscape:object-paths="true"
     inkscape:object-nodes="true">
    <inkscape:grid
       type="xygrid"
       id="grid2985"
       empspacing="5"
       visible="true"
       enabled="true"
       snapvisiblegridlinesonly="true" />
  </sodipodi:namedview>
  <metadata
     id="metadata7">
    <rdf:RDF>
      <cc:Work
         rdf:about="">
        <dc:format>image/svg+xml</dc:format>
        <dc:type
           rdf:resource="http://purl.org/dc/dcmitype/StillImage" />
        <dc:title />
      </cc:Work>
    </rdf:RDF>
  </metadata>
  <g
     inkscape:label="Layer 1"
     inkscape:groupmode="layer"
     id="layer1"
     transform="translate(-30,-425.36218)">
    <path
       style="color:#000000;fill:#000000;fill-opacity:1;fill-rule:nonzero;stroke:none;stroke-width:8;marker:none;visibility:visible;display:inline;overflow:visible;enable-background:accumulate"
       d="M 4.6875,5 C 3.1165158,5.0815485 1.7614088,6.5853071 1.8432301,8.1562771 1.9250515,9.7272471 3.4290442,11.082094 5,11 7.666667,11 9.974372,11.48363 11.28125,12.21875 12.588128,12.95387 13,13.5 13,15 l 0,12 c 0,1.662 1.338,3 3,3 1.662,0 3,-1.338 3,-3 l 0,-12 c 0,-1.5 0.411872,-2.04613 1.71875,-2.78125 C 22.025628,11.48363 24.333333,11 27,11 28.584938,11.022415 30.042726,9.5850963 30.042726,8 30.042726,6.4149037 28.584938,4.977585 27,5 23.666667,5 20.474372,5.48512 17.78125,7 17.140042,7.3606794 16.5526,7.8292769 16,8.34375 15.4474,7.8292769 14.859958,7.3606794 14.21875,7 11.525628,5.48512 8.333333,5 5,5 4.8959276,4.9945727 4.7915724,4.9945727 4.6875,5 z"
       id="rect3325"
       transform="translate(30,425.36218)"
       inkscape:connector-curvature="0"
       sodipodi:nodetypes="cccccccccccccccccc" />
  </g>
</svg>
