<?xml version="1.0" encoding="UTF-8" standalone="no"?>
<!-- Created with Inkscape (http://www.inkscape.org/) -->

<svg
   xmlns:dc="http://purl.org/dc/elements/1.1/"
   xmlns:cc="http://creativecommons.org/ns#"
   xmlns:rdf="http://www.w3.org/1999/02/22-rdf-syntax-ns#"
   xmlns:svg="http://www.w3.org/2000/svg"
   xmlns="http://www.w3.org/2000/svg"
   xmlns:sodipodi="http://sodipodi.sourceforge.net/DTD/sodipodi-0.dtd"
   xmlns:inkscape="http://www.inkscape.org/namespaces/inkscape"
   width="32"
   height="32"
   id="svg2"
   version="1.1"
   inkscape:version="0.48.2 r9819"
   sodipodi:docname="land2.svg">
  <defs
     id="defs4" />
  <sodipodi:namedview
     id="base"
     pagecolor="#ffffff"
     bordercolor="#666666"
     borderopacity="1.0"
     inkscape:pageopacity="0.0"
     inkscape:pageshadow="2"
     inkscape:zoom="4"
     inkscape:cx="26.648884"
     inkscape:cy="18.310506"
     inkscape:document-units="px"
     inkscape:current-layer="layer1"
     showgrid="false"
     fit-margin-top="0"
     fit-margin-left="0"
     fit-margin-right="0"
     fit-margin-bottom="0"
     inkscape:window-width="1280"
     inkscape:window-height="756"
     inkscape:window-x="0"
     inkscape:window-y="0"
     inkscape:window-maximized="0"
     inkscape:object-paths="true"
     inkscape:object-nodes="true">
    <inkscape:grid
       type="xygrid"
       id="grid2985"
       empspacing="5"
       visible="true"
       enabled="true"
       snapvisiblegridlinesonly="true" />
  </sodipodi:namedview>
  <metadata
     id="metadata7">
    <rdf:RDF>
      <cc:Work
         rdf:about="">
        <dc:format>image/svg+xml</dc:format>
        <dc:type
           rdf:resource="http://purl.org/dc/dcmitype/StillImage" />
        <dc:title></dc:title>
      </cc:Work>
    </rdf:RDF>
  </metadata>
  <g
     inkscape:label="Layer 1"
     inkscape:groupmode="layer"
     id="layer1"
     transform="translate(-30,-425.36218)">
    <path
       style="font-size:medium;font-style:normal;font-variant:normal;font-weight:normal;font-stretch:normal;text-indent:0;text-align:start;text-decoration:none;line-height:normal;letter-spacing:normal;word-spacing:normal;text-transform:none;direction:ltr;block-progression:tb;writing-mode:lr-tb;text-anchor:start;baseline-shift:baseline;color:#000000;fill:#000000;fill-opacity:1;stroke:none;stroke-width:6;marker:none;visibility:visible;display:inline;overflow:visible;enable-background:accumulate;font-family:Sans;-inkscape-font-specification:Sans"
       d="m 45.96875,427.29968 c -0.104617,0.005 -0.208974,0.0154 -0.3125,0.0312 -1.463366,0.16871 -2.681138,1.5584 -2.65625,3.03125 l 0,11 0,1.8125 c -0.100594,-0.0938 -0.236899,-0.21319 -0.40625,-0.4375 -0.580631,-0.76907 -1.276128,-2.09532 -1.84375,-3.46875 -1.135245,-2.74686 -1.84375,-5.625 -1.84375,-5.625 -0.318349,-1.36204 -1.697304,-2.39278 -3.09375,-2.3125 -1.76047,0.1087 -3.162838,2.043 -2.71875,3.75 0,0 0.768895,3.1875 2.125,6.46875 0.678053,1.64063 1.483637,3.31086 2.59375,4.78125 0.572135,0.75782 1.284798,1.53994 2.1875,2.125 l 0,2.90625 c -0.0093,1.05161 0.436783,2.61262 1.488419,2.61807 l 9.029567,0.0468 c 1.066183,0.006 1.509207,-1.59903 1.482014,-2.66488 l 0,-2.90625 c 0.902702,-0.58507 1.615365,-1.36718 2.1875,-2.125 1.110113,-1.47039 1.915697,-3.14062 2.59375,-4.78125 1.356105,-3.28126 2.125,-6.5 2.125,-6.5 0.448939,-1.73616 -1.020087,-3.69486 -2.8125,-3.75 -1.374293,-0.0331 -2.699577,1.00229 -3,2.34375 0,0 -0.708505,2.84689 -1.84375,5.59375 -0.567622,1.37343 -1.263119,2.69968 -1.84375,3.46875 -0.169351,0.22431 -0.305656,0.37114 -0.40625,0.46875 l 0,-1.8125 0,-11 c 0.03331,-1.60193 -1.429062,-3.07937 -3.03125,-3.0625 z"
       id="path17030"
       inkscape:connector-curvature="0"
       sodipodi:nodetypes="cccccsscccssccssccsscccssccccc" />
  </g>
</svg>
